<svg width="434" height="88" viewBox="0 0 434 88" fill="none" xmlns="http://www.w3.org/2000/svg">
<rect x="0.5" y="0.5" width="389" height="41" stroke="#D1D5DB"/>
<line x1="181.5" y1="42" x2="181.5" y2="-4.2089e-10" stroke="#D1D5DB"/>
<line x1="233.5" y1="42" x2="233.5" stroke="#D1D5DB"/>
<line x1="285.5" y1="42" x2="285.5" stroke="#D1D5DB"/>
<line x1="342.5" y1="42" x2="342.5" stroke="#D1D5DB"/>
<line x1="86.5" y1="42" x2="86.5" stroke="#D1D5DB"/>
<line x1="132.5" y1="42" x2="132.5" stroke="#D1D5DB"/>
<path d="M42 42L42 0" stroke="#D1D5DB"/>
<path d="M67.1289 20.9001V23.5016C67.1289 24.9001 67.0039 26.0798 66.7539 27.0407C66.5039 28.0016 66.1445 28.7751 65.6758 29.361C65.207 29.947 64.6406 30.3727 63.9766 30.6384C63.3203 30.8962 62.5781 31.0251 61.75 31.0251C61.0938 31.0251 60.4883 30.9431 59.9336 30.779C59.3789 30.6149 58.8789 30.3532 58.4336 29.9938C57.9961 29.6266 57.6211 29.1501 57.3086 28.5641C56.9961 27.9782 56.7578 27.2673 56.5938 26.4313C56.4297 25.5954 56.3477 24.6188 56.3477 23.5016V20.9001C56.3477 19.5016 56.4727 18.3298 56.7227 17.3845C56.9805 16.4391 57.3438 15.6813 57.8125 15.111C58.2812 14.5329 58.8438 14.1188 59.5 13.8688C60.1641 13.6188 60.9062 13.4938 61.7266 13.4938C62.3906 13.4938 63 13.5759 63.5547 13.7399C64.1172 13.8962 64.6172 14.1501 65.0547 14.5016C65.4922 14.8454 65.8633 15.3063 66.168 15.8845C66.4805 16.4548 66.7188 17.154 66.8828 17.9821C67.0469 18.8102 67.1289 19.7829 67.1289 20.9001ZM64.9492 23.8532V20.5368C64.9492 19.7712 64.9023 19.0993 64.8086 18.5212C64.7227 17.9352 64.5938 17.4352 64.4219 17.0212C64.25 16.6071 64.0312 16.2712 63.7656 16.0134C63.5078 15.7556 63.207 15.5681 62.8633 15.4509C62.5273 15.3259 62.1484 15.2634 61.7266 15.2634C61.2109 15.2634 60.7539 15.361 60.3555 15.5563C59.957 15.7438 59.6211 16.0446 59.3477 16.4587C59.082 16.8727 58.8789 17.4157 58.7383 18.0876C58.5977 18.7595 58.5273 19.5759 58.5273 20.5368V23.8532C58.5273 24.6188 58.5703 25.2946 58.6562 25.8806C58.75 26.4665 58.8867 26.9743 59.0664 27.404C59.2461 27.8259 59.4648 28.1735 59.7227 28.447C59.9805 28.7204 60.2773 28.9235 60.6133 29.0563C60.957 29.1813 61.3359 29.2438 61.75 29.2438C62.2812 29.2438 62.7461 29.1423 63.1445 28.9391C63.543 28.736 63.875 28.4196 64.1406 27.9899C64.4141 27.5524 64.6172 26.9938 64.75 26.3141C64.8828 25.6266 64.9492 24.8063 64.9492 23.8532Z" fill="white"/>
<path d="M111.129 20.9001V23.5016C111.129 24.9001 111.004 26.0798 110.754 27.0407C110.504 28.0016 110.145 28.7751 109.676 29.361C109.207 29.947 108.641 30.3727 107.977 30.6384C107.32 30.8962 106.578 31.0251 105.75 31.0251C105.094 31.0251 104.488 30.9431 103.934 30.779C103.379 30.6149 102.879 30.3532 102.434 29.9938C101.996 29.6266 101.621 29.1501 101.309 28.5641C100.996 27.9782 100.758 27.2673 100.594 26.4313C100.43 25.5954 100.348 24.6188 100.348 23.5016V20.9001C100.348 19.5016 100.473 18.3298 100.723 17.3845C100.98 16.4391 101.344 15.6813 101.812 15.111C102.281 14.5329 102.844 14.1188 103.5 13.8688C104.164 13.6188 104.906 13.4938 105.727 13.4938C106.391 13.4938 107 13.5759 107.555 13.7399C108.117 13.8962 108.617 14.1501 109.055 14.5016C109.492 14.8454 109.863 15.3063 110.168 15.8845C110.48 16.4548 110.719 17.154 110.883 17.9821C111.047 18.8102 111.129 19.7829 111.129 20.9001ZM108.949 23.8532V20.5368C108.949 19.7712 108.902 19.0993 108.809 18.5212C108.723 17.9352 108.594 17.4352 108.422 17.0212C108.25 16.6071 108.031 16.2712 107.766 16.0134C107.508 15.7556 107.207 15.5681 106.863 15.4509C106.527 15.3259 106.148 15.2634 105.727 15.2634C105.211 15.2634 104.754 15.361 104.355 15.5563C103.957 15.7438 103.621 16.0446 103.348 16.4587C103.082 16.8727 102.879 17.4157 102.738 18.0876C102.598 18.7595 102.527 19.5759 102.527 20.5368V23.8532C102.527 24.6188 102.57 25.2946 102.656 25.8806C102.75 26.4665 102.887 26.9743 103.066 27.404C103.246 27.8259 103.465 28.1735 103.723 28.447C103.98 28.7204 104.277 28.9235 104.613 29.0563C104.957 29.1813 105.336 29.2438 105.75 29.2438C106.281 29.2438 106.746 29.1423 107.145 28.9391C107.543 28.736 107.875 28.4196 108.141 27.9899C108.414 27.5524 108.617 26.9938 108.75 26.3141C108.883 25.6266 108.949 24.8063 108.949 23.8532Z" fill="white"/>
<path d="M161.129 20.9001V23.5016C161.129 24.9001 161.004 26.0798 160.754 27.0407C160.504 28.0016 160.145 28.7751 159.676 29.361C159.207 29.947 158.641 30.3727 157.977 30.6384C157.32 30.8962 156.578 31.0251 155.75 31.0251C155.094 31.0251 154.488 30.9431 153.934 30.779C153.379 30.6149 152.879 30.3532 152.434 29.9938C151.996 29.6266 151.621 29.1501 151.309 28.5641C150.996 27.9782 150.758 27.2673 150.594 26.4313C150.43 25.5954 150.348 24.6188 150.348 23.5016V20.9001C150.348 19.5016 150.473 18.3298 150.723 17.3845C150.98 16.4391 151.344 15.6813 151.812 15.111C152.281 14.5329 152.844 14.1188 153.5 13.8688C154.164 13.6188 154.906 13.4938 155.727 13.4938C156.391 13.4938 157 13.5759 157.555 13.7399C158.117 13.8962 158.617 14.1501 159.055 14.5016C159.492 14.8454 159.863 15.3063 160.168 15.8845C160.48 16.4548 160.719 17.154 160.883 17.9821C161.047 18.8102 161.129 19.7829 161.129 20.9001ZM158.949 23.8532V20.5368C158.949 19.7712 158.902 19.0993 158.809 18.5212C158.723 17.9352 158.594 17.4352 158.422 17.0212C158.25 16.6071 158.031 16.2712 157.766 16.0134C157.508 15.7556 157.207 15.5681 156.863 15.4509C156.527 15.3259 156.148 15.2634 155.727 15.2634C155.211 15.2634 154.754 15.361 154.355 15.5563C153.957 15.7438 153.621 16.0446 153.348 16.4587C153.082 16.8727 152.879 17.4157 152.738 18.0876C152.598 18.7595 152.527 19.5759 152.527 20.5368V23.8532C152.527 24.6188 152.57 25.2946 152.656 25.8806C152.75 26.4665 152.887 26.9743 153.066 27.404C153.246 27.8259 153.465 28.1735 153.723 28.447C153.98 28.7204 154.277 28.9235 154.613 29.0563C154.957 29.1813 155.336 29.2438 155.75 29.2438C156.281 29.2438 156.746 29.1423 157.145 28.9391C157.543 28.736 157.875 28.4196 158.141 27.9899C158.414 27.5524 158.617 26.9938 158.75 26.3141C158.883 25.6266 158.949 24.8063 158.949 23.8532Z" fill="white"/>
<path d="M211.129 20.9001V23.5016C211.129 24.9001 211.004 26.0798 210.754 27.0407C210.504 28.0016 210.145 28.7751 209.676 29.361C209.207 29.947 208.641 30.3727 207.977 30.6384C207.32 30.8962 206.578 31.0251 205.75 31.0251C205.094 31.0251 204.488 30.9431 203.934 30.779C203.379 30.6149 202.879 30.3532 202.434 29.9938C201.996 29.6266 201.621 29.1501 201.309 28.5641C200.996 27.9782 200.758 27.2673 200.594 26.4313C200.43 25.5954 200.348 24.6188 200.348 23.5016V20.9001C200.348 19.5016 200.473 18.3298 200.723 17.3845C200.98 16.4391 201.344 15.6813 201.812 15.111C202.281 14.5329 202.844 14.1188 203.5 13.8688C204.164 13.6188 204.906 13.4938 205.727 13.4938C206.391 13.4938 207 13.5759 207.555 13.7399C208.117 13.8962 208.617 14.1501 209.055 14.5016C209.492 14.8454 209.863 15.3063 210.168 15.8845C210.48 16.4548 210.719 17.154 210.883 17.9821C211.047 18.8102 211.129 19.7829 211.129 20.9001ZM208.949 23.8532V20.5368C208.949 19.7712 208.902 19.0993 208.809 18.5212C208.723 17.9352 208.594 17.4352 208.422 17.0212C208.25 16.6071 208.031 16.2712 207.766 16.0134C207.508 15.7556 207.207 15.5681 206.863 15.4509C206.527 15.3259 206.148 15.2634 205.727 15.2634C205.211 15.2634 204.754 15.361 204.355 15.5563C203.957 15.7438 203.621 16.0446 203.348 16.4587C203.082 16.8727 202.879 17.4157 202.738 18.0876C202.598 18.7595 202.527 19.5759 202.527 20.5368V23.8532C202.527 24.6188 202.57 25.2946 202.656 25.8806C202.75 26.4665 202.887 26.9743 203.066 27.404C203.246 27.8259 203.465 28.1735 203.723 28.447C203.98 28.7204 204.277 28.9235 204.613 29.0563C204.957 29.1813 205.336 29.2438 205.75 29.2438C206.281 29.2438 206.746 29.1423 207.145 28.9391C207.543 28.736 207.875 28.4196 208.141 27.9899C208.414 27.5524 208.617 26.9938 208.75 26.3141C208.883 25.6266 208.949 24.8063 208.949 23.8532Z" fill="white"/>
<path d="M257.543 13.6345V30.7907H255.375V16.3415L251.004 17.9352V15.9782L257.203 13.6345H257.543Z" fill="white"/>
<path d="M314.543 13.6345V30.7907H312.375V16.3415L308.004 17.9352V15.9782L314.203 13.6345H314.543Z" fill="white"/>
<path d="M370.129 20.9001V23.5016C370.129 24.9001 370.004 26.0798 369.754 27.0407C369.504 28.0016 369.145 28.7751 368.676 29.361C368.207 29.947 367.641 30.3727 366.977 30.6384C366.32 30.8962 365.578 31.0251 364.75 31.0251C364.094 31.0251 363.488 30.9431 362.934 30.779C362.379 30.6149 361.879 30.3532 361.434 29.9938C360.996 29.6266 360.621 29.1501 360.309 28.5641C359.996 27.9782 359.758 27.2673 359.594 26.4313C359.43 25.5954 359.348 24.6188 359.348 23.5016V20.9001C359.348 19.5016 359.473 18.3298 359.723 17.3845C359.98 16.4391 360.344 15.6813 360.812 15.111C361.281 14.5329 361.844 14.1188 362.5 13.8688C363.164 13.6188 363.906 13.4938 364.727 13.4938C365.391 13.4938 366 13.5759 366.555 13.7399C367.117 13.8962 367.617 14.1501 368.055 14.5016C368.492 14.8454 368.863 15.3063 369.168 15.8845C369.48 16.4548 369.719 17.154 369.883 17.9821C370.047 18.8102 370.129 19.7829 370.129 20.9001ZM367.949 23.8532V20.5368C367.949 19.7712 367.902 19.0993 367.809 18.5212C367.723 17.9352 367.594 17.4352 367.422 17.0212C367.25 16.6071 367.031 16.2712 366.766 16.0134C366.508 15.7556 366.207 15.5681 365.863 15.4509C365.527 15.3259 365.148 15.2634 364.727 15.2634C364.211 15.2634 363.754 15.361 363.355 15.5563C362.957 15.7438 362.621 16.0446 362.348 16.4587C362.082 16.8727 361.879 17.4157 361.738 18.0876C361.598 18.7595 361.527 19.5759 361.527 20.5368V23.8532C361.527 24.6188 361.57 25.2946 361.656 25.8806C361.75 26.4665 361.887 26.9743 362.066 27.404C362.246 27.8259 362.465 28.1735 362.723 28.447C362.98 28.7204 363.277 28.9235 363.613 29.0563C363.957 29.1813 364.336 29.2438 364.75 29.2438C365.281 29.2438 365.746 29.1423 366.145 28.9391C366.543 28.736 366.875 28.4196 367.141 27.9899C367.414 27.5524 367.617 26.9938 367.75 26.3141C367.883 25.6266 367.949 24.8063 367.949 23.8532Z" fill="white"/>
<path d="M24.1289 21.1094V23.7109C24.1289 25.1094 24.0039 26.2891 23.7539 27.25C23.5039 28.2109 23.1445 28.9844 22.6758 29.5703C22.207 30.1562 21.6406 30.582 20.9766 30.8477C20.3203 31.1055 19.5781 31.2344 18.75 31.2344C18.0938 31.2344 17.4883 31.1523 16.9336 30.9883C16.3789 30.8242 15.8789 30.5625 15.4336 30.2031C14.9961 29.8359 14.6211 29.3594 14.3086 28.7734C13.9961 28.1875 13.7578 27.4766 13.5938 26.6406C13.4297 25.8047 13.3477 24.8281 13.3477 23.7109V21.1094C13.3477 19.7109 13.4727 18.5391 13.7227 17.5938C13.9805 16.6484 14.3438 15.8906 14.8125 15.3203C15.2812 14.7422 15.8438 14.3281 16.5 14.0781C17.1641 13.8281 17.9062 13.7031 18.7266 13.7031C19.3906 13.7031 20 13.7852 20.5547 13.9492C21.1172 14.1055 21.6172 14.3594 22.0547 14.7109C22.4922 15.0547 22.8633 15.5156 23.168 16.0938C23.4805 16.6641 23.7188 17.3633 23.8828 18.1914C24.0469 19.0195 24.1289 19.9922 24.1289 21.1094ZM21.9492 24.0625V20.7461C21.9492 19.9805 21.9023 19.3086 21.8086 18.7305C21.7227 18.1445 21.5938 17.6445 21.4219 17.2305C21.25 16.8164 21.0312 16.4805 20.7656 16.2227C20.5078 15.9648 20.207 15.7773 19.8633 15.6602C19.5273 15.5352 19.1484 15.4727 18.7266 15.4727C18.2109 15.4727 17.7539 15.5703 17.3555 15.7656C16.957 15.9531 16.6211 16.2539 16.3477 16.668C16.082 17.082 15.8789 17.625 15.7383 18.2969C15.5977 18.9688 15.5273 19.7852 15.5273 20.7461V24.0625C15.5273 24.8281 15.5703 25.5039 15.6562 26.0898C15.75 26.6758 15.8867 27.1836 16.0664 27.6133C16.2461 28.0352 16.4648 28.3828 16.7227 28.6562C16.9805 28.9297 17.2773 29.1328 17.6133 29.2656C17.957 29.3906 18.3359 29.4531 18.75 29.4531C19.2812 29.4531 19.7461 29.3516 20.1445 29.1484C20.543 28.9453 20.875 28.6289 21.1406 28.1992C21.4141 27.7617 21.6172 27.2031 21.75 26.5234C21.8828 25.8359 21.9492 25.0156 21.9492 24.0625Z" fill="white"/>
<rect x="0.5" y="0.5" width="389" height="41" stroke="#D1D5DB"/>
<line x1="181.5" y1="42" x2="181.5" y2="-4.2089e-10" stroke="#D1D5DB"/>
<line x1="233.5" y1="42" x2="233.5" stroke="#D1D5DB"/>
<line x1="285.5" y1="42" x2="285.5" stroke="#D1D5DB"/>
<line x1="342.5" y1="42" x2="342.5" stroke="#D1D5DB"/>
<line x1="86.5" y1="42" x2="86.5" stroke="#D1D5DB"/>
<line x1="132.5" y1="42" x2="132.5" stroke="#D1D5DB"/>
<path d="M42 42L42 0" stroke="#D1D5DB"/>
<path d="M67.1289 20.9001V23.5016C67.1289 24.9001 67.0039 26.0798 66.7539 27.0407C66.5039 28.0016 66.1445 28.7751 65.6758 29.361C65.207 29.947 64.6406 30.3727 63.9766 30.6384C63.3203 30.8962 62.5781 31.0251 61.75 31.0251C61.0938 31.0251 60.4883 30.9431 59.9336 30.779C59.3789 30.6149 58.8789 30.3532 58.4336 29.9938C57.9961 29.6266 57.6211 29.1501 57.3086 28.5641C56.9961 27.9782 56.7578 27.2673 56.5938 26.4313C56.4297 25.5954 56.3477 24.6188 56.3477 23.5016V20.9001C56.3477 19.5016 56.4727 18.3298 56.7227 17.3845C56.9805 16.4391 57.3438 15.6813 57.8125 15.111C58.2812 14.5329 58.8438 14.1188 59.5 13.8688C60.1641 13.6188 60.9062 13.4938 61.7266 13.4938C62.3906 13.4938 63 13.5759 63.5547 13.7399C64.1172 13.8962 64.6172 14.1501 65.0547 14.5016C65.4922 14.8454 65.8633 15.3063 66.168 15.8845C66.4805 16.4548 66.7188 17.154 66.8828 17.9821C67.0469 18.8102 67.1289 19.7829 67.1289 20.9001ZM64.9492 23.8532V20.5368C64.9492 19.7712 64.9023 19.0993 64.8086 18.5212C64.7227 17.9352 64.5938 17.4352 64.4219 17.0212C64.25 16.6071 64.0312 16.2712 63.7656 16.0134C63.5078 15.7556 63.207 15.5681 62.8633 15.4509C62.5273 15.3259 62.1484 15.2634 61.7266 15.2634C61.2109 15.2634 60.7539 15.361 60.3555 15.5563C59.957 15.7438 59.6211 16.0446 59.3477 16.4587C59.082 16.8727 58.8789 17.4157 58.7383 18.0876C58.5977 18.7595 58.5273 19.5759 58.5273 20.5368V23.8532C58.5273 24.6188 58.5703 25.2946 58.6562 25.8806C58.75 26.4665 58.8867 26.9743 59.0664 27.404C59.2461 27.8259 59.4648 28.1735 59.7227 28.447C59.9805 28.7204 60.2773 28.9235 60.6133 29.0563C60.957 29.1813 61.3359 29.2438 61.75 29.2438C62.2812 29.2438 62.7461 29.1423 63.1445 28.9391C63.543 28.736 63.875 28.4196 64.1406 27.9899C64.4141 27.5524 64.6172 26.9938 64.75 26.3141C64.8828 25.6266 64.9492 24.8063 64.9492 23.8532Z" fill="white"/>
<path d="M111.129 20.9001V23.5016C111.129 24.9001 111.004 26.0798 110.754 27.0407C110.504 28.0016 110.145 28.7751 109.676 29.361C109.207 29.947 108.641 30.3727 107.977 30.6384C107.32 30.8962 106.578 31.0251 105.75 31.0251C105.094 31.0251 104.488 30.9431 103.934 30.779C103.379 30.6149 102.879 30.3532 102.434 29.9938C101.996 29.6266 101.621 29.1501 101.309 28.5641C100.996 27.9782 100.758 27.2673 100.594 26.4313C100.43 25.5954 100.348 24.6188 100.348 23.5016V20.9001C100.348 19.5016 100.473 18.3298 100.723 17.3845C100.98 16.4391 101.344 15.6813 101.812 15.111C102.281 14.5329 102.844 14.1188 103.5 13.8688C104.164 13.6188 104.906 13.4938 105.727 13.4938C106.391 13.4938 107 13.5759 107.555 13.7399C108.117 13.8962 108.617 14.1501 109.055 14.5016C109.492 14.8454 109.863 15.3063 110.168 15.8845C110.48 16.4548 110.719 17.154 110.883 17.9821C111.047 18.8102 111.129 19.7829 111.129 20.9001ZM108.949 23.8532V20.5368C108.949 19.7712 108.902 19.0993 108.809 18.5212C108.723 17.9352 108.594 17.4352 108.422 17.0212C108.25 16.6071 108.031 16.2712 107.766 16.0134C107.508 15.7556 107.207 15.5681 106.863 15.4509C106.527 15.3259 106.148 15.2634 105.727 15.2634C105.211 15.2634 104.754 15.361 104.355 15.5563C103.957 15.7438 103.621 16.0446 103.348 16.4587C103.082 16.8727 102.879 17.4157 102.738 18.0876C102.598 18.7595 102.527 19.5759 102.527 20.5368V23.8532C102.527 24.6188 102.57 25.2946 102.656 25.8806C102.75 26.4665 102.887 26.9743 103.066 27.404C103.246 27.8259 103.465 28.1735 103.723 28.447C103.98 28.7204 104.277 28.9235 104.613 29.0563C104.957 29.1813 105.336 29.2438 105.75 29.2438C106.281 29.2438 106.746 29.1423 107.145 28.9391C107.543 28.736 107.875 28.4196 108.141 27.9899C108.414 27.5524 108.617 26.9938 108.75 26.3141C108.883 25.6266 108.949 24.8063 108.949 23.8532Z" fill="white"/>
<path d="M161.129 20.9001V23.5016C161.129 24.9001 161.004 26.0798 160.754 27.0407C160.504 28.0016 160.145 28.7751 159.676 29.361C159.207 29.947 158.641 30.3727 157.977 30.6384C157.32 30.8962 156.578 31.0251 155.75 31.0251C155.094 31.0251 154.488 30.9431 153.934 30.779C153.379 30.6149 152.879 30.3532 152.434 29.9938C151.996 29.6266 151.621 29.1501 151.309 28.5641C150.996 27.9782 150.758 27.2673 150.594 26.4313C150.43 25.5954 150.348 24.6188 150.348 23.5016V20.9001C150.348 19.5016 150.473 18.3298 150.723 17.3845C150.98 16.4391 151.344 15.6813 151.812 15.111C152.281 14.5329 152.844 14.1188 153.5 13.8688C154.164 13.6188 154.906 13.4938 155.727 13.4938C156.391 13.4938 157 13.5759 157.555 13.7399C158.117 13.8962 158.617 14.1501 159.055 14.5016C159.492 14.8454 159.863 15.3063 160.168 15.8845C160.48 16.4548 160.719 17.154 160.883 17.9821C161.047 18.8102 161.129 19.7829 161.129 20.9001ZM158.949 23.8532V20.5368C158.949 19.7712 158.902 19.0993 158.809 18.5212C158.723 17.9352 158.594 17.4352 158.422 17.0212C158.25 16.6071 158.031 16.2712 157.766 16.0134C157.508 15.7556 157.207 15.5681 156.863 15.4509C156.527 15.3259 156.148 15.2634 155.727 15.2634C155.211 15.2634 154.754 15.361 154.355 15.5563C153.957 15.7438 153.621 16.0446 153.348 16.4587C153.082 16.8727 152.879 17.4157 152.738 18.0876C152.598 18.7595 152.527 19.5759 152.527 20.5368V23.8532C152.527 24.6188 152.57 25.2946 152.656 25.8806C152.75 26.4665 152.887 26.9743 153.066 27.404C153.246 27.8259 153.465 28.1735 153.723 28.447C153.98 28.7204 154.277 28.9235 154.613 29.0563C154.957 29.1813 155.336 29.2438 155.75 29.2438C156.281 29.2438 156.746 29.1423 157.145 28.9391C157.543 28.736 157.875 28.4196 158.141 27.9899C158.414 27.5524 158.617 26.9938 158.75 26.3141C158.883 25.6266 158.949 24.8063 158.949 23.8532Z" fill="white"/>
<path d="M211.129 20.9001V23.5016C211.129 24.9001 211.004 26.0798 210.754 27.0407C210.504 28.0016 210.145 28.7751 209.676 29.361C209.207 29.947 208.641 30.3727 207.977 30.6384C207.32 30.8962 206.578 31.0251 205.75 31.0251C205.094 31.0251 204.488 30.9431 203.934 30.779C203.379 30.6149 202.879 30.3532 202.434 29.9938C201.996 29.6266 201.621 29.1501 201.309 28.5641C200.996 27.9782 200.758 27.2673 200.594 26.4313C200.43 25.5954 200.348 24.6188 200.348 23.5016V20.9001C200.348 19.5016 200.473 18.3298 200.723 17.3845C200.98 16.4391 201.344 15.6813 201.812 15.111C202.281 14.5329 202.844 14.1188 203.5 13.8688C204.164 13.6188 204.906 13.4938 205.727 13.4938C206.391 13.4938 207 13.5759 207.555 13.7399C208.117 13.8962 208.617 14.1501 209.055 14.5016C209.492 14.8454 209.863 15.3063 210.168 15.8845C210.48 16.4548 210.719 17.154 210.883 17.9821C211.047 18.8102 211.129 19.7829 211.129 20.9001ZM208.949 23.8532V20.5368C208.949 19.7712 208.902 19.0993 208.809 18.5212C208.723 17.9352 208.594 17.4352 208.422 17.0212C208.25 16.6071 208.031 16.2712 207.766 16.0134C207.508 15.7556 207.207 15.5681 206.863 15.4509C206.527 15.3259 206.148 15.2634 205.727 15.2634C205.211 15.2634 204.754 15.361 204.355 15.5563C203.957 15.7438 203.621 16.0446 203.348 16.4587C203.082 16.8727 202.879 17.4157 202.738 18.0876C202.598 18.7595 202.527 19.5759 202.527 20.5368V23.8532C202.527 24.6188 202.57 25.2946 202.656 25.8806C202.75 26.4665 202.887 26.9743 203.066 27.404C203.246 27.8259 203.465 28.1735 203.723 28.447C203.98 28.7204 204.277 28.9235 204.613 29.0563C204.957 29.1813 205.336 29.2438 205.75 29.2438C206.281 29.2438 206.746 29.1423 207.145 28.9391C207.543 28.736 207.875 28.4196 208.141 27.9899C208.414 27.5524 208.617 26.9938 208.75 26.3141C208.883 25.6266 208.949 24.8063 208.949 23.8532Z" fill="white"/>
<path d="M257.543 13.6345V30.7907H255.375V16.3415L251.004 17.9352V15.9782L257.203 13.6345H257.543Z" fill="white"/>
<path d="M314.543 13.6345V30.7907H312.375V16.3415L308.004 17.9352V15.9782L314.203 13.6345H314.543Z" fill="white"/>
<path d="M370.129 20.9001V23.5016C370.129 24.9001 370.004 26.0798 369.754 27.0407C369.504 28.0016 369.145 28.7751 368.676 29.361C368.207 29.947 367.641 30.3727 366.977 30.6384C366.32 30.8962 365.578 31.0251 364.75 31.0251C364.094 31.0251 363.488 30.9431 362.934 30.779C362.379 30.6149 361.879 30.3532 361.434 29.9938C360.996 29.6266 360.621 29.1501 360.309 28.5641C359.996 27.9782 359.758 27.2673 359.594 26.4313C359.43 25.5954 359.348 24.6188 359.348 23.5016V20.9001C359.348 19.5016 359.473 18.3298 359.723 17.3845C359.98 16.4391 360.344 15.6813 360.812 15.111C361.281 14.5329 361.844 14.1188 362.5 13.8688C363.164 13.6188 363.906 13.4938 364.727 13.4938C365.391 13.4938 366 13.5759 366.555 13.7399C367.117 13.8962 367.617 14.1501 368.055 14.5016C368.492 14.8454 368.863 15.3063 369.168 15.8845C369.48 16.4548 369.719 17.154 369.883 17.9821C370.047 18.8102 370.129 19.7829 370.129 20.9001ZM367.949 23.8532V20.5368C367.949 19.7712 367.902 19.0993 367.809 18.5212C367.723 17.9352 367.594 17.4352 367.422 17.0212C367.25 16.6071 367.031 16.2712 366.766 16.0134C366.508 15.7556 366.207 15.5681 365.863 15.4509C365.527 15.3259 365.148 15.2634 364.727 15.2634C364.211 15.2634 363.754 15.361 363.355 15.5563C362.957 15.7438 362.621 16.0446 362.348 16.4587C362.082 16.8727 361.879 17.4157 361.738 18.0876C361.598 18.7595 361.527 19.5759 361.527 20.5368V23.8532C361.527 24.6188 361.57 25.2946 361.656 25.8806C361.75 26.4665 361.887 26.9743 362.066 27.404C362.246 27.8259 362.465 28.1735 362.723 28.447C362.98 28.7204 363.277 28.9235 363.613 29.0563C363.957 29.1813 364.336 29.2438 364.75 29.2438C365.281 29.2438 365.746 29.1423 366.145 28.9391C366.543 28.736 366.875 28.4196 367.141 27.9899C367.414 27.5524 367.617 26.9938 367.75 26.3141C367.883 25.6266 367.949 24.8063 367.949 23.8532Z" fill="white"/>
<path d="M24.1289 21.1094V23.7109C24.1289 25.1094 24.0039 26.2891 23.7539 27.25C23.5039 28.2109 23.1445 28.9844 22.6758 29.5703C22.207 30.1562 21.6406 30.582 20.9766 30.8477C20.3203 31.1055 19.5781 31.2344 18.75 31.2344C18.0938 31.2344 17.4883 31.1523 16.9336 30.9883C16.3789 30.8242 15.8789 30.5625 15.4336 30.2031C14.9961 29.8359 14.6211 29.3594 14.3086 28.7734C13.9961 28.1875 13.7578 27.4766 13.5938 26.6406C13.4297 25.8047 13.3477 24.8281 13.3477 23.7109V21.1094C13.3477 19.7109 13.4727 18.5391 13.7227 17.5938C13.9805 16.6484 14.3438 15.8906 14.8125 15.3203C15.2812 14.7422 15.8438 14.3281 16.5 14.0781C17.1641 13.8281 17.9062 13.7031 18.7266 13.7031C19.3906 13.7031 20 13.7852 20.5547 13.9492C21.1172 14.1055 21.6172 14.3594 22.0547 14.7109C22.4922 15.0547 22.8633 15.5156 23.168 16.0938C23.4805 16.6641 23.7188 17.3633 23.8828 18.1914C24.0469 19.0195 24.1289 19.9922 24.1289 21.1094ZM21.9492 24.0625V20.7461C21.9492 19.9805 21.9023 19.3086 21.8086 18.7305C21.7227 18.1445 21.5938 17.6445 21.4219 17.2305C21.25 16.8164 21.0312 16.4805 20.7656 16.2227C20.5078 15.9648 20.207 15.7773 19.8633 15.6602C19.5273 15.5352 19.1484 15.4727 18.7266 15.4727C18.2109 15.4727 17.7539 15.5703 17.3555 15.7656C16.957 15.9531 16.6211 16.2539 16.3477 16.668C16.082 17.082 15.8789 17.625 15.7383 18.2969C15.5977 18.9688 15.5273 19.7852 15.5273 20.7461V24.0625C15.5273 24.8281 15.5703 25.5039 15.6562 26.0898C15.75 26.6758 15.8867 27.1836 16.0664 27.6133C16.2461 28.0352 16.4648 28.3828 16.7227 28.6562C16.9805 28.9297 17.2773 29.1328 17.6133 29.2656C17.957 29.3906 18.3359 29.4531 18.75 29.4531C19.2812 29.4531 19.7461 29.3516 20.1445 29.1484C20.543 28.9453 20.875 28.6289 21.1406 28.1992C21.4141 27.7617 21.6172 27.2031 21.75 26.5234C21.8828 25.8359 21.9492 25.0156 21.9492 24.0625Z" fill="white"/>
<path d="M24.5977 83.2188V85H13.4297V83.4414L19.0195 77.2188C19.707 76.4531 20.2383 75.8047 20.6133 75.2734C20.9961 74.7344 21.2617 74.2539 21.4102 73.832C21.5664 73.4023 21.6445 72.9648 21.6445 72.5195C21.6445 71.957 21.5273 71.4492 21.293 70.9961C21.0664 70.5352 20.7305 70.168 20.2852 69.8945C19.8398 69.6211 19.3008 69.4844 18.668 69.4844C17.9102 69.4844 17.2773 69.6328 16.7695 69.9297C16.2695 70.2188 15.8945 70.625 15.6445 71.1484C15.3945 71.6719 15.2695 72.2734 15.2695 72.9531H13.1016C13.1016 71.9922 13.3125 71.1133 13.7344 70.3164C14.1562 69.5195 14.7812 68.8867 15.6094 68.418C16.4375 67.9414 17.457 67.7031 18.668 67.7031C19.7461 67.7031 20.668 67.8945 21.4336 68.2773C22.1992 68.6523 22.7852 69.1836 23.1914 69.8711C23.6055 70.5508 23.8125 71.3477 23.8125 72.2617C23.8125 72.7617 23.7266 73.2695 23.5547 73.7852C23.3906 74.293 23.1602 74.8008 22.8633 75.3086C22.5742 75.8164 22.2344 76.3164 21.8438 76.8086C21.4609 77.3008 21.0508 77.7852 20.6133 78.2617L16.043 83.2188H24.5977Z" fill="white"/>
<path d="M67.5977 83.2188V85H56.4297V83.4414L62.0195 77.2188C62.707 76.4531 63.2383 75.8047 63.6133 75.2734C63.9961 74.7344 64.2617 74.2539 64.4102 73.832C64.5664 73.4023 64.6445 72.9648 64.6445 72.5195C64.6445 71.957 64.5273 71.4492 64.293 70.9961C64.0664 70.5352 63.7305 70.168 63.2852 69.8945C62.8398 69.6211 62.3008 69.4844 61.668 69.4844C60.9102 69.4844 60.2773 69.6328 59.7695 69.9297C59.2695 70.2188 58.8945 70.625 58.6445 71.1484C58.3945 71.6719 58.2695 72.2734 58.2695 72.9531H56.1016C56.1016 71.9922 56.3125 71.1133 56.7344 70.3164C57.1562 69.5195 57.7812 68.8867 58.6094 68.418C59.4375 67.9414 60.457 67.7031 61.668 67.7031C62.7461 67.7031 63.668 67.8945 64.4336 68.2773C65.1992 68.6523 65.7852 69.1836 66.1914 69.8711C66.6055 70.5508 66.8125 71.3477 66.8125 72.2617C66.8125 72.7617 66.7266 73.2695 66.5547 73.7852C66.3906 74.293 66.1602 74.8008 65.8633 75.3086C65.5742 75.8164 65.2344 76.3164 64.8438 76.8086C64.4609 77.3008 64.0508 77.7852 63.6133 78.2617L59.043 83.2188H67.5977Z" fill="white"/>
<path d="M111.598 83.2188V85H100.43V83.4414L106.02 77.2188C106.707 76.4531 107.238 75.8047 107.613 75.2734C107.996 74.7344 108.262 74.2539 108.41 73.832C108.566 73.4023 108.645 72.9648 108.645 72.5195C108.645 71.957 108.527 71.4492 108.293 70.9961C108.066 70.5352 107.73 70.168 107.285 69.8945C106.84 69.6211 106.301 69.4844 105.668 69.4844C104.91 69.4844 104.277 69.6328 103.77 69.9297C103.27 70.2188 102.895 70.625 102.645 71.1484C102.395 71.6719 102.27 72.2734 102.27 72.9531H100.102C100.102 71.9922 100.312 71.1133 100.734 70.3164C101.156 69.5195 101.781 68.8867 102.609 68.418C103.438 67.9414 104.457 67.7031 105.668 67.7031C106.746 67.7031 107.668 67.8945 108.434 68.2773C109.199 68.6523 109.785 69.1836 110.191 69.8711C110.605 70.5508 110.812 71.3477 110.812 72.2617C110.812 72.7617 110.727 73.2695 110.555 73.7852C110.391 74.293 110.16 74.8008 109.863 75.3086C109.574 75.8164 109.234 76.3164 108.844 76.8086C108.461 77.3008 108.051 77.7852 107.613 78.2617L103.043 83.2188H111.598Z" fill="white"/>
<path d="M161.598 83.2188V85H150.43V83.4414L156.02 77.2188C156.707 76.4531 157.238 75.8047 157.613 75.2734C157.996 74.7344 158.262 74.2539 158.41 73.832C158.566 73.4023 158.645 72.9648 158.645 72.5195C158.645 71.957 158.527 71.4492 158.293 70.9961C158.066 70.5352 157.73 70.168 157.285 69.8945C156.84 69.6211 156.301 69.4844 155.668 69.4844C154.91 69.4844 154.277 69.6328 153.77 69.9297C153.27 70.2188 152.895 70.625 152.645 71.1484C152.395 71.6719 152.27 72.2734 152.27 72.9531H150.102C150.102 71.9922 150.312 71.1133 150.734 70.3164C151.156 69.5195 151.781 68.8867 152.609 68.418C153.438 67.9414 154.457 67.7031 155.668 67.7031C156.746 67.7031 157.668 67.8945 158.434 68.2773C159.199 68.6523 159.785 69.1836 160.191 69.8711C160.605 70.5508 160.812 71.3477 160.812 72.2617C160.812 72.7617 160.727 73.2695 160.555 73.7852C160.391 74.293 160.16 74.8008 159.863 75.3086C159.574 75.8164 159.234 76.3164 158.844 76.8086C158.461 77.3008 158.051 77.7852 157.613 78.2617L153.043 83.2188H161.598Z" fill="white"/>
<path d="M211.598 83.2188V85H200.43V83.4414L206.02 77.2188C206.707 76.4531 207.238 75.8047 207.613 75.2734C207.996 74.7344 208.262 74.2539 208.41 73.832C208.566 73.4023 208.645 72.9648 208.645 72.5195C208.645 71.957 208.527 71.4492 208.293 70.9961C208.066 70.5352 207.73 70.168 207.285 69.8945C206.84 69.6211 206.301 69.4844 205.668 69.4844C204.91 69.4844 204.277 69.6328 203.77 69.9297C203.27 70.2188 202.895 70.625 202.645 71.1484C202.395 71.6719 202.27 72.2734 202.27 72.9531H200.102C200.102 71.9922 200.312 71.1133 200.734 70.3164C201.156 69.5195 201.781 68.8867 202.609 68.418C203.438 67.9414 204.457 67.7031 205.668 67.7031C206.746 67.7031 207.668 67.8945 208.434 68.2773C209.199 68.6523 209.785 69.1836 210.191 69.8711C210.605 70.5508 210.812 71.3477 210.812 72.2617C210.812 72.7617 210.727 73.2695 210.555 73.7852C210.391 74.293 210.16 74.8008 209.863 75.3086C209.574 75.8164 209.234 76.3164 208.844 76.8086C208.461 77.3008 208.051 77.7852 207.613 78.2617L203.043 83.2188H211.598Z" fill="white"/>
<path d="M261.598 83.2188V85H250.43V83.4414L256.02 77.2188C256.707 76.4531 257.238 75.8047 257.613 75.2734C257.996 74.7344 258.262 74.2539 258.41 73.832C258.566 73.4023 258.645 72.9648 258.645 72.5195C258.645 71.957 258.527 71.4492 258.293 70.9961C258.066 70.5352 257.73 70.168 257.285 69.8945C256.84 69.6211 256.301 69.4844 255.668 69.4844C254.91 69.4844 254.277 69.6328 253.77 69.9297C253.27 70.2188 252.895 70.625 252.645 71.1484C252.395 71.6719 252.27 72.2734 252.27 72.9531H250.102C250.102 71.9922 250.312 71.1133 250.734 70.3164C251.156 69.5195 251.781 68.8867 252.609 68.418C253.438 67.9414 254.457 67.7031 255.668 67.7031C256.746 67.7031 257.668 67.8945 258.434 68.2773C259.199 68.6523 259.785 69.1836 260.191 69.8711C260.605 70.5508 260.812 71.3477 260.812 72.2617C260.812 72.7617 260.727 73.2695 260.555 73.7852C260.391 74.293 260.16 74.8008 259.863 75.3086C259.574 75.8164 259.234 76.3164 258.844 76.8086C258.461 77.3008 258.051 77.7852 257.613 78.2617L253.043 83.2188H261.598Z" fill="white"/>
<path d="M318.598 83.2188V85H307.43V83.4414L313.02 77.2188C313.707 76.4531 314.238 75.8047 314.613 75.2734C314.996 74.7344 315.262 74.2539 315.41 73.832C315.566 73.4023 315.645 72.9648 315.645 72.5195C315.645 71.957 315.527 71.4492 315.293 70.9961C315.066 70.5352 314.73 70.168 314.285 69.8945C313.84 69.6211 313.301 69.4844 312.668 69.4844C311.91 69.4844 311.277 69.6328 310.77 69.9297C310.27 70.2188 309.895 70.625 309.645 71.1484C309.395 71.6719 309.27 72.2734 309.27 72.9531H307.102C307.102 71.9922 307.312 71.1133 307.734 70.3164C308.156 69.5195 308.781 68.8867 309.609 68.418C310.438 67.9414 311.457 67.7031 312.668 67.7031C313.746 67.7031 314.668 67.8945 315.434 68.2773C316.199 68.6523 316.785 69.1836 317.191 69.8711C317.605 70.5508 317.812 71.3477 317.812 72.2617C317.812 72.7617 317.727 73.2695 317.555 73.7852C317.391 74.293 317.16 74.8008 316.863 75.3086C316.574 75.8164 316.234 76.3164 315.844 76.8086C315.461 77.3008 315.051 77.7852 314.613 78.2617L310.043 83.2188H318.598Z" fill="white"/>
<path d="M370.598 83.2188V85H359.43V83.4414L365.02 77.2188C365.707 76.4531 366.238 75.8047 366.613 75.2734C366.996 74.7344 367.262 74.2539 367.41 73.832C367.566 73.4023 367.645 72.9648 367.645 72.5195C367.645 71.957 367.527 71.4492 367.293 70.9961C367.066 70.5352 366.73 70.168 366.285 69.8945C365.84 69.6211 365.301 69.4844 364.668 69.4844C363.91 69.4844 363.277 69.6328 362.77 69.9297C362.27 70.2188 361.895 70.625 361.645 71.1484C361.395 71.6719 361.27 72.2734 361.27 72.9531H359.102C359.102 71.9922 359.312 71.1133 359.734 70.3164C360.156 69.5195 360.781 68.8867 361.609 68.418C362.438 67.9414 363.457 67.7031 364.668 67.7031C365.746 67.7031 366.668 67.8945 367.434 68.2773C368.199 68.6523 368.785 69.1836 369.191 69.8711C369.605 70.5508 369.812 71.3477 369.812 72.2617C369.812 72.7617 369.727 73.2695 369.555 73.7852C369.391 74.293 369.16 74.8008 368.863 75.3086C368.574 75.8164 368.234 76.3164 367.844 76.8086C367.461 77.3008 367.051 77.7852 366.613 78.2617L362.043 83.2188H370.598Z" fill="white"/>
<path d="M379.086 62.4062V64.1406C379.086 65.0729 379.003 65.8594 378.836 66.5C378.669 67.1406 378.43 67.6562 378.117 68.0469C377.805 68.4375 377.427 68.7214 376.984 68.8984C376.547 69.0703 376.052 69.1562 375.5 69.1562C375.062 69.1562 374.659 69.1016 374.289 68.9922C373.919 68.8828 373.586 68.7083 373.289 68.4688C372.997 68.224 372.747 67.9062 372.539 67.5156C372.331 67.125 372.172 66.651 372.062 66.0938C371.953 65.5365 371.898 64.8854 371.898 64.1406V62.4062C371.898 61.474 371.982 60.6927 372.148 60.0625C372.32 59.4323 372.562 58.9271 372.875 58.5469C373.188 58.1615 373.562 57.8854 374 57.7188C374.443 57.5521 374.938 57.4688 375.484 57.4688C375.927 57.4688 376.333 57.5234 376.703 57.6328C377.078 57.737 377.411 57.9062 377.703 58.1406C377.995 58.3698 378.242 58.6771 378.445 59.0625C378.654 59.4427 378.812 59.9089 378.922 60.4609C379.031 61.013 379.086 61.6615 379.086 62.4062ZM377.633 64.375V62.1641C377.633 61.6536 377.602 61.2057 377.539 60.8203C377.482 60.4297 377.396 60.0964 377.281 59.8203C377.167 59.5443 377.021 59.3203 376.844 59.1484C376.672 58.9766 376.471 58.8516 376.242 58.7734C376.018 58.6901 375.766 58.6484 375.484 58.6484C375.141 58.6484 374.836 58.7135 374.57 58.8438C374.305 58.9688 374.081 59.1693 373.898 59.4453C373.721 59.7214 373.586 60.0833 373.492 60.5312C373.398 60.9792 373.352 61.5234 373.352 62.1641V64.375C373.352 64.8854 373.38 65.3359 373.438 65.7266C373.5 66.1172 373.591 66.4557 373.711 66.7422C373.831 67.0234 373.977 67.2552 374.148 67.4375C374.32 67.6198 374.518 67.7552 374.742 67.8438C374.971 67.9271 375.224 67.9688 375.5 67.9688C375.854 67.9688 376.164 67.901 376.43 67.7656C376.695 67.6302 376.917 67.4193 377.094 67.1328C377.276 66.8411 377.411 66.4688 377.5 66.0156C377.589 65.5573 377.633 65.0104 377.633 64.375Z" fill="white"/>
<path d="M324.695 57.5625V69H323.25V59.3672L320.336 60.4297V59.125L324.469 57.5625H324.695Z" fill="white"/>
<path d="M270.398 67.8125V69H262.953V67.9609L266.68 63.8125C267.138 63.3021 267.492 62.8698 267.742 62.5156C267.997 62.1562 268.174 61.8359 268.273 61.5547C268.378 61.2682 268.43 60.9766 268.43 60.6797C268.43 60.3047 268.352 59.9661 268.195 59.6641C268.044 59.3568 267.82 59.112 267.523 58.9297C267.227 58.7474 266.867 58.6562 266.445 58.6562C265.94 58.6562 265.518 58.7552 265.18 58.9531C264.846 59.1458 264.596 59.4167 264.43 59.7656C264.263 60.1146 264.18 60.5156 264.18 60.9688H262.734C262.734 60.3281 262.875 59.7422 263.156 59.2109C263.438 58.6797 263.854 58.2578 264.406 57.9453C264.958 57.6276 265.638 57.4688 266.445 57.4688C267.164 57.4688 267.779 57.5964 268.289 57.8516C268.799 58.1016 269.19 58.4557 269.461 58.9141C269.737 59.3672 269.875 59.8984 269.875 60.5078C269.875 60.8411 269.818 61.1797 269.703 61.5234C269.594 61.862 269.44 62.2005 269.242 62.5391C269.049 62.8776 268.823 63.2109 268.562 63.5391C268.307 63.8672 268.034 64.1901 267.742 64.5078L264.695 67.8125H270.398Z" fill="white"/>
<path d="M213.055 62.6016H214.086C214.591 62.6016 215.008 62.5182 215.336 62.3516C215.669 62.1797 215.917 61.9479 216.078 61.6562C216.245 61.3594 216.328 61.026 216.328 60.6562C216.328 60.2188 216.255 59.8516 216.109 59.5547C215.964 59.2578 215.745 59.0339 215.453 58.8828C215.161 58.7318 214.792 58.6562 214.344 58.6562C213.938 58.6562 213.578 58.737 213.266 58.8984C212.958 59.0547 212.716 59.2786 212.539 59.5703C212.367 59.862 212.281 60.2057 212.281 60.6016H210.836C210.836 60.0234 210.982 59.4974 211.273 59.0234C211.565 58.5495 211.974 58.1719 212.5 57.8906C213.031 57.6094 213.646 57.4688 214.344 57.4688C215.031 57.4688 215.633 57.5911 216.148 57.8359C216.664 58.0755 217.065 58.4349 217.352 58.9141C217.638 59.388 217.781 59.9792 217.781 60.6875C217.781 60.974 217.714 61.2812 217.578 61.6094C217.448 61.9323 217.242 62.2344 216.961 62.5156C216.685 62.7969 216.326 63.0286 215.883 63.2109C215.44 63.388 214.909 63.4766 214.289 63.4766H213.055V62.6016ZM213.055 63.7891V62.9219H214.289C215.013 62.9219 215.612 63.0078 216.086 63.1797C216.56 63.3516 216.932 63.5807 217.203 63.8672C217.479 64.1536 217.672 64.4688 217.781 64.8125C217.896 65.151 217.953 65.4896 217.953 65.8281C217.953 66.3594 217.862 66.8307 217.68 67.2422C217.503 67.6536 217.25 68.0026 216.922 68.2891C216.599 68.5755 216.219 68.7917 215.781 68.9375C215.344 69.0833 214.867 69.1562 214.352 69.1562C213.857 69.1562 213.391 69.0859 212.953 68.9453C212.521 68.8047 212.138 68.6016 211.805 68.3359C211.471 68.0651 211.211 67.7344 211.023 67.3438C210.836 66.9479 210.742 66.4974 210.742 65.9922H212.188C212.188 66.388 212.273 66.7344 212.445 67.0312C212.622 67.3281 212.872 67.5599 213.195 67.7266C213.523 67.888 213.909 67.9688 214.352 67.9688C214.794 67.9688 215.174 67.8932 215.492 67.7422C215.815 67.5859 216.062 67.3516 216.234 67.0391C216.411 66.7266 216.5 66.3333 216.5 65.8594C216.5 65.3854 216.401 64.9974 216.203 64.6953C216.005 64.388 215.724 64.1615 215.359 64.0156C215 63.8646 214.576 63.7891 214.086 63.7891H213.055Z" fill="white"/>
<path d="M170.633 65.1719V66.3594H162.414V65.5078L167.508 57.625H168.688L167.422 59.9062L164.055 65.1719H170.633ZM169.047 57.625V69H167.602V57.625H169.047Z" fill="white"/>
<path d="M114.773 63.5859L113.617 63.2891L114.188 57.625H120.023V58.9609H115.414L115.07 62.0547C115.279 61.9349 115.542 61.8229 115.859 61.7188C116.182 61.6146 116.552 61.5625 116.969 61.5625C117.495 61.5625 117.966 61.6536 118.383 61.8359C118.799 62.013 119.154 62.2682 119.445 62.6016C119.742 62.9349 119.969 63.3359 120.125 63.8047C120.281 64.2734 120.359 64.7969 120.359 65.375C120.359 65.9219 120.284 66.4245 120.133 66.8828C119.987 67.3411 119.766 67.7422 119.469 68.0859C119.172 68.4245 118.797 68.6875 118.344 68.875C117.896 69.0625 117.367 69.1562 116.758 69.1562C116.299 69.1562 115.865 69.0938 115.453 68.9688C115.047 68.8385 114.682 68.6432 114.359 68.3828C114.042 68.1172 113.781 67.7891 113.578 67.3984C113.38 67.0026 113.255 66.5391 113.203 66.0078H114.578C114.641 66.4349 114.766 66.7943 114.953 67.0859C115.141 67.3776 115.385 67.599 115.688 67.75C115.995 67.8958 116.352 67.9688 116.758 67.9688C117.102 67.9688 117.406 67.9089 117.672 67.7891C117.938 67.6693 118.161 67.4974 118.344 67.2734C118.526 67.0495 118.664 66.7786 118.758 66.4609C118.857 66.1432 118.906 65.7865 118.906 65.3906C118.906 65.0312 118.857 64.6979 118.758 64.3906C118.659 64.0833 118.51 63.8151 118.312 63.5859C118.12 63.3568 117.883 63.1797 117.602 63.0547C117.32 62.9245 116.997 62.8594 116.633 62.8594C116.148 62.8594 115.781 62.9245 115.531 63.0547C115.286 63.1849 115.034 63.362 114.773 63.5859Z" fill="white"/>
<path d="M74.4922 57.6094H74.6172V58.8359H74.4922C73.7266 58.8359 73.0859 58.9609 72.5703 59.2109C72.0547 59.4557 71.6458 59.7865 71.3438 60.2031C71.0417 60.6146 70.8229 61.0781 70.6875 61.5938C70.5573 62.1094 70.4922 62.6328 70.4922 63.1641V64.8359C70.4922 65.3411 70.5521 65.7891 70.6719 66.1797C70.7917 66.5651 70.9557 66.8906 71.1641 67.1562C71.3724 67.4219 71.6068 67.6224 71.8672 67.7578C72.1328 67.8932 72.4089 67.9609 72.6953 67.9609C73.0286 67.9609 73.3255 67.8984 73.5859 67.7734C73.8464 67.6432 74.0651 67.4635 74.2422 67.2344C74.4245 67 74.5625 66.724 74.6562 66.4062C74.75 66.0885 74.7969 65.7396 74.7969 65.3594C74.7969 65.0208 74.7552 64.6953 74.6719 64.3828C74.5885 64.0651 74.4609 63.7839 74.2891 63.5391C74.1172 63.2891 73.901 63.0938 73.6406 62.9531C73.3854 62.8073 73.0807 62.7344 72.7266 62.7344C72.3255 62.7344 71.9505 62.8333 71.6016 63.0312C71.2578 63.224 70.974 63.4792 70.75 63.7969C70.5312 64.1094 70.4062 64.4505 70.375 64.8203L69.6094 64.8125C69.6823 64.2292 69.8177 63.7318 70.0156 63.3203C70.2188 62.9036 70.4688 62.5651 70.7656 62.3047C71.0677 62.0391 71.4036 61.8464 71.7734 61.7266C72.1484 61.6016 72.5443 61.5391 72.9609 61.5391C73.5286 61.5391 74.0182 61.6458 74.4297 61.8594C74.8411 62.0729 75.1797 62.3594 75.4453 62.7188C75.7109 63.0729 75.9062 63.474 76.0312 63.9219C76.1615 64.3646 76.2266 64.8203 76.2266 65.2891C76.2266 65.8255 76.151 66.3281 76 66.7969C75.849 67.2656 75.6224 67.6771 75.3203 68.0312C75.0234 68.3854 74.6562 68.6615 74.2188 68.8594C73.7812 69.0573 73.2734 69.1562 72.6953 69.1562C72.0807 69.1562 71.5443 69.0312 71.0859 68.7812C70.6276 68.526 70.2474 68.1875 69.9453 67.7656C69.6432 67.3438 69.4167 66.875 69.2656 66.3594C69.1146 65.8438 69.0391 65.3203 69.0391 64.7891V64.1094C69.0391 63.3073 69.1198 62.5208 69.2812 61.75C69.4427 60.9792 69.7214 60.2812 70.1172 59.6562C70.5182 59.0312 71.0729 58.5339 71.7812 58.1641C72.4896 57.7943 73.3932 57.6094 74.4922 57.6094Z" fill="white"/>
<path d="M32.2969 57.625V58.4375L27.5859 69H26.0625L30.7656 58.8125H24.6094V57.625H32.2969Z" fill="white"/>
<path d="M412.555 19.5742V21.4609H402.781V19.5742H412.555ZM412.555 24.4375V26.3242H402.781V24.4375H412.555ZM429.863 13.9141H430.051V15.7539H429.863C428.715 15.7539 427.754 15.9414 426.98 16.3164C426.207 16.6836 425.594 17.1797 425.141 17.8047C424.688 18.4219 424.359 19.1172 424.156 19.8906C423.961 20.6641 423.863 21.4492 423.863 22.2461V24.7539C423.863 25.5117 423.953 26.1836 424.133 26.7695C424.312 27.3477 424.559 27.8359 424.871 28.2344C425.184 28.6328 425.535 28.9336 425.926 29.1367C426.324 29.3398 426.738 29.4414 427.168 29.4414C427.668 29.4414 428.113 29.3477 428.504 29.1602C428.895 28.9648 429.223 28.6953 429.488 28.3516C429.762 28 429.969 27.5859 430.109 27.1094C430.25 26.6328 430.32 26.1094 430.32 25.5391C430.32 25.0312 430.258 24.543 430.133 24.0742C430.008 23.5977 429.816 23.1758 429.559 22.8086C429.301 22.4336 428.977 22.1406 428.586 21.9297C428.203 21.7109 427.746 21.6016 427.215 21.6016C426.613 21.6016 426.051 21.75 425.527 22.0469C425.012 22.3359 424.586 22.7188 424.25 23.1953C423.922 23.6641 423.734 24.1758 423.688 24.7305L422.539 24.7188C422.648 23.8438 422.852 23.0977 423.148 22.4805C423.453 21.8555 423.828 21.3477 424.273 20.957C424.727 20.5586 425.23 20.2695 425.785 20.0898C426.348 19.9023 426.941 19.8086 427.566 19.8086C428.418 19.8086 429.152 19.9688 429.77 20.2891C430.387 20.6094 430.895 21.0391 431.293 21.5781C431.691 22.1094 431.984 22.7109 432.172 23.3828C432.367 24.0469 432.465 24.7305 432.465 25.4336C432.465 26.2383 432.352 26.9922 432.125 27.6953C431.898 28.3984 431.559 29.0156 431.105 29.5469C430.66 30.0781 430.109 30.4922 429.453 30.7891C428.797 31.0859 428.035 31.2344 427.168 31.2344C426.246 31.2344 425.441 31.0469 424.754 30.6719C424.066 30.2891 423.496 29.7812 423.043 29.1484C422.59 28.5156 422.25 27.8125 422.023 27.0391C421.797 26.2656 421.684 25.4805 421.684 24.6836V23.6641C421.684 22.4609 421.805 21.2812 422.047 20.125C422.289 18.9688 422.707 17.9219 423.301 16.9844C423.902 16.0469 424.734 15.3008 425.797 14.7461C426.859 14.1914 428.215 13.9141 429.863 13.9141Z" fill="white"/>
</svg>
