<svg width="524" height="254" viewBox="0 0 524 254" fill="none" xmlns="http://www.w3.org/2000/svg">
<rect x="38.0286" y="25.0437" width="389" height="40.7999" stroke="#D1D5DB"/>
<line x1="219.029" y1="66.3436" x2="219.029" y2="24.5437" stroke="#D1D5DB"/>
<line x1="271.029" y1="66.3436" x2="271.029" y2="24.5437" stroke="#D1D5DB"/>
<line x1="323.029" y1="66.3436" x2="323.029" y2="24.5437" stroke="#D1D5DB"/>
<line x1="380.029" y1="66.3436" x2="380.029" y2="24.5437" stroke="#D1D5DB"/>
<line x1="124.029" y1="66.3436" x2="124.029" y2="24.5437" stroke="#D1D5DB"/>
<line x1="170.029" y1="66.3436" x2="170.029" y2="24.5437" stroke="#D1D5DB"/>
<path d="M79.5286 66.3436V24.5437" stroke="#D1D5DB"/>
<path d="M104.658 45.4019V48.0035C104.658 49.4019 104.533 50.5816 104.283 51.5425C104.033 52.5035 103.673 53.2769 103.204 53.8629C102.736 54.4488 102.169 54.8746 101.505 55.1402C100.849 55.398 100.107 55.5269 99.2786 55.5269C98.6224 55.5269 98.0169 55.4449 97.4622 55.2808C96.9075 55.1168 96.4075 54.855 95.9622 54.4957C95.5247 54.1285 95.1497 53.6519 94.8372 53.066C94.5247 52.48 94.2864 51.7691 94.1224 50.9332C93.9583 50.0972 93.8763 49.1207 93.8763 48.0035V45.4019C93.8763 44.0035 94.0013 42.8316 94.2513 41.8863C94.5091 40.941 94.8724 40.1832 95.3411 39.6129C95.8099 39.0347 96.3724 38.6207 97.0286 38.3707C97.6927 38.1207 98.4349 37.9957 99.2552 37.9957C99.9193 37.9957 100.529 38.0777 101.083 38.2418C101.646 38.398 102.146 38.6519 102.583 39.0035C103.021 39.3472 103.392 39.8082 103.697 40.3863C104.009 40.9566 104.247 41.6558 104.411 42.4839C104.576 43.3121 104.658 44.2847 104.658 45.4019ZM102.478 48.355V45.0386C102.478 44.273 102.431 43.6011 102.337 43.023C102.251 42.4371 102.122 41.9371 101.951 41.523C101.779 41.1089 101.56 40.773 101.294 40.5152C101.036 40.2574 100.736 40.0699 100.392 39.9527C100.056 39.8277 99.6771 39.7652 99.2552 39.7652C98.7396 39.7652 98.2825 39.8629 97.8841 40.0582C97.4857 40.2457 97.1497 40.5464 96.8763 40.9605C96.6107 41.3746 96.4075 41.9175 96.2669 42.5894C96.1263 43.2613 96.056 44.0777 96.056 45.0386V48.355C96.056 49.1207 96.0989 49.7964 96.1849 50.3824C96.2786 50.9683 96.4153 51.4761 96.595 51.9058C96.7747 52.3277 96.9935 52.6754 97.2513 52.9488C97.5091 53.2222 97.806 53.4254 98.1419 53.5582C98.4857 53.6832 98.8646 53.7457 99.2786 53.7457C99.8099 53.7457 100.275 53.6441 100.673 53.441C101.072 53.2379 101.404 52.9214 101.669 52.4918C101.943 52.0543 102.146 51.4957 102.279 50.816C102.411 50.1285 102.478 49.3082 102.478 48.355Z" fill="white"/>
<path d="M148.658 45.4019V48.0035C148.658 49.4019 148.533 50.5816 148.283 51.5425C148.033 52.5035 147.673 53.2769 147.204 53.8629C146.736 54.4488 146.169 54.8746 145.505 55.1402C144.849 55.398 144.107 55.5269 143.279 55.5269C142.622 55.5269 142.017 55.4449 141.462 55.2808C140.908 55.1168 140.408 54.855 139.962 54.4957C139.525 54.1285 139.15 53.6519 138.837 53.066C138.525 52.48 138.286 51.7691 138.122 50.9332C137.958 50.0972 137.876 49.1207 137.876 48.0035V45.4019C137.876 44.0035 138.001 42.8316 138.251 41.8863C138.509 40.941 138.872 40.1832 139.341 39.6129C139.81 39.0347 140.372 38.6207 141.029 38.3707C141.693 38.1207 142.435 37.9957 143.255 37.9957C143.919 37.9957 144.529 38.0777 145.083 38.2418C145.646 38.398 146.146 38.6519 146.583 39.0035C147.021 39.3472 147.392 39.8082 147.697 40.3863C148.009 40.9566 148.247 41.6558 148.411 42.4839C148.576 43.3121 148.658 44.2847 148.658 45.4019ZM146.478 48.355V45.0386C146.478 44.273 146.431 43.6011 146.337 43.023C146.251 42.4371 146.122 41.9371 145.951 41.523C145.779 41.1089 145.56 40.773 145.294 40.5152C145.036 40.2574 144.736 40.0699 144.392 39.9527C144.056 39.8277 143.677 39.7652 143.255 39.7652C142.74 39.7652 142.283 39.8629 141.884 40.0582C141.486 40.2457 141.15 40.5464 140.876 40.9605C140.611 41.3746 140.408 41.9175 140.267 42.5894C140.126 43.2613 140.056 44.0777 140.056 45.0386V48.355C140.056 49.1207 140.099 49.7964 140.185 50.3824C140.279 50.9683 140.415 51.4761 140.595 51.9058C140.775 52.3277 140.993 52.6754 141.251 52.9488C141.509 53.2222 141.806 53.4254 142.142 53.5582C142.486 53.6832 142.865 53.7457 143.279 53.7457C143.81 53.7457 144.275 53.6441 144.673 53.441C145.072 53.2379 145.404 52.9214 145.669 52.4918C145.943 52.0543 146.146 51.4957 146.279 50.816C146.411 50.1285 146.478 49.3082 146.478 48.355Z" fill="white"/>
<path d="M198.658 45.4019V48.0035C198.658 49.4019 198.533 50.5816 198.283 51.5425C198.033 52.5035 197.673 53.2769 197.204 53.8629C196.736 54.4488 196.169 54.8746 195.505 55.1402C194.849 55.398 194.107 55.5269 193.279 55.5269C192.622 55.5269 192.017 55.4449 191.462 55.2808C190.908 55.1168 190.408 54.855 189.962 54.4957C189.525 54.1285 189.15 53.6519 188.837 53.066C188.525 52.48 188.286 51.7691 188.122 50.9332C187.958 50.0972 187.876 49.1207 187.876 48.0035V45.4019C187.876 44.0035 188.001 42.8316 188.251 41.8863C188.509 40.941 188.872 40.1832 189.341 39.6129C189.81 39.0347 190.372 38.6207 191.029 38.3707C191.693 38.1207 192.435 37.9957 193.255 37.9957C193.919 37.9957 194.529 38.0777 195.083 38.2418C195.646 38.398 196.146 38.6519 196.583 39.0035C197.021 39.3472 197.392 39.8082 197.697 40.3863C198.009 40.9566 198.247 41.6558 198.411 42.4839C198.576 43.3121 198.658 44.2847 198.658 45.4019ZM196.478 48.355V45.0386C196.478 44.273 196.431 43.6011 196.337 43.023C196.251 42.4371 196.122 41.9371 195.951 41.523C195.779 41.1089 195.56 40.773 195.294 40.5152C195.036 40.2574 194.736 40.0699 194.392 39.9527C194.056 39.8277 193.677 39.7652 193.255 39.7652C192.74 39.7652 192.283 39.8629 191.884 40.0582C191.486 40.2457 191.15 40.5464 190.876 40.9605C190.611 41.3746 190.408 41.9175 190.267 42.5894C190.126 43.2613 190.056 44.0777 190.056 45.0386V48.355C190.056 49.1207 190.099 49.7964 190.185 50.3824C190.279 50.9683 190.415 51.4761 190.595 51.9058C190.775 52.3277 190.993 52.6754 191.251 52.9488C191.509 53.2222 191.806 53.4254 192.142 53.5582C192.486 53.6832 192.865 53.7457 193.279 53.7457C193.81 53.7457 194.275 53.6441 194.673 53.441C195.072 53.2379 195.404 52.9214 195.669 52.4918C195.943 52.0543 196.146 51.4957 196.279 50.816C196.411 50.1285 196.478 49.3082 196.478 48.355Z" fill="white"/>
<path d="M248.658 45.4019V48.0035C248.658 49.4019 248.533 50.5816 248.283 51.5425C248.033 52.5035 247.673 53.2769 247.204 53.8629C246.736 54.4488 246.169 54.8746 245.505 55.1402C244.849 55.398 244.107 55.5269 243.279 55.5269C242.622 55.5269 242.017 55.4449 241.462 55.2808C240.908 55.1168 240.408 54.855 239.962 54.4957C239.525 54.1285 239.15 53.6519 238.837 53.066C238.525 52.48 238.286 51.7691 238.122 50.9332C237.958 50.0972 237.876 49.1207 237.876 48.0035V45.4019C237.876 44.0035 238.001 42.8316 238.251 41.8863C238.509 40.941 238.872 40.1832 239.341 39.6129C239.81 39.0347 240.372 38.6207 241.029 38.3707C241.693 38.1207 242.435 37.9957 243.255 37.9957C243.919 37.9957 244.529 38.0777 245.083 38.2418C245.646 38.398 246.146 38.6519 246.583 39.0035C247.021 39.3472 247.392 39.8082 247.697 40.3863C248.009 40.9566 248.247 41.6558 248.411 42.4839C248.576 43.3121 248.658 44.2847 248.658 45.4019ZM246.478 48.355V45.0386C246.478 44.273 246.431 43.6011 246.337 43.023C246.251 42.4371 246.122 41.9371 245.951 41.523C245.779 41.1089 245.56 40.773 245.294 40.5152C245.036 40.2574 244.736 40.0699 244.392 39.9527C244.056 39.8277 243.677 39.7652 243.255 39.7652C242.74 39.7652 242.283 39.8629 241.884 40.0582C241.486 40.2457 241.15 40.5464 240.876 40.9605C240.611 41.3746 240.408 41.9175 240.267 42.5894C240.126 43.2613 240.056 44.0777 240.056 45.0386V48.355C240.056 49.1207 240.099 49.7964 240.185 50.3824C240.279 50.9683 240.415 51.4761 240.595 51.9058C240.775 52.3277 240.993 52.6754 241.251 52.9488C241.509 53.2222 241.806 53.4254 242.142 53.5582C242.486 53.6832 242.865 53.7457 243.279 53.7457C243.81 53.7457 244.275 53.6441 244.673 53.441C245.072 53.2379 245.404 52.9214 245.669 52.4918C245.943 52.0543 246.146 51.4957 246.279 50.816C246.411 50.1285 246.478 49.3082 246.478 48.355Z" fill="white"/>
<path d="M295.072 38.1363V55.2925H292.904V40.8433L288.533 42.4371V40.48L294.732 38.1363H295.072Z" fill="white"/>
<path d="M352.072 38.1363V55.2925H349.904V40.8433L345.533 42.4371V40.48L351.732 38.1363H352.072Z" fill="white"/>
<path d="M407.658 45.4019V48.0035C407.658 49.4019 407.533 50.5816 407.283 51.5425C407.033 52.5035 406.673 53.2769 406.204 53.8629C405.736 54.4488 405.169 54.8746 404.505 55.1402C403.849 55.398 403.107 55.5269 402.279 55.5269C401.622 55.5269 401.017 55.4449 400.462 55.2808C399.908 55.1168 399.408 54.855 398.962 54.4957C398.525 54.1285 398.15 53.6519 397.837 53.066C397.525 52.48 397.286 51.7691 397.122 50.9332C396.958 50.0972 396.876 49.1207 396.876 48.0035V45.4019C396.876 44.0035 397.001 42.8316 397.251 41.8863C397.509 40.941 397.872 40.1832 398.341 39.6129C398.81 39.0347 399.372 38.6207 400.029 38.3707C400.693 38.1207 401.435 37.9957 402.255 37.9957C402.919 37.9957 403.529 38.0777 404.083 38.2418C404.646 38.398 405.146 38.6519 405.583 39.0035C406.021 39.3472 406.392 39.8082 406.697 40.3863C407.009 40.9566 407.247 41.6558 407.411 42.4839C407.576 43.3121 407.658 44.2847 407.658 45.4019ZM405.478 48.355V45.0386C405.478 44.273 405.431 43.6011 405.337 43.023C405.251 42.4371 405.122 41.9371 404.951 41.523C404.779 41.1089 404.56 40.773 404.294 40.5152C404.036 40.2574 403.736 40.0699 403.392 39.9527C403.056 39.8277 402.677 39.7652 402.255 39.7652C401.74 39.7652 401.283 39.8629 400.884 40.0582C400.486 40.2457 400.15 40.5464 399.876 40.9605C399.611 41.3746 399.408 41.9175 399.267 42.5894C399.126 43.2613 399.056 44.0777 399.056 45.0386V48.355C399.056 49.1207 399.099 49.7964 399.185 50.3824C399.279 50.9683 399.415 51.4761 399.595 51.9058C399.775 52.3277 399.993 52.6754 400.251 52.9488C400.509 53.2222 400.806 53.4254 401.142 53.5582C401.486 53.6832 401.865 53.7457 402.279 53.7457C402.81 53.7457 403.275 53.6441 403.673 53.441C404.072 53.2379 404.404 52.9214 404.669 52.4918C404.943 52.0543 405.146 51.4957 405.279 50.816C405.411 50.1285 405.478 49.3082 405.478 48.355Z" fill="white"/>
<path d="M61.6575 45.6102V48.2118C61.6575 49.6102 61.5325 50.7899 61.2825 51.7508C61.0325 52.7118 60.6732 53.4852 60.2044 54.0711C59.7357 54.6571 59.1693 55.0829 58.5052 55.3485C57.8489 55.6063 57.1068 55.7352 56.2786 55.7352C55.6224 55.7352 55.0169 55.6532 54.4622 55.4891C53.9075 55.325 53.4075 55.0633 52.9622 54.7039C52.5247 54.3368 52.1497 53.8602 51.8372 53.2743C51.5247 52.6883 51.2864 51.9774 51.1224 51.1414C50.9583 50.3055 50.8763 49.3289 50.8763 48.2118V45.6102C50.8763 44.2118 51.0013 43.0399 51.2513 42.0946C51.5091 41.1493 51.8724 40.3914 52.3411 39.8211C52.8099 39.243 53.3724 38.8289 54.0286 38.5789C54.6927 38.3289 55.4349 38.2039 56.2552 38.2039C56.9193 38.2039 57.5286 38.286 58.0833 38.45C58.6458 38.6063 59.1458 38.8602 59.5833 39.2118C60.0208 39.5555 60.3919 40.0164 60.6966 40.5946C61.0091 41.1649 61.2474 41.8641 61.4114 42.6922C61.5755 43.5204 61.6575 44.493 61.6575 45.6102ZM59.4778 48.5633V45.2469C59.4778 44.4813 59.431 43.8094 59.3372 43.2313C59.2513 42.6454 59.1224 42.1454 58.9505 41.7313C58.7786 41.3172 58.5599 40.9813 58.2943 40.7235C58.0364 40.4657 57.7357 40.2782 57.3919 40.161C57.056 40.036 56.6771 39.9735 56.2552 39.9735C55.7396 39.9735 55.2825 40.0711 54.8841 40.2664C54.4857 40.4539 54.1497 40.7547 53.8763 41.1688C53.6107 41.5829 53.4075 42.1258 53.2669 42.7977C53.1263 43.4696 53.056 44.286 53.056 45.2469V48.5633C53.056 49.3289 53.0989 50.0047 53.1849 50.5907C53.2786 51.1766 53.4153 51.6844 53.595 52.1141C53.7747 52.536 53.9935 52.8836 54.2513 53.1571C54.5091 53.4305 54.806 53.6336 55.1419 53.7664C55.4857 53.8914 55.8646 53.9539 56.2786 53.9539C56.8099 53.9539 57.2747 53.8524 57.6732 53.6493C58.0716 53.4461 58.4036 53.1297 58.6693 52.7C58.9427 52.2625 59.1458 51.7039 59.2786 51.0243C59.4114 50.3368 59.4778 49.5164 59.4778 48.5633Z" fill="white"/>
<rect x="38.0286" y="25.0437" width="389" height="40.7999" stroke="#D1D5DB"/>
<line x1="219.029" y1="66.3436" x2="219.029" y2="24.5437" stroke="#D1D5DB"/>
<line x1="271.029" y1="66.3436" x2="271.029" y2="24.5437" stroke="#D1D5DB"/>
<line x1="323.029" y1="66.3436" x2="323.029" y2="24.5437" stroke="#D1D5DB"/>
<line x1="380.029" y1="66.3436" x2="380.029" y2="24.5437" stroke="#D1D5DB"/>
<line x1="124.029" y1="66.3436" x2="124.029" y2="24.5437" stroke="#D1D5DB"/>
<line x1="170.029" y1="66.3436" x2="170.029" y2="24.5437" stroke="#D1D5DB"/>
<path d="M79.5286 66.3436V24.5437" stroke="#D1D5DB"/>
<path d="M104.658 45.4019V48.0035C104.658 49.4019 104.533 50.5816 104.283 51.5425C104.033 52.5035 103.673 53.2769 103.204 53.8629C102.736 54.4488 102.169 54.8746 101.505 55.1402C100.849 55.398 100.107 55.5269 99.2786 55.5269C98.6224 55.5269 98.0169 55.4449 97.4622 55.2808C96.9075 55.1168 96.4075 54.855 95.9622 54.4957C95.5247 54.1285 95.1497 53.6519 94.8372 53.066C94.5247 52.48 94.2864 51.7691 94.1224 50.9332C93.9583 50.0972 93.8763 49.1207 93.8763 48.0035V45.4019C93.8763 44.0035 94.0013 42.8316 94.2513 41.8863C94.5091 40.941 94.8724 40.1832 95.3411 39.6129C95.8099 39.0347 96.3724 38.6207 97.0286 38.3707C97.6927 38.1207 98.4349 37.9957 99.2552 37.9957C99.9193 37.9957 100.529 38.0777 101.083 38.2418C101.646 38.398 102.146 38.6519 102.583 39.0035C103.021 39.3472 103.392 39.8082 103.697 40.3863C104.009 40.9566 104.247 41.6558 104.411 42.4839C104.576 43.3121 104.658 44.2847 104.658 45.4019ZM102.478 48.355V45.0386C102.478 44.273 102.431 43.6011 102.337 43.023C102.251 42.4371 102.122 41.9371 101.951 41.523C101.779 41.1089 101.56 40.773 101.294 40.5152C101.036 40.2574 100.736 40.0699 100.392 39.9527C100.056 39.8277 99.6771 39.7652 99.2552 39.7652C98.7396 39.7652 98.2825 39.8629 97.8841 40.0582C97.4857 40.2457 97.1497 40.5464 96.8763 40.9605C96.6107 41.3746 96.4075 41.9175 96.2669 42.5894C96.1263 43.2613 96.056 44.0777 96.056 45.0386V48.355C96.056 49.1207 96.0989 49.7964 96.1849 50.3824C96.2786 50.9683 96.4153 51.4761 96.595 51.9058C96.7747 52.3277 96.9935 52.6754 97.2513 52.9488C97.5091 53.2222 97.806 53.4254 98.1419 53.5582C98.4857 53.6832 98.8646 53.7457 99.2786 53.7457C99.8099 53.7457 100.275 53.6441 100.673 53.441C101.072 53.2379 101.404 52.9214 101.669 52.4918C101.943 52.0543 102.146 51.4957 102.279 50.816C102.411 50.1285 102.478 49.3082 102.478 48.355Z" fill="white"/>
<path d="M148.658 45.4019V48.0035C148.658 49.4019 148.533 50.5816 148.283 51.5425C148.033 52.5035 147.673 53.2769 147.204 53.8629C146.736 54.4488 146.169 54.8746 145.505 55.1402C144.849 55.398 144.107 55.5269 143.279 55.5269C142.622 55.5269 142.017 55.4449 141.462 55.2808C140.908 55.1168 140.408 54.855 139.962 54.4957C139.525 54.1285 139.15 53.6519 138.837 53.066C138.525 52.48 138.286 51.7691 138.122 50.9332C137.958 50.0972 137.876 49.1207 137.876 48.0035V45.4019C137.876 44.0035 138.001 42.8316 138.251 41.8863C138.509 40.941 138.872 40.1832 139.341 39.6129C139.81 39.0347 140.372 38.6207 141.029 38.3707C141.693 38.1207 142.435 37.9957 143.255 37.9957C143.919 37.9957 144.529 38.0777 145.083 38.2418C145.646 38.398 146.146 38.6519 146.583 39.0035C147.021 39.3472 147.392 39.8082 147.697 40.3863C148.009 40.9566 148.247 41.6558 148.411 42.4839C148.576 43.3121 148.658 44.2847 148.658 45.4019ZM146.478 48.355V45.0386C146.478 44.273 146.431 43.6011 146.337 43.023C146.251 42.4371 146.122 41.9371 145.951 41.523C145.779 41.1089 145.56 40.773 145.294 40.5152C145.036 40.2574 144.736 40.0699 144.392 39.9527C144.056 39.8277 143.677 39.7652 143.255 39.7652C142.74 39.7652 142.283 39.8629 141.884 40.0582C141.486 40.2457 141.15 40.5464 140.876 40.9605C140.611 41.3746 140.408 41.9175 140.267 42.5894C140.126 43.2613 140.056 44.0777 140.056 45.0386V48.355C140.056 49.1207 140.099 49.7964 140.185 50.3824C140.279 50.9683 140.415 51.4761 140.595 51.9058C140.775 52.3277 140.993 52.6754 141.251 52.9488C141.509 53.2222 141.806 53.4254 142.142 53.5582C142.486 53.6832 142.865 53.7457 143.279 53.7457C143.81 53.7457 144.275 53.6441 144.673 53.441C145.072 53.2379 145.404 52.9214 145.669 52.4918C145.943 52.0543 146.146 51.4957 146.279 50.816C146.411 50.1285 146.478 49.3082 146.478 48.355Z" fill="white"/>
<path d="M198.658 45.4019V48.0035C198.658 49.4019 198.533 50.5816 198.283 51.5425C198.033 52.5035 197.673 53.2769 197.204 53.8629C196.736 54.4488 196.169 54.8746 195.505 55.1402C194.849 55.398 194.107 55.5269 193.279 55.5269C192.622 55.5269 192.017 55.4449 191.462 55.2808C190.908 55.1168 190.408 54.855 189.962 54.4957C189.525 54.1285 189.15 53.6519 188.837 53.066C188.525 52.48 188.286 51.7691 188.122 50.9332C187.958 50.0972 187.876 49.1207 187.876 48.0035V45.4019C187.876 44.0035 188.001 42.8316 188.251 41.8863C188.509 40.941 188.872 40.1832 189.341 39.6129C189.81 39.0347 190.372 38.6207 191.029 38.3707C191.693 38.1207 192.435 37.9957 193.255 37.9957C193.919 37.9957 194.529 38.0777 195.083 38.2418C195.646 38.398 196.146 38.6519 196.583 39.0035C197.021 39.3472 197.392 39.8082 197.697 40.3863C198.009 40.9566 198.247 41.6558 198.411 42.4839C198.576 43.3121 198.658 44.2847 198.658 45.4019ZM196.478 48.355V45.0386C196.478 44.273 196.431 43.6011 196.337 43.023C196.251 42.4371 196.122 41.9371 195.951 41.523C195.779 41.1089 195.56 40.773 195.294 40.5152C195.036 40.2574 194.736 40.0699 194.392 39.9527C194.056 39.8277 193.677 39.7652 193.255 39.7652C192.74 39.7652 192.283 39.8629 191.884 40.0582C191.486 40.2457 191.15 40.5464 190.876 40.9605C190.611 41.3746 190.408 41.9175 190.267 42.5894C190.126 43.2613 190.056 44.0777 190.056 45.0386V48.355C190.056 49.1207 190.099 49.7964 190.185 50.3824C190.279 50.9683 190.415 51.4761 190.595 51.9058C190.775 52.3277 190.993 52.6754 191.251 52.9488C191.509 53.2222 191.806 53.4254 192.142 53.5582C192.486 53.6832 192.865 53.7457 193.279 53.7457C193.81 53.7457 194.275 53.6441 194.673 53.441C195.072 53.2379 195.404 52.9214 195.669 52.4918C195.943 52.0543 196.146 51.4957 196.279 50.816C196.411 50.1285 196.478 49.3082 196.478 48.355Z" fill="white"/>
<path d="M248.658 45.4019V48.0035C248.658 49.4019 248.533 50.5816 248.283 51.5425C248.033 52.5035 247.673 53.2769 247.204 53.8629C246.736 54.4488 246.169 54.8746 245.505 55.1402C244.849 55.398 244.107 55.5269 243.279 55.5269C242.622 55.5269 242.017 55.4449 241.462 55.2808C240.908 55.1168 240.408 54.855 239.962 54.4957C239.525 54.1285 239.15 53.6519 238.837 53.066C238.525 52.48 238.286 51.7691 238.122 50.9332C237.958 50.0972 237.876 49.1207 237.876 48.0035V45.4019C237.876 44.0035 238.001 42.8316 238.251 41.8863C238.509 40.941 238.872 40.1832 239.341 39.6129C239.81 39.0347 240.372 38.6207 241.029 38.3707C241.693 38.1207 242.435 37.9957 243.255 37.9957C243.919 37.9957 244.529 38.0777 245.083 38.2418C245.646 38.398 246.146 38.6519 246.583 39.0035C247.021 39.3472 247.392 39.8082 247.697 40.3863C248.009 40.9566 248.247 41.6558 248.411 42.4839C248.576 43.3121 248.658 44.2847 248.658 45.4019ZM246.478 48.355V45.0386C246.478 44.273 246.431 43.6011 246.337 43.023C246.251 42.4371 246.122 41.9371 245.951 41.523C245.779 41.1089 245.56 40.773 245.294 40.5152C245.036 40.2574 244.736 40.0699 244.392 39.9527C244.056 39.8277 243.677 39.7652 243.255 39.7652C242.74 39.7652 242.283 39.8629 241.884 40.0582C241.486 40.2457 241.15 40.5464 240.876 40.9605C240.611 41.3746 240.408 41.9175 240.267 42.5894C240.126 43.2613 240.056 44.0777 240.056 45.0386V48.355C240.056 49.1207 240.099 49.7964 240.185 50.3824C240.279 50.9683 240.415 51.4761 240.595 51.9058C240.775 52.3277 240.993 52.6754 241.251 52.9488C241.509 53.2222 241.806 53.4254 242.142 53.5582C242.486 53.6832 242.865 53.7457 243.279 53.7457C243.81 53.7457 244.275 53.6441 244.673 53.441C245.072 53.2379 245.404 52.9214 245.669 52.4918C245.943 52.0543 246.146 51.4957 246.279 50.816C246.411 50.1285 246.478 49.3082 246.478 48.355Z" fill="white"/>
<path d="M295.072 38.1363V55.2925H292.904V40.8433L288.533 42.4371V40.48L294.732 38.1363H295.072Z" fill="white"/>
<path d="M352.072 38.1363V55.2925H349.904V40.8433L345.533 42.4371V40.48L351.732 38.1363H352.072Z" fill="white"/>
<path d="M407.658 45.4019V48.0035C407.658 49.4019 407.533 50.5816 407.283 51.5425C407.033 52.5035 406.673 53.2769 406.204 53.8629C405.736 54.4488 405.169 54.8746 404.505 55.1402C403.849 55.398 403.107 55.5269 402.279 55.5269C401.622 55.5269 401.017 55.4449 400.462 55.2808C399.908 55.1168 399.408 54.855 398.962 54.4957C398.525 54.1285 398.15 53.6519 397.837 53.066C397.525 52.48 397.286 51.7691 397.122 50.9332C396.958 50.0972 396.876 49.1207 396.876 48.0035V45.4019C396.876 44.0035 397.001 42.8316 397.251 41.8863C397.509 40.941 397.872 40.1832 398.341 39.6129C398.81 39.0347 399.372 38.6207 400.029 38.3707C400.693 38.1207 401.435 37.9957 402.255 37.9957C402.919 37.9957 403.529 38.0777 404.083 38.2418C404.646 38.398 405.146 38.6519 405.583 39.0035C406.021 39.3472 406.392 39.8082 406.697 40.3863C407.009 40.9566 407.247 41.6558 407.411 42.4839C407.576 43.3121 407.658 44.2847 407.658 45.4019ZM405.478 48.355V45.0386C405.478 44.273 405.431 43.6011 405.337 43.023C405.251 42.4371 405.122 41.9371 404.951 41.523C404.779 41.1089 404.56 40.773 404.294 40.5152C404.036 40.2574 403.736 40.0699 403.392 39.9527C403.056 39.8277 402.677 39.7652 402.255 39.7652C401.74 39.7652 401.283 39.8629 400.884 40.0582C400.486 40.2457 400.15 40.5464 399.876 40.9605C399.611 41.3746 399.408 41.9175 399.267 42.5894C399.126 43.2613 399.056 44.0777 399.056 45.0386V48.355C399.056 49.1207 399.099 49.7964 399.185 50.3824C399.279 50.9683 399.415 51.4761 399.595 51.9058C399.775 52.3277 399.993 52.6754 400.251 52.9488C400.509 53.2222 400.806 53.4254 401.142 53.5582C401.486 53.6832 401.865 53.7457 402.279 53.7457C402.81 53.7457 403.275 53.6441 403.673 53.441C404.072 53.2379 404.404 52.9214 404.669 52.4918C404.943 52.0543 405.146 51.4957 405.279 50.816C405.411 50.1285 405.478 49.3082 405.478 48.355Z" fill="white"/>
<path d="M61.6575 45.6102V48.2118C61.6575 49.6102 61.5325 50.7899 61.2825 51.7508C61.0325 52.7118 60.6732 53.4852 60.2044 54.0711C59.7357 54.6571 59.1693 55.0829 58.5052 55.3485C57.8489 55.6063 57.1068 55.7352 56.2786 55.7352C55.6224 55.7352 55.0169 55.6532 54.4622 55.4891C53.9075 55.325 53.4075 55.0633 52.9622 54.7039C52.5247 54.3368 52.1497 53.8602 51.8372 53.2743C51.5247 52.6883 51.2864 51.9774 51.1224 51.1414C50.9583 50.3055 50.8763 49.3289 50.8763 48.2118V45.6102C50.8763 44.2118 51.0013 43.0399 51.2513 42.0946C51.5091 41.1493 51.8724 40.3914 52.3411 39.8211C52.8099 39.243 53.3724 38.8289 54.0286 38.5789C54.6927 38.3289 55.4349 38.2039 56.2552 38.2039C56.9193 38.2039 57.5286 38.286 58.0833 38.45C58.6458 38.6063 59.1458 38.8602 59.5833 39.2118C60.0208 39.5555 60.3919 40.0164 60.6966 40.5946C61.0091 41.1649 61.2474 41.8641 61.4114 42.6922C61.5755 43.5204 61.6575 44.493 61.6575 45.6102ZM59.4778 48.5633V45.2469C59.4778 44.4813 59.431 43.8094 59.3372 43.2313C59.2513 42.6454 59.1224 42.1454 58.9505 41.7313C58.7786 41.3172 58.5599 40.9813 58.2943 40.7235C58.0364 40.4657 57.7357 40.2782 57.3919 40.161C57.056 40.036 56.6771 39.9735 56.2552 39.9735C55.7396 39.9735 55.2825 40.0711 54.8841 40.2664C54.4857 40.4539 54.1497 40.7547 53.8763 41.1688C53.6107 41.5829 53.4075 42.1258 53.2669 42.7977C53.1263 43.4696 53.056 44.286 53.056 45.2469V48.5633C53.056 49.3289 53.0989 50.0047 53.1849 50.5907C53.2786 51.1766 53.4153 51.6844 53.595 52.1141C53.7747 52.536 53.9935 52.8836 54.2513 53.1571C54.5091 53.4305 54.806 53.6336 55.1419 53.7664C55.4857 53.8914 55.8646 53.9539 56.2786 53.9539C56.8099 53.9539 57.2747 53.8524 57.6732 53.6493C58.0716 53.4461 58.4036 53.1297 58.6693 52.7C58.9427 52.2625 59.1458 51.7039 59.2786 51.0243C59.4114 50.3368 59.4778 49.5164 59.4778 48.5633Z" fill="white"/>
<path d="M62.1263 107.462V109.244H50.9583V107.685L56.5482 101.462C57.2357 100.697 57.7669 100.048 58.1419 99.517C58.5247 98.978 58.7903 98.4975 58.9388 98.0756C59.095 97.6459 59.1732 97.2084 59.1732 96.7631C59.1732 96.2006 59.056 95.6928 58.8216 95.2397C58.595 94.7787 58.2591 94.4116 57.8138 94.1381C57.3685 93.8647 56.8294 93.728 56.1966 93.728C55.4388 93.728 54.806 93.8764 54.2982 94.1733C53.7982 94.4623 53.4232 94.8686 53.1732 95.392C52.9232 95.9155 52.7982 96.517 52.7982 97.1967H50.6302C50.6302 96.2358 50.8411 95.3569 51.263 94.56C51.6849 93.7631 52.3099 93.1303 53.138 92.6616C53.9661 92.185 54.9857 91.9467 56.1966 91.9467C57.2747 91.9467 58.1966 92.1381 58.9622 92.5209C59.7278 92.8959 60.3138 93.4272 60.72 94.1147C61.1341 94.7944 61.3411 95.5912 61.3411 96.5053C61.3411 97.0053 61.2552 97.5131 61.0833 98.0287C60.9193 98.5366 60.6888 99.0444 60.3919 99.5522C60.1028 100.06 59.763 100.56 59.3724 101.052C58.9896 101.544 58.5794 102.029 58.1419 102.505L53.5716 107.462H62.1263Z" fill="white"/>
<path d="M105.126 107.462V109.244H93.9583V107.685L99.5482 101.462C100.236 100.697 100.767 100.048 101.142 99.517C101.525 98.978 101.79 98.4975 101.939 98.0756C102.095 97.6459 102.173 97.2084 102.173 96.7631C102.173 96.2006 102.056 95.6928 101.822 95.2397C101.595 94.7787 101.259 94.4116 100.814 94.1381C100.368 93.8647 99.8294 93.728 99.1966 93.728C98.4388 93.728 97.806 93.8764 97.2982 94.1733C96.7982 94.4623 96.4232 94.8686 96.1732 95.392C95.9232 95.9155 95.7982 96.517 95.7982 97.1967H93.6302C93.6302 96.2358 93.8411 95.3569 94.263 94.56C94.6849 93.7631 95.3099 93.1303 96.138 92.6616C96.9661 92.185 97.9857 91.9467 99.1966 91.9467C100.275 91.9467 101.197 92.1381 101.962 92.5209C102.728 92.8959 103.314 93.4272 103.72 94.1147C104.134 94.7944 104.341 95.5912 104.341 96.5053C104.341 97.0053 104.255 97.5131 104.083 98.0287C103.919 98.5366 103.689 99.0444 103.392 99.5522C103.103 100.06 102.763 100.56 102.372 101.052C101.99 101.544 101.579 102.029 101.142 102.505L96.5716 107.462H105.126Z" fill="white"/>
<path d="M149.126 107.462V109.244H137.958V107.685L143.548 101.462C144.236 100.697 144.767 100.048 145.142 99.517C145.525 98.978 145.79 98.4975 145.939 98.0756C146.095 97.6459 146.173 97.2084 146.173 96.7631C146.173 96.2006 146.056 95.6928 145.822 95.2397C145.595 94.7787 145.259 94.4116 144.814 94.1381C144.368 93.8647 143.829 93.728 143.197 93.728C142.439 93.728 141.806 93.8764 141.298 94.1733C140.798 94.4623 140.423 94.8686 140.173 95.392C139.923 95.9155 139.798 96.517 139.798 97.1967H137.63C137.63 96.2358 137.841 95.3569 138.263 94.56C138.685 93.7631 139.31 93.1303 140.138 92.6616C140.966 92.185 141.986 91.9467 143.197 91.9467C144.275 91.9467 145.197 92.1381 145.962 92.5209C146.728 92.8959 147.314 93.4272 147.72 94.1147C148.134 94.7944 148.341 95.5912 148.341 96.5053C148.341 97.0053 148.255 97.5131 148.083 98.0287C147.919 98.5366 147.689 99.0444 147.392 99.5522C147.103 100.06 146.763 100.56 146.372 101.052C145.99 101.544 145.579 102.029 145.142 102.505L140.572 107.462H149.126Z" fill="white"/>
<path d="M199.126 107.462V109.244H187.958V107.685L193.548 101.462C194.236 100.697 194.767 100.048 195.142 99.517C195.525 98.978 195.79 98.4975 195.939 98.0756C196.095 97.6459 196.173 97.2084 196.173 96.7631C196.173 96.2006 196.056 95.6928 195.822 95.2397C195.595 94.7787 195.259 94.4116 194.814 94.1381C194.368 93.8647 193.829 93.728 193.197 93.728C192.439 93.728 191.806 93.8764 191.298 94.1733C190.798 94.4623 190.423 94.8686 190.173 95.392C189.923 95.9155 189.798 96.517 189.798 97.1967H187.63C187.63 96.2358 187.841 95.3569 188.263 94.56C188.685 93.7631 189.31 93.1303 190.138 92.6616C190.966 92.185 191.986 91.9467 193.197 91.9467C194.275 91.9467 195.197 92.1381 195.962 92.5209C196.728 92.8959 197.314 93.4272 197.72 94.1147C198.134 94.7944 198.341 95.5912 198.341 96.5053C198.341 97.0053 198.255 97.5131 198.083 98.0287C197.919 98.5366 197.689 99.0444 197.392 99.5522C197.103 100.06 196.763 100.56 196.372 101.052C195.99 101.544 195.579 102.029 195.142 102.505L190.572 107.462H199.126Z" fill="white"/>
<path d="M249.126 107.462V109.244H237.958V107.685L243.548 101.462C244.236 100.697 244.767 100.048 245.142 99.517C245.525 98.978 245.79 98.4975 245.939 98.0756C246.095 97.6459 246.173 97.2084 246.173 96.7631C246.173 96.2006 246.056 95.6928 245.822 95.2397C245.595 94.7787 245.259 94.4116 244.814 94.1381C244.368 93.8647 243.829 93.728 243.197 93.728C242.439 93.728 241.806 93.8764 241.298 94.1733C240.798 94.4623 240.423 94.8686 240.173 95.392C239.923 95.9155 239.798 96.517 239.798 97.1967H237.63C237.63 96.2358 237.841 95.3569 238.263 94.56C238.685 93.7631 239.31 93.1303 240.138 92.6616C240.966 92.185 241.986 91.9467 243.197 91.9467C244.275 91.9467 245.197 92.1381 245.962 92.5209C246.728 92.8959 247.314 93.4272 247.72 94.1147C248.134 94.7944 248.341 95.5912 248.341 96.5053C248.341 97.0053 248.255 97.5131 248.083 98.0287C247.919 98.5366 247.689 99.0444 247.392 99.5522C247.103 100.06 246.763 100.56 246.372 101.052C245.99 101.544 245.579 102.029 245.142 102.505L240.572 107.462H249.126Z" fill="white"/>
<path d="M299.126 107.462V109.244H287.958V107.685L293.548 101.462C294.236 100.697 294.767 100.048 295.142 99.517C295.525 98.978 295.79 98.4975 295.939 98.0756C296.095 97.6459 296.173 97.2084 296.173 96.7631C296.173 96.2006 296.056 95.6928 295.822 95.2397C295.595 94.7787 295.259 94.4116 294.814 94.1381C294.368 93.8647 293.829 93.728 293.197 93.728C292.439 93.728 291.806 93.8764 291.298 94.1733C290.798 94.4623 290.423 94.8686 290.173 95.392C289.923 95.9155 289.798 96.517 289.798 97.1967H287.63C287.63 96.2358 287.841 95.3569 288.263 94.56C288.685 93.7631 289.31 93.1303 290.138 92.6616C290.966 92.185 291.986 91.9467 293.197 91.9467C294.275 91.9467 295.197 92.1381 295.962 92.5209C296.728 92.8959 297.314 93.4272 297.72 94.1147C298.134 94.7944 298.341 95.5912 298.341 96.5053C298.341 97.0053 298.255 97.5131 298.083 98.0287C297.919 98.5366 297.689 99.0444 297.392 99.5522C297.103 100.06 296.763 100.56 296.372 101.052C295.99 101.544 295.579 102.029 295.142 102.505L290.572 107.462H299.126Z" fill="white"/>
<path d="M356.126 107.462V109.244H344.958V107.685L350.548 101.462C351.236 100.697 351.767 100.048 352.142 99.517C352.525 98.978 352.79 98.4975 352.939 98.0756C353.095 97.6459 353.173 97.2084 353.173 96.7631C353.173 96.2006 353.056 95.6928 352.822 95.2397C352.595 94.7787 352.259 94.4116 351.814 94.1381C351.368 93.8647 350.829 93.728 350.197 93.728C349.439 93.728 348.806 93.8764 348.298 94.1733C347.798 94.4623 347.423 94.8686 347.173 95.392C346.923 95.9155 346.798 96.517 346.798 97.1967H344.63C344.63 96.2358 344.841 95.3569 345.263 94.56C345.685 93.7631 346.31 93.1303 347.138 92.6616C347.966 92.185 348.986 91.9467 350.197 91.9467C351.275 91.9467 352.197 92.1381 352.962 92.5209C353.728 92.8959 354.314 93.4272 354.72 94.1147C355.134 94.7944 355.341 95.5912 355.341 96.5053C355.341 97.0053 355.255 97.5131 355.083 98.0287C354.919 98.5366 354.689 99.0444 354.392 99.5522C354.103 100.06 353.763 100.56 353.372 101.052C352.99 101.544 352.579 102.029 352.142 102.505L347.572 107.462H356.126Z" fill="white"/>
<path d="M408.126 107.462V109.244H396.958V107.685L402.548 101.462C403.236 100.697 403.767 100.048 404.142 99.517C404.525 98.978 404.79 98.4975 404.939 98.0756C405.095 97.6459 405.173 97.2084 405.173 96.7631C405.173 96.2006 405.056 95.6928 404.822 95.2397C404.595 94.7787 404.259 94.4116 403.814 94.1381C403.368 93.8647 402.829 93.728 402.197 93.728C401.439 93.728 400.806 93.8764 400.298 94.1733C399.798 94.4623 399.423 94.8686 399.173 95.392C398.923 95.9155 398.798 96.517 398.798 97.1967H396.63C396.63 96.2358 396.841 95.3569 397.263 94.56C397.685 93.7631 398.31 93.1303 399.138 92.6616C399.966 92.185 400.986 91.9467 402.197 91.9467C403.275 91.9467 404.197 92.1381 404.962 92.5209C405.728 92.8959 406.314 93.4272 406.72 94.1147C407.134 94.7944 407.341 95.5912 407.341 96.5053C407.341 97.0053 407.255 97.5131 407.083 98.0287C406.919 98.5366 406.689 99.0444 406.392 99.5522C406.103 100.06 405.763 100.56 405.372 101.052C404.99 101.544 404.579 102.029 404.142 102.505L399.572 107.462H408.126Z" fill="white"/>
<path d="M416.615 86.6927V88.4271C416.615 89.3594 416.531 90.1458 416.365 90.7865C416.198 91.4271 415.958 91.9427 415.646 92.3333C415.333 92.724 414.956 93.0078 414.513 93.1849C414.076 93.3568 413.581 93.4427 413.029 93.4427C412.591 93.4427 412.187 93.388 411.818 93.2787C411.448 93.1693 411.115 92.9948 410.818 92.7552C410.526 92.5104 410.276 92.1927 410.068 91.8021C409.859 91.4115 409.701 90.9375 409.591 90.3802C409.482 89.8229 409.427 89.1719 409.427 88.4271V86.6927C409.427 85.7604 409.51 84.9792 409.677 84.349C409.849 83.7188 410.091 83.2136 410.404 82.8333C410.716 82.4479 411.091 82.1719 411.529 82.0052C411.971 81.8386 412.466 81.7552 413.013 81.7552C413.456 81.7552 413.862 81.8099 414.232 81.9193C414.607 82.0234 414.94 82.1927 415.232 82.4271C415.523 82.6563 415.771 82.9636 415.974 83.349C416.182 83.7292 416.341 84.1953 416.451 84.7474C416.56 85.2995 416.615 85.9479 416.615 86.6927ZM415.161 88.6615V86.4505C415.161 85.9401 415.13 85.4922 415.068 85.1068C415.01 84.7162 414.924 84.3828 414.81 84.1068C414.695 83.8307 414.549 83.6068 414.372 83.4349C414.201 83.263 414 83.138 413.771 83.0599C413.547 82.9766 413.294 82.9349 413.013 82.9349C412.669 82.9349 412.365 83 412.099 83.1302C411.833 83.2552 411.609 83.4557 411.427 83.7318C411.25 84.0078 411.115 84.3698 411.021 84.8177C410.927 85.2656 410.88 85.8099 410.88 86.4505V88.6615C410.88 89.1719 410.909 89.6224 410.966 90.013C411.029 90.4037 411.12 90.7422 411.24 91.0287C411.359 91.3099 411.505 91.5417 411.677 91.724C411.849 91.9063 412.047 92.0417 412.271 92.1302C412.5 92.2136 412.753 92.2552 413.029 92.2552C413.383 92.2552 413.693 92.1875 413.958 92.0521C414.224 91.9167 414.445 91.7057 414.622 91.4193C414.805 91.1276 414.94 90.7552 415.029 90.3021C415.117 89.8438 415.161 89.2969 415.161 88.6615Z" fill="white"/>
<path d="M362.224 81.849V93.2865H360.779V83.6537L357.865 84.7162V83.4115L361.997 81.849H362.224Z" fill="white"/>
<path d="M307.927 92.099V93.2865H300.482V92.2474L304.208 88.099C304.667 87.5886 305.021 87.1563 305.271 86.8021C305.526 86.4427 305.703 86.1224 305.802 85.8412C305.906 85.5547 305.958 85.263 305.958 84.9662C305.958 84.5912 305.88 84.2526 305.724 83.9505C305.573 83.6432 305.349 83.3984 305.052 83.2162C304.755 83.0339 304.396 82.9427 303.974 82.9427C303.469 82.9427 303.047 83.0417 302.708 83.2396C302.375 83.4323 302.125 83.7031 301.958 84.0521C301.792 84.4011 301.708 84.8021 301.708 85.2552H300.263C300.263 84.6146 300.404 84.0287 300.685 83.4974C300.966 82.9662 301.383 82.5443 301.935 82.2318C302.487 81.9141 303.167 81.7552 303.974 81.7552C304.693 81.7552 305.307 81.8828 305.818 82.138C306.328 82.388 306.719 82.7422 306.99 83.2005C307.266 83.6537 307.404 84.1849 307.404 84.7943C307.404 85.1276 307.346 85.4662 307.232 85.8099C307.122 86.1484 306.969 86.487 306.771 86.8255C306.578 87.1641 306.352 87.4974 306.091 87.8255C305.836 88.1537 305.562 88.4766 305.271 88.7943L302.224 92.099H307.927Z" fill="white"/>
<path d="M250.583 86.888H251.615C252.12 86.888 252.536 86.8047 252.865 86.638C253.198 86.4662 253.445 86.2344 253.607 85.9427C253.773 85.6458 253.857 85.3125 253.857 84.9427C253.857 84.5052 253.784 84.138 253.638 83.8412C253.492 83.5443 253.273 83.3203 252.982 83.1693C252.69 83.0182 252.32 82.9427 251.872 82.9427C251.466 82.9427 251.107 83.0234 250.794 83.1849C250.487 83.3412 250.245 83.5651 250.068 83.8568C249.896 84.1484 249.81 84.4922 249.81 84.888H248.365C248.365 84.3099 248.51 83.7839 248.802 83.3099C249.094 82.8359 249.503 82.4583 250.029 82.1771C250.56 81.8958 251.174 81.7552 251.872 81.7552C252.56 81.7552 253.161 81.8776 253.677 82.1224C254.193 82.362 254.594 82.7214 254.88 83.2005C255.167 83.6745 255.31 84.2656 255.31 84.974C255.31 85.2604 255.242 85.5677 255.107 85.8958C254.977 86.2188 254.771 86.5208 254.49 86.8021C254.214 87.0833 253.854 87.3151 253.411 87.4974C252.969 87.6745 252.437 87.763 251.818 87.763H250.583V86.888ZM250.583 88.0755V87.2083H251.818C252.542 87.2083 253.141 87.2943 253.615 87.4662C254.089 87.638 254.461 87.8672 254.732 88.1537C255.008 88.4401 255.201 88.7552 255.31 89.099C255.424 89.4375 255.482 89.7761 255.482 90.1146C255.482 90.6458 255.391 91.1172 255.208 91.5287C255.031 91.9401 254.779 92.2891 254.451 92.5755C254.128 92.862 253.747 93.0781 253.31 93.224C252.872 93.3698 252.396 93.4427 251.88 93.4427C251.385 93.4427 250.919 93.3724 250.482 93.2318C250.049 93.0912 249.667 92.888 249.333 92.6224C249 92.3516 248.74 92.0208 248.552 91.6302C248.365 91.2344 248.271 90.7839 248.271 90.2787H249.716C249.716 90.6745 249.802 91.0208 249.974 91.3177C250.151 91.6146 250.401 91.8464 250.724 92.013C251.052 92.1745 251.437 92.2552 251.88 92.2552C252.323 92.2552 252.703 92.1797 253.021 92.0287C253.344 91.8724 253.591 91.638 253.763 91.3255C253.94 91.013 254.029 90.6198 254.029 90.1458C254.029 89.6719 253.93 89.2839 253.732 88.9818C253.534 88.6745 253.253 88.4479 252.888 88.3021C252.529 88.1511 252.104 88.0755 251.615 88.0755H250.583Z" fill="white"/>
<path d="M208.161 89.4583V90.6458H199.943V89.7943L205.036 81.9115H206.216L204.951 84.1927L201.583 89.4583H208.161ZM206.576 81.9115V93.2865H205.13V81.9115H206.576Z" fill="white"/>
<path d="M152.302 87.8724L151.146 87.5755L151.716 81.9115H157.552V83.2474H152.943L152.599 86.3412C152.807 86.2214 153.07 86.1094 153.388 86.0052C153.711 85.9011 154.081 85.849 154.497 85.849C155.023 85.849 155.495 85.9401 155.911 86.1224C156.328 86.2995 156.682 86.5547 156.974 86.888C157.271 87.2214 157.497 87.6224 157.654 88.0912C157.81 88.5599 157.888 89.0833 157.888 89.6615C157.888 90.2083 157.812 90.7109 157.661 91.1693C157.516 91.6276 157.294 92.0287 156.997 92.3724C156.701 92.7109 156.326 92.974 155.872 93.1615C155.424 93.349 154.896 93.4427 154.286 93.4427C153.828 93.4427 153.393 93.3802 152.982 93.2552C152.576 93.125 152.211 92.9297 151.888 92.6693C151.57 92.4037 151.31 92.0755 151.107 91.6849C150.909 91.2891 150.784 90.8255 150.732 90.2943H152.107C152.169 90.7214 152.294 91.0807 152.482 91.3724C152.669 91.6641 152.914 91.8854 153.216 92.0365C153.523 92.1823 153.88 92.2552 154.286 92.2552C154.63 92.2552 154.935 92.1953 155.201 92.0755C155.466 91.9557 155.69 91.7839 155.872 91.5599C156.055 91.3359 156.193 91.0651 156.286 90.7474C156.385 90.4297 156.435 90.0729 156.435 89.6771C156.435 89.3177 156.385 88.9844 156.286 88.6771C156.187 88.3698 156.039 88.1016 155.841 87.8724C155.648 87.6432 155.411 87.4662 155.13 87.3412C154.849 87.2109 154.526 87.1458 154.161 87.1458C153.677 87.1458 153.31 87.2109 153.06 87.3412C152.815 87.4714 152.562 87.6484 152.302 87.8724Z" fill="white"/>
<path d="M112.021 81.8958H112.146V83.1224H112.021C111.255 83.1224 110.615 83.2474 110.099 83.4974C109.583 83.7422 109.174 84.0729 108.872 84.4896C108.57 84.9011 108.352 85.3646 108.216 85.8802C108.086 86.3958 108.021 86.9193 108.021 87.4505V89.1224C108.021 89.6276 108.081 90.0755 108.201 90.4662C108.32 90.8516 108.484 91.1771 108.693 91.4427C108.901 91.7083 109.135 91.9089 109.396 92.0443C109.661 92.1797 109.937 92.2474 110.224 92.2474C110.557 92.2474 110.854 92.1849 111.115 92.0599C111.375 91.9297 111.594 91.75 111.771 91.5208C111.953 91.2865 112.091 91.0104 112.185 90.6927C112.279 90.375 112.326 90.0261 112.326 89.6458C112.326 89.3073 112.284 88.9818 112.201 88.6693C112.117 88.3516 111.99 88.0703 111.818 87.8255C111.646 87.5755 111.43 87.3802 111.169 87.2396C110.914 87.0938 110.609 87.0208 110.255 87.0208C109.854 87.0208 109.479 87.1198 109.13 87.3177C108.786 87.5104 108.503 87.7656 108.279 88.0833C108.06 88.3958 107.935 88.737 107.904 89.1068L107.138 89.099C107.211 88.5156 107.346 88.0182 107.544 87.6068C107.747 87.1901 107.997 86.8516 108.294 86.5912C108.596 86.3255 108.932 86.1328 109.302 86.013C109.677 85.888 110.073 85.8255 110.49 85.8255C111.057 85.8255 111.547 85.9323 111.958 86.1458C112.37 86.3594 112.708 86.6458 112.974 87.0052C113.24 87.3594 113.435 87.7604 113.56 88.2083C113.69 88.6511 113.755 89.1068 113.755 89.5755C113.755 90.112 113.68 90.6146 113.529 91.0833C113.378 91.5521 113.151 91.9636 112.849 92.3177C112.552 92.6719 112.185 92.9479 111.747 93.1458C111.31 93.3438 110.802 93.4427 110.224 93.4427C109.609 93.4427 109.073 93.3177 108.615 93.0677C108.156 92.8125 107.776 92.474 107.474 92.0521C107.172 91.6302 106.945 91.1615 106.794 90.6458C106.643 90.1302 106.568 89.6068 106.568 89.0755V88.3958C106.568 87.5938 106.648 86.8073 106.81 86.0365C106.971 85.2656 107.25 84.5677 107.646 83.9427C108.047 83.3177 108.602 82.8203 109.31 82.4505C110.018 82.0807 110.922 81.8958 112.021 81.8958Z" fill="white"/>
<path d="M69.8255 81.9115V82.724L65.1146 93.2865H63.5911L68.2943 83.099H62.138V81.9115H69.8255Z" fill="white"/>
<path d="M450.083 44.075V45.9618H440.31V44.075H450.083ZM450.083 48.9383V50.825H440.31V48.9383H450.083ZM467.392 38.4149H467.579V40.2547H467.392C466.243 40.2547 465.283 40.4422 464.509 40.8172C463.736 41.1844 463.122 41.6805 462.669 42.3055C462.216 42.9227 461.888 43.618 461.685 44.3914C461.49 45.1649 461.392 45.95 461.392 46.7469V49.2547C461.392 50.0125 461.482 50.6844 461.661 51.2704C461.841 51.8485 462.087 52.3368 462.4 52.7352C462.712 53.1336 463.064 53.4344 463.454 53.6375C463.853 53.8407 464.267 53.9422 464.697 53.9422C465.197 53.9422 465.642 53.8485 466.033 53.661C466.423 53.4657 466.751 53.1961 467.017 52.8524C467.29 52.5008 467.497 52.0868 467.638 51.6102C467.779 51.1336 467.849 50.6102 467.849 50.0399C467.849 49.5321 467.786 49.0438 467.661 48.575C467.536 48.0985 467.345 47.6766 467.087 47.3094C466.829 46.9344 466.505 46.6414 466.115 46.4305C465.732 46.2118 465.275 46.1024 464.743 46.1024C464.142 46.1024 463.579 46.2508 463.056 46.5477C462.54 46.8368 462.115 47.2196 461.779 47.6961C461.451 48.1649 461.263 48.6766 461.216 49.2313L460.068 49.2196C460.177 48.3446 460.38 47.5985 460.677 46.9813C460.982 46.3563 461.357 45.8485 461.802 45.4579C462.255 45.0594 462.759 44.7704 463.314 44.5907C463.876 44.4032 464.47 44.3094 465.095 44.3094C465.947 44.3094 466.681 44.4696 467.298 44.7899C467.915 45.1102 468.423 45.5399 468.822 46.0789C469.22 46.6102 469.513 47.2118 469.701 47.8836C469.896 48.5477 469.993 49.2313 469.993 49.9344C469.993 50.7391 469.88 51.493 469.654 52.1961C469.427 52.8993 469.087 53.5164 468.634 54.0477C468.189 54.5789 467.638 54.993 466.982 55.2899C466.326 55.5868 465.564 55.7352 464.697 55.7352C463.775 55.7352 462.97 55.5477 462.283 55.1727C461.595 54.7899 461.025 54.2821 460.572 53.6493C460.118 53.0164 459.779 52.3133 459.552 51.5399C459.326 50.7664 459.212 49.9813 459.212 49.1844V48.1649C459.212 46.9618 459.333 45.7821 459.576 44.6258C459.818 43.4696 460.236 42.4227 460.829 41.4852C461.431 40.5477 462.263 39.8016 463.326 39.2469C464.388 38.6922 465.743 38.4149 467.392 38.4149Z" fill="white"/>
<rect x="38.0286" y="167.359" width="389" height="40.7999" stroke="#D1D5DB"/>
<line x1="219.029" y1="208.659" x2="219.029" y2="166.859" stroke="#D1D5DB"/>
<line x1="271.029" y1="208.659" x2="271.029" y2="166.859" stroke="#D1D5DB"/>
<line x1="323.029" y1="208.659" x2="323.029" y2="166.859" stroke="#D1D5DB"/>
<line x1="380.029" y1="208.659" x2="380.029" y2="166.859" stroke="#D1D5DB"/>
<line x1="124.029" y1="208.659" x2="124.029" y2="166.859" stroke="#D1D5DB"/>
<line x1="170.029" y1="208.659" x2="170.029" y2="166.859" stroke="#D1D5DB"/>
<path d="M79.5286 208.659V166.859" stroke="#D1D5DB"/>
<path d="M104.658 187.717V190.319C104.658 191.717 104.533 192.897 104.283 193.858C104.033 194.819 103.673 195.592 103.204 196.178C102.736 196.764 102.169 197.19 101.505 197.456C100.849 197.714 100.107 197.842 99.2786 197.842C98.6224 197.842 98.0169 197.76 97.4622 197.596C96.9075 197.432 96.4075 197.171 95.9622 196.811C95.5247 196.444 95.1497 195.967 94.8372 195.382C94.5247 194.796 94.2864 194.085 94.1224 193.249C93.9583 192.413 93.8763 191.436 93.8763 190.319V187.717C93.8763 186.319 94.0013 185.147 94.2513 184.202C94.5091 183.257 94.8724 182.499 95.3411 181.928C95.8099 181.35 96.3724 180.936 97.0286 180.686C97.6927 180.436 98.4349 180.311 99.2552 180.311C99.9193 180.311 100.529 180.393 101.083 180.557C101.646 180.714 102.146 180.967 102.583 181.319C103.021 181.663 103.392 182.124 103.697 182.702C104.009 183.272 104.247 183.971 104.411 184.799C104.576 185.628 104.658 186.6 104.658 187.717ZM102.478 190.671V187.354C102.478 186.589 102.431 185.917 102.337 185.339C102.251 184.753 102.122 184.253 101.951 183.839C101.779 183.424 101.56 183.089 101.294 182.831C101.036 182.573 100.736 182.385 100.392 182.268C100.056 182.143 99.6771 182.081 99.2552 182.081C98.7396 182.081 98.2825 182.178 97.8841 182.374C97.4857 182.561 97.1497 182.862 96.8763 183.276C96.6107 183.69 96.4075 184.233 96.2669 184.905C96.1263 185.577 96.056 186.393 96.056 187.354V190.671C96.056 191.436 96.0989 192.112 96.1849 192.698C96.2786 193.284 96.4153 193.792 96.595 194.221C96.7747 194.643 96.9935 194.991 97.2513 195.264C97.5091 195.538 97.806 195.741 98.1419 195.874C98.4857 195.999 98.8646 196.061 99.2786 196.061C99.8099 196.061 100.275 195.96 100.673 195.757C101.072 195.553 101.404 195.237 101.669 194.807C101.943 194.37 102.146 193.811 102.279 193.132C102.411 192.444 102.478 191.624 102.478 190.671Z" fill="white"/>
<path d="M148.658 187.717V190.319C148.658 191.717 148.533 192.897 148.283 193.858C148.033 194.819 147.673 195.592 147.204 196.178C146.736 196.764 146.169 197.19 145.505 197.456C144.849 197.714 144.107 197.842 143.279 197.842C142.622 197.842 142.017 197.76 141.462 197.596C140.908 197.432 140.408 197.171 139.962 196.811C139.525 196.444 139.15 195.967 138.837 195.382C138.525 194.796 138.286 194.085 138.122 193.249C137.958 192.413 137.876 191.436 137.876 190.319V187.717C137.876 186.319 138.001 185.147 138.251 184.202C138.509 183.257 138.872 182.499 139.341 181.928C139.81 181.35 140.372 180.936 141.029 180.686C141.693 180.436 142.435 180.311 143.255 180.311C143.919 180.311 144.529 180.393 145.083 180.557C145.646 180.714 146.146 180.967 146.583 181.319C147.021 181.663 147.392 182.124 147.697 182.702C148.009 183.272 148.247 183.971 148.411 184.799C148.576 185.628 148.658 186.6 148.658 187.717ZM146.478 190.671V187.354C146.478 186.589 146.431 185.917 146.337 185.339C146.251 184.753 146.122 184.253 145.951 183.839C145.779 183.424 145.56 183.089 145.294 182.831C145.036 182.573 144.736 182.385 144.392 182.268C144.056 182.143 143.677 182.081 143.255 182.081C142.74 182.081 142.283 182.178 141.884 182.374C141.486 182.561 141.15 182.862 140.876 183.276C140.611 183.69 140.408 184.233 140.267 184.905C140.126 185.577 140.056 186.393 140.056 187.354V190.671C140.056 191.436 140.099 192.112 140.185 192.698C140.279 193.284 140.415 193.792 140.595 194.221C140.775 194.643 140.993 194.991 141.251 195.264C141.509 195.538 141.806 195.741 142.142 195.874C142.486 195.999 142.865 196.061 143.279 196.061C143.81 196.061 144.275 195.96 144.673 195.757C145.072 195.553 145.404 195.237 145.669 194.807C145.943 194.37 146.146 193.811 146.279 193.132C146.411 192.444 146.478 191.624 146.478 190.671Z" fill="white"/>
<path d="M198.658 187.717V190.319C198.658 191.717 198.533 192.897 198.283 193.858C198.033 194.819 197.673 195.592 197.204 196.178C196.736 196.764 196.169 197.19 195.505 197.456C194.849 197.714 194.107 197.842 193.279 197.842C192.622 197.842 192.017 197.76 191.462 197.596C190.908 197.432 190.408 197.171 189.962 196.811C189.525 196.444 189.15 195.967 188.837 195.382C188.525 194.796 188.286 194.085 188.122 193.249C187.958 192.413 187.876 191.436 187.876 190.319V187.717C187.876 186.319 188.001 185.147 188.251 184.202C188.509 183.257 188.872 182.499 189.341 181.928C189.81 181.35 190.372 180.936 191.029 180.686C191.693 180.436 192.435 180.311 193.255 180.311C193.919 180.311 194.529 180.393 195.083 180.557C195.646 180.714 196.146 180.967 196.583 181.319C197.021 181.663 197.392 182.124 197.697 182.702C198.009 183.272 198.247 183.971 198.411 184.799C198.576 185.628 198.658 186.6 198.658 187.717ZM196.478 190.671V187.354C196.478 186.589 196.431 185.917 196.337 185.339C196.251 184.753 196.122 184.253 195.951 183.839C195.779 183.424 195.56 183.089 195.294 182.831C195.036 182.573 194.736 182.385 194.392 182.268C194.056 182.143 193.677 182.081 193.255 182.081C192.74 182.081 192.283 182.178 191.884 182.374C191.486 182.561 191.15 182.862 190.876 183.276C190.611 183.69 190.408 184.233 190.267 184.905C190.126 185.577 190.056 186.393 190.056 187.354V190.671C190.056 191.436 190.099 192.112 190.185 192.698C190.279 193.284 190.415 193.792 190.595 194.221C190.775 194.643 190.993 194.991 191.251 195.264C191.509 195.538 191.806 195.741 192.142 195.874C192.486 195.999 192.865 196.061 193.279 196.061C193.81 196.061 194.275 195.96 194.673 195.757C195.072 195.553 195.404 195.237 195.669 194.807C195.943 194.37 196.146 193.811 196.279 193.132C196.411 192.444 196.478 191.624 196.478 190.671Z" fill="white"/>
<path d="M295.072 180.452V197.608H292.904V183.159L288.533 184.753V182.796L294.732 180.452H295.072Z" fill="white"/>
<path d="M407.658 187.717V190.319C407.658 191.717 407.533 192.897 407.283 193.858C407.033 194.819 406.673 195.592 406.204 196.178C405.736 196.764 405.169 197.19 404.505 197.456C403.849 197.714 403.107 197.842 402.279 197.842C401.622 197.842 401.017 197.76 400.462 197.596C399.908 197.432 399.408 197.171 398.962 196.811C398.525 196.444 398.15 195.967 397.837 195.382C397.525 194.796 397.286 194.085 397.122 193.249C396.958 192.413 396.876 191.436 396.876 190.319V187.717C396.876 186.319 397.001 185.147 397.251 184.202C397.509 183.257 397.872 182.499 398.341 181.928C398.81 181.35 399.372 180.936 400.029 180.686C400.693 180.436 401.435 180.311 402.255 180.311C402.919 180.311 403.529 180.393 404.083 180.557C404.646 180.714 405.146 180.967 405.583 181.319C406.021 181.663 406.392 182.124 406.697 182.702C407.009 183.272 407.247 183.971 407.411 184.799C407.576 185.628 407.658 186.6 407.658 187.717ZM405.478 190.671V187.354C405.478 186.589 405.431 185.917 405.337 185.339C405.251 184.753 405.122 184.253 404.951 183.839C404.779 183.424 404.56 183.089 404.294 182.831C404.036 182.573 403.736 182.385 403.392 182.268C403.056 182.143 402.677 182.081 402.255 182.081C401.74 182.081 401.283 182.178 400.884 182.374C400.486 182.561 400.15 182.862 399.876 183.276C399.611 183.69 399.408 184.233 399.267 184.905C399.126 185.577 399.056 186.393 399.056 187.354V190.671C399.056 191.436 399.099 192.112 399.185 192.698C399.279 193.284 399.415 193.792 399.595 194.221C399.775 194.643 399.993 194.991 400.251 195.264C400.509 195.538 400.806 195.741 401.142 195.874C401.486 195.999 401.865 196.061 402.279 196.061C402.81 196.061 403.275 195.96 403.673 195.757C404.072 195.553 404.404 195.237 404.669 194.807C404.943 194.37 405.146 193.811 405.279 193.132C405.411 192.444 405.478 191.624 405.478 190.671Z" fill="white"/>
<path d="M61.6575 187.926V190.527C61.6575 191.926 61.5325 193.105 61.2825 194.066C61.0325 195.027 60.6732 195.801 60.2044 196.387C59.7357 196.973 59.1693 197.398 58.5052 197.664C57.8489 197.922 57.1068 198.051 56.2786 198.051C55.6224 198.051 55.0169 197.969 54.4622 197.805C53.9075 197.641 53.4075 197.379 52.9622 197.019C52.5247 196.652 52.1497 196.176 51.8372 195.59C51.5247 195.004 51.2864 194.293 51.1224 193.457C50.9583 192.621 50.8763 191.644 50.8763 190.527V187.926C50.8763 186.527 51.0013 185.355 51.2513 184.41C51.5091 183.465 51.8724 182.707 52.3411 182.137C52.8099 181.559 53.3724 181.144 54.0286 180.894C54.6927 180.644 55.4349 180.519 56.2552 180.519C56.9193 180.519 57.5286 180.602 58.0833 180.766C58.6458 180.922 59.1458 181.176 59.5833 181.527C60.0208 181.871 60.3919 182.332 60.6966 182.91C61.0091 183.48 61.2474 184.18 61.4114 185.008C61.5755 185.836 61.6575 186.809 61.6575 187.926ZM59.4778 190.879V187.562C59.4778 186.797 59.431 186.125 59.3372 185.547C59.2513 184.961 59.1224 184.461 58.9505 184.047C58.7786 183.633 58.5599 183.297 58.2943 183.039C58.0364 182.781 57.7357 182.594 57.3919 182.477C57.056 182.352 56.6771 182.289 56.2552 182.289C55.7396 182.289 55.2825 182.387 54.8841 182.582C54.4857 182.769 54.1497 183.07 53.8763 183.484C53.6107 183.898 53.4075 184.441 53.2669 185.113C53.1263 185.785 53.056 186.602 53.056 187.562V190.879C53.056 191.644 53.0989 192.32 53.1849 192.906C53.2786 193.492 53.4153 194 53.595 194.43C53.7747 194.852 53.9935 195.199 54.2513 195.473C54.5091 195.746 54.806 195.949 55.1419 196.082C55.4857 196.207 55.8646 196.269 56.2786 196.269C56.8099 196.269 57.2747 196.168 57.6732 195.965C58.0716 195.762 58.4036 195.445 58.6693 195.016C58.9427 194.578 59.1458 194.019 59.2786 193.34C59.4114 192.652 59.4778 191.832 59.4778 190.879Z" fill="white"/>
<rect x="38.0286" y="167.359" width="389" height="40.7999" stroke="#D1D5DB"/>
<line x1="219.029" y1="208.659" x2="219.029" y2="166.859" stroke="#D1D5DB"/>
<line x1="271.029" y1="208.659" x2="271.029" y2="166.859" stroke="#D1D5DB"/>
<line x1="323.029" y1="208.659" x2="323.029" y2="166.859" stroke="#D1D5DB"/>
<line x1="380.029" y1="208.659" x2="380.029" y2="166.859" stroke="#D1D5DB"/>
<line x1="124.029" y1="208.659" x2="124.029" y2="166.859" stroke="#D1D5DB"/>
<line x1="170.029" y1="208.659" x2="170.029" y2="166.859" stroke="#D1D5DB"/>
<path d="M79.5286 208.659V166.859" stroke="#D1D5DB"/>
<path d="M104.658 187.717V190.319C104.658 191.717 104.533 192.897 104.283 193.858C104.033 194.819 103.673 195.592 103.204 196.178C102.736 196.764 102.169 197.19 101.505 197.456C100.849 197.714 100.107 197.842 99.2786 197.842C98.6224 197.842 98.0169 197.76 97.4622 197.596C96.9075 197.432 96.4075 197.171 95.9622 196.811C95.5247 196.444 95.1497 195.967 94.8372 195.382C94.5247 194.796 94.2864 194.085 94.1224 193.249C93.9583 192.413 93.8763 191.436 93.8763 190.319V187.717C93.8763 186.319 94.0013 185.147 94.2513 184.202C94.5091 183.257 94.8724 182.499 95.3411 181.928C95.8099 181.35 96.3724 180.936 97.0286 180.686C97.6927 180.436 98.4349 180.311 99.2552 180.311C99.9193 180.311 100.529 180.393 101.083 180.557C101.646 180.714 102.146 180.967 102.583 181.319C103.021 181.663 103.392 182.124 103.697 182.702C104.009 183.272 104.247 183.971 104.411 184.799C104.576 185.628 104.658 186.6 104.658 187.717ZM102.478 190.671V187.354C102.478 186.589 102.431 185.917 102.337 185.339C102.251 184.753 102.122 184.253 101.951 183.839C101.779 183.424 101.56 183.089 101.294 182.831C101.036 182.573 100.736 182.385 100.392 182.268C100.056 182.143 99.6771 182.081 99.2552 182.081C98.7396 182.081 98.2825 182.178 97.8841 182.374C97.4857 182.561 97.1497 182.862 96.8763 183.276C96.6107 183.69 96.4075 184.233 96.2669 184.905C96.1263 185.577 96.056 186.393 96.056 187.354V190.671C96.056 191.436 96.0989 192.112 96.1849 192.698C96.2786 193.284 96.4153 193.792 96.595 194.221C96.7747 194.643 96.9935 194.991 97.2513 195.264C97.5091 195.538 97.806 195.741 98.1419 195.874C98.4857 195.999 98.8646 196.061 99.2786 196.061C99.8099 196.061 100.275 195.96 100.673 195.757C101.072 195.553 101.404 195.237 101.669 194.807C101.943 194.37 102.146 193.811 102.279 193.132C102.411 192.444 102.478 191.624 102.478 190.671Z" fill="white"/>
<path d="M148.658 187.717V190.319C148.658 191.717 148.533 192.897 148.283 193.858C148.033 194.819 147.673 195.592 147.204 196.178C146.736 196.764 146.169 197.19 145.505 197.456C144.849 197.714 144.107 197.842 143.279 197.842C142.622 197.842 142.017 197.76 141.462 197.596C140.908 197.432 140.408 197.171 139.962 196.811C139.525 196.444 139.15 195.967 138.837 195.382C138.525 194.796 138.286 194.085 138.122 193.249C137.958 192.413 137.876 191.436 137.876 190.319V187.717C137.876 186.319 138.001 185.147 138.251 184.202C138.509 183.257 138.872 182.499 139.341 181.928C139.81 181.35 140.372 180.936 141.029 180.686C141.693 180.436 142.435 180.311 143.255 180.311C143.919 180.311 144.529 180.393 145.083 180.557C145.646 180.714 146.146 180.967 146.583 181.319C147.021 181.663 147.392 182.124 147.697 182.702C148.009 183.272 148.247 183.971 148.411 184.799C148.576 185.628 148.658 186.6 148.658 187.717ZM146.478 190.671V187.354C146.478 186.589 146.431 185.917 146.337 185.339C146.251 184.753 146.122 184.253 145.951 183.839C145.779 183.424 145.56 183.089 145.294 182.831C145.036 182.573 144.736 182.385 144.392 182.268C144.056 182.143 143.677 182.081 143.255 182.081C142.74 182.081 142.283 182.178 141.884 182.374C141.486 182.561 141.15 182.862 140.876 183.276C140.611 183.69 140.408 184.233 140.267 184.905C140.126 185.577 140.056 186.393 140.056 187.354V190.671C140.056 191.436 140.099 192.112 140.185 192.698C140.279 193.284 140.415 193.792 140.595 194.221C140.775 194.643 140.993 194.991 141.251 195.264C141.509 195.538 141.806 195.741 142.142 195.874C142.486 195.999 142.865 196.061 143.279 196.061C143.81 196.061 144.275 195.96 144.673 195.757C145.072 195.553 145.404 195.237 145.669 194.807C145.943 194.37 146.146 193.811 146.279 193.132C146.411 192.444 146.478 191.624 146.478 190.671Z" fill="white"/>
<path d="M198.658 187.717V190.319C198.658 191.717 198.533 192.897 198.283 193.858C198.033 194.819 197.673 195.592 197.204 196.178C196.736 196.764 196.169 197.19 195.505 197.456C194.849 197.714 194.107 197.842 193.279 197.842C192.622 197.842 192.017 197.76 191.462 197.596C190.908 197.432 190.408 197.171 189.962 196.811C189.525 196.444 189.15 195.967 188.837 195.382C188.525 194.796 188.286 194.085 188.122 193.249C187.958 192.413 187.876 191.436 187.876 190.319V187.717C187.876 186.319 188.001 185.147 188.251 184.202C188.509 183.257 188.872 182.499 189.341 181.928C189.81 181.35 190.372 180.936 191.029 180.686C191.693 180.436 192.435 180.311 193.255 180.311C193.919 180.311 194.529 180.393 195.083 180.557C195.646 180.714 196.146 180.967 196.583 181.319C197.021 181.663 197.392 182.124 197.697 182.702C198.009 183.272 198.247 183.971 198.411 184.799C198.576 185.628 198.658 186.6 198.658 187.717ZM196.478 190.671V187.354C196.478 186.589 196.431 185.917 196.337 185.339C196.251 184.753 196.122 184.253 195.951 183.839C195.779 183.424 195.56 183.089 195.294 182.831C195.036 182.573 194.736 182.385 194.392 182.268C194.056 182.143 193.677 182.081 193.255 182.081C192.74 182.081 192.283 182.178 191.884 182.374C191.486 182.561 191.15 182.862 190.876 183.276C190.611 183.69 190.408 184.233 190.267 184.905C190.126 185.577 190.056 186.393 190.056 187.354V190.671C190.056 191.436 190.099 192.112 190.185 192.698C190.279 193.284 190.415 193.792 190.595 194.221C190.775 194.643 190.993 194.991 191.251 195.264C191.509 195.538 191.806 195.741 192.142 195.874C192.486 195.999 192.865 196.061 193.279 196.061C193.81 196.061 194.275 195.96 194.673 195.757C195.072 195.553 195.404 195.237 195.669 194.807C195.943 194.37 196.146 193.811 196.279 193.132C196.411 192.444 196.478 191.624 196.478 190.671Z" fill="white"/>
<path d="M295.072 180.452V197.608H292.904V183.159L288.533 184.753V182.796L294.732 180.452H295.072Z" fill="white"/>
<path d="M245.072 180.66V197.816H242.904V183.367L238.533 184.961V183.004L244.732 180.66H245.072Z" fill="white"/>
<path d="M355.658 187.926V190.527C355.658 191.926 355.533 193.105 355.283 194.066C355.033 195.027 354.673 195.801 354.204 196.387C353.736 196.973 353.169 197.398 352.505 197.664C351.849 197.922 351.107 198.051 350.279 198.051C349.622 198.051 349.017 197.969 348.462 197.805C347.908 197.641 347.408 197.379 346.962 197.019C346.525 196.652 346.15 196.176 345.837 195.59C345.525 195.004 345.286 194.293 345.122 193.457C344.958 192.621 344.876 191.644 344.876 190.527V187.926C344.876 186.527 345.001 185.355 345.251 184.41C345.509 183.465 345.872 182.707 346.341 182.137C346.81 181.559 347.372 181.144 348.029 180.894C348.693 180.644 349.435 180.519 350.255 180.519C350.919 180.519 351.529 180.602 352.083 180.766C352.646 180.922 353.146 181.176 353.583 181.527C354.021 181.871 354.392 182.332 354.697 182.91C355.009 183.48 355.247 184.18 355.411 185.008C355.576 185.836 355.658 186.809 355.658 187.926ZM353.478 190.879V187.562C353.478 186.797 353.431 186.125 353.337 185.547C353.251 184.961 353.122 184.461 352.951 184.047C352.779 183.633 352.56 183.297 352.294 183.039C352.036 182.781 351.736 182.594 351.392 182.477C351.056 182.352 350.677 182.289 350.255 182.289C349.74 182.289 349.283 182.387 348.884 182.582C348.486 182.769 348.15 183.07 347.876 183.484C347.611 183.898 347.408 184.441 347.267 185.113C347.126 185.785 347.056 186.602 347.056 187.562V190.879C347.056 191.644 347.099 192.32 347.185 192.906C347.279 193.492 347.415 194 347.595 194.43C347.775 194.852 347.993 195.199 348.251 195.473C348.509 195.746 348.806 195.949 349.142 196.082C349.486 196.207 349.865 196.269 350.279 196.269C350.81 196.269 351.275 196.168 351.673 195.965C352.072 195.762 352.404 195.445 352.669 195.016C352.943 194.578 353.146 194.019 353.279 193.34C353.411 192.652 353.478 191.832 353.478 190.879Z" fill="white"/>
<path d="M407.658 187.717V190.319C407.658 191.717 407.533 192.897 407.283 193.858C407.033 194.819 406.673 195.592 406.204 196.178C405.736 196.764 405.169 197.19 404.505 197.456C403.849 197.714 403.107 197.842 402.279 197.842C401.622 197.842 401.017 197.76 400.462 197.596C399.908 197.432 399.408 197.171 398.962 196.811C398.525 196.444 398.15 195.967 397.837 195.382C397.525 194.796 397.286 194.085 397.122 193.249C396.958 192.413 396.876 191.436 396.876 190.319V187.717C396.876 186.319 397.001 185.147 397.251 184.202C397.509 183.257 397.872 182.499 398.341 181.928C398.81 181.35 399.372 180.936 400.029 180.686C400.693 180.436 401.435 180.311 402.255 180.311C402.919 180.311 403.529 180.393 404.083 180.557C404.646 180.714 405.146 180.967 405.583 181.319C406.021 181.663 406.392 182.124 406.697 182.702C407.009 183.272 407.247 183.971 407.411 184.799C407.576 185.628 407.658 186.6 407.658 187.717ZM405.478 190.671V187.354C405.478 186.589 405.431 185.917 405.337 185.339C405.251 184.753 405.122 184.253 404.951 183.839C404.779 183.424 404.56 183.089 404.294 182.831C404.036 182.573 403.736 182.385 403.392 182.268C403.056 182.143 402.677 182.081 402.255 182.081C401.74 182.081 401.283 182.178 400.884 182.374C400.486 182.561 400.15 182.862 399.876 183.276C399.611 183.69 399.408 184.233 399.267 184.905C399.126 185.577 399.056 186.393 399.056 187.354V190.671C399.056 191.436 399.099 192.112 399.185 192.698C399.279 193.284 399.415 193.792 399.595 194.221C399.775 194.643 399.993 194.991 400.251 195.264C400.509 195.538 400.806 195.741 401.142 195.874C401.486 195.999 401.865 196.061 402.279 196.061C402.81 196.061 403.275 195.96 403.673 195.757C404.072 195.553 404.404 195.237 404.669 194.807C404.943 194.37 405.146 193.811 405.279 193.132C405.411 192.444 405.478 191.624 405.478 190.671Z" fill="white"/>
<path d="M61.6575 187.926V190.527C61.6575 191.926 61.5325 193.105 61.2825 194.066C61.0325 195.027 60.6732 195.801 60.2044 196.387C59.7357 196.973 59.1693 197.398 58.5052 197.664C57.8489 197.922 57.1068 198.051 56.2786 198.051C55.6224 198.051 55.0169 197.969 54.4622 197.805C53.9075 197.641 53.4075 197.379 52.9622 197.019C52.5247 196.652 52.1497 196.176 51.8372 195.59C51.5247 195.004 51.2864 194.293 51.1224 193.457C50.9583 192.621 50.8763 191.644 50.8763 190.527V187.926C50.8763 186.527 51.0013 185.355 51.2513 184.41C51.5091 183.465 51.8724 182.707 52.3411 182.137C52.8099 181.559 53.3724 181.144 54.0286 180.894C54.6927 180.644 55.4349 180.519 56.2552 180.519C56.9193 180.519 57.5286 180.602 58.0833 180.766C58.6458 180.922 59.1458 181.176 59.5833 181.527C60.0208 181.871 60.3919 182.332 60.6966 182.91C61.0091 183.48 61.2474 184.18 61.4114 185.008C61.5755 185.836 61.6575 186.809 61.6575 187.926ZM59.4778 190.879V187.562C59.4778 186.797 59.431 186.125 59.3372 185.547C59.2513 184.961 59.1224 184.461 58.9505 184.047C58.7786 183.633 58.5599 183.297 58.2943 183.039C58.0364 182.781 57.7357 182.594 57.3919 182.477C57.056 182.352 56.6771 182.289 56.2552 182.289C55.7396 182.289 55.2825 182.387 54.8841 182.582C54.4857 182.769 54.1497 183.07 53.8763 183.484C53.6107 183.898 53.4075 184.441 53.2669 185.113C53.1263 185.785 53.056 186.602 53.056 187.562V190.879C53.056 191.644 53.0989 192.32 53.1849 192.906C53.2786 193.492 53.4153 194 53.595 194.43C53.7747 194.852 53.9935 195.199 54.2513 195.473C54.5091 195.746 54.806 195.949 55.1419 196.082C55.4857 196.207 55.8646 196.269 56.2786 196.269C56.8099 196.269 57.2747 196.168 57.6732 195.965C58.0716 195.762 58.4036 195.445 58.6693 195.016C58.9427 194.578 59.1458 194.019 59.2786 193.34C59.4114 192.652 59.4778 191.832 59.4778 190.879Z" fill="white"/>
<path d="M62.1263 249.778V251.559H50.9583V250.001L56.5482 243.778C57.2357 243.012 57.7669 242.364 58.1419 241.833C58.5247 241.294 58.7903 240.813 58.9388 240.391C59.095 239.961 59.1732 239.524 59.1732 239.079C59.1732 238.516 59.056 238.008 58.8216 237.555C58.595 237.094 58.2591 236.727 57.8138 236.454C57.3685 236.18 56.8294 236.044 56.1966 236.044C55.4388 236.044 54.806 236.192 54.2982 236.489C53.7982 236.778 53.4232 237.184 53.1732 237.708C52.9232 238.231 52.7982 238.833 52.7982 239.512H50.6302C50.6302 238.551 50.8411 237.672 51.263 236.876C51.6849 236.079 52.3099 235.446 53.138 234.977C53.9661 234.501 54.9857 234.262 56.1966 234.262C57.2747 234.262 58.1966 234.454 58.9622 234.836C59.7278 235.211 60.3138 235.743 60.72 236.43C61.1341 237.11 61.3411 237.907 61.3411 238.821C61.3411 239.321 61.2552 239.829 61.0833 240.344C60.9193 240.852 60.6888 241.36 60.3919 241.868C60.1028 242.376 59.763 242.876 59.3724 243.368C58.9896 243.86 58.5794 244.344 58.1419 244.821L53.5716 249.778H62.1263Z" fill="white"/>
<path d="M105.126 249.778V251.559H93.9583V250.001L99.5482 243.778C100.236 243.012 100.767 242.364 101.142 241.833C101.525 241.294 101.79 240.813 101.939 240.391C102.095 239.961 102.173 239.524 102.173 239.079C102.173 238.516 102.056 238.008 101.822 237.555C101.595 237.094 101.259 236.727 100.814 236.454C100.368 236.18 99.8294 236.044 99.1966 236.044C98.4388 236.044 97.806 236.192 97.2982 236.489C96.7982 236.778 96.4232 237.184 96.1732 237.708C95.9232 238.231 95.7982 238.833 95.7982 239.512H93.6302C93.6302 238.551 93.8411 237.672 94.263 236.876C94.6849 236.079 95.3099 235.446 96.138 234.977C96.9661 234.501 97.9857 234.262 99.1966 234.262C100.275 234.262 101.197 234.454 101.962 234.836C102.728 235.211 103.314 235.743 103.72 236.43C104.134 237.11 104.341 237.907 104.341 238.821C104.341 239.321 104.255 239.829 104.083 240.344C103.919 240.852 103.689 241.36 103.392 241.868C103.103 242.376 102.763 242.876 102.372 243.368C101.99 243.86 101.579 244.344 101.142 244.821L96.5716 249.778H105.126Z" fill="white"/>
<path d="M149.126 249.778V251.559H137.958V250.001L143.548 243.778C144.236 243.012 144.767 242.364 145.142 241.833C145.525 241.294 145.79 240.813 145.939 240.391C146.095 239.961 146.173 239.524 146.173 239.079C146.173 238.516 146.056 238.008 145.822 237.555C145.595 237.094 145.259 236.727 144.814 236.454C144.368 236.18 143.829 236.044 143.197 236.044C142.439 236.044 141.806 236.192 141.298 236.489C140.798 236.778 140.423 237.184 140.173 237.708C139.923 238.231 139.798 238.833 139.798 239.512H137.63C137.63 238.551 137.841 237.672 138.263 236.876C138.685 236.079 139.31 235.446 140.138 234.977C140.966 234.501 141.986 234.262 143.197 234.262C144.275 234.262 145.197 234.454 145.962 234.836C146.728 235.211 147.314 235.743 147.72 236.43C148.134 237.11 148.341 237.907 148.341 238.821C148.341 239.321 148.255 239.829 148.083 240.344C147.919 240.852 147.689 241.36 147.392 241.868C147.103 242.376 146.763 242.876 146.372 243.368C145.99 243.86 145.579 244.344 145.142 244.821L140.572 249.778H149.126Z" fill="white"/>
<path d="M199.126 249.778V251.559H187.958V250.001L193.548 243.778C194.236 243.012 194.767 242.364 195.142 241.833C195.525 241.294 195.79 240.813 195.939 240.391C196.095 239.961 196.173 239.524 196.173 239.079C196.173 238.516 196.056 238.008 195.822 237.555C195.595 237.094 195.259 236.727 194.814 236.454C194.368 236.18 193.829 236.044 193.197 236.044C192.439 236.044 191.806 236.192 191.298 236.489C190.798 236.778 190.423 237.184 190.173 237.708C189.923 238.231 189.798 238.833 189.798 239.512H187.63C187.63 238.551 187.841 237.672 188.263 236.876C188.685 236.079 189.31 235.446 190.138 234.977C190.966 234.501 191.986 234.262 193.197 234.262C194.275 234.262 195.197 234.454 195.962 234.836C196.728 235.211 197.314 235.743 197.72 236.43C198.134 237.11 198.341 237.907 198.341 238.821C198.341 239.321 198.255 239.829 198.083 240.344C197.919 240.852 197.689 241.36 197.392 241.868C197.103 242.376 196.763 242.876 196.372 243.368C195.99 243.86 195.579 244.344 195.142 244.821L190.572 249.778H199.126Z" fill="white"/>
<path d="M249.126 249.778V251.559H237.958V250.001L243.548 243.778C244.236 243.012 244.767 242.364 245.142 241.833C245.525 241.294 245.79 240.813 245.939 240.391C246.095 239.961 246.173 239.524 246.173 239.079C246.173 238.516 246.056 238.008 245.822 237.555C245.595 237.094 245.259 236.727 244.814 236.454C244.368 236.18 243.829 236.044 243.197 236.044C242.439 236.044 241.806 236.192 241.298 236.489C240.798 236.778 240.423 237.184 240.173 237.708C239.923 238.231 239.798 238.833 239.798 239.512H237.63C237.63 238.551 237.841 237.672 238.263 236.876C238.685 236.079 239.31 235.446 240.138 234.977C240.966 234.501 241.986 234.262 243.197 234.262C244.275 234.262 245.197 234.454 245.962 234.836C246.728 235.211 247.314 235.743 247.72 236.43C248.134 237.11 248.341 237.907 248.341 238.821C248.341 239.321 248.255 239.829 248.083 240.344C247.919 240.852 247.689 241.36 247.392 241.868C247.103 242.376 246.763 242.876 246.372 243.368C245.99 243.86 245.579 244.344 245.142 244.821L240.572 249.778H249.126Z" fill="white"/>
<path d="M299.126 249.778V251.559H287.958V250.001L293.548 243.778C294.236 243.012 294.767 242.364 295.142 241.833C295.525 241.294 295.79 240.813 295.939 240.391C296.095 239.961 296.173 239.524 296.173 239.079C296.173 238.516 296.056 238.008 295.822 237.555C295.595 237.094 295.259 236.727 294.814 236.454C294.368 236.18 293.829 236.044 293.197 236.044C292.439 236.044 291.806 236.192 291.298 236.489C290.798 236.778 290.423 237.184 290.173 237.708C289.923 238.231 289.798 238.833 289.798 239.512H287.63C287.63 238.551 287.841 237.672 288.263 236.876C288.685 236.079 289.31 235.446 290.138 234.977C290.966 234.501 291.986 234.262 293.197 234.262C294.275 234.262 295.197 234.454 295.962 234.836C296.728 235.211 297.314 235.743 297.72 236.43C298.134 237.11 298.341 237.907 298.341 238.821C298.341 239.321 298.255 239.829 298.083 240.344C297.919 240.852 297.689 241.36 297.392 241.868C297.103 242.376 296.763 242.876 296.372 243.368C295.99 243.86 295.579 244.344 295.142 244.821L290.572 249.778H299.126Z" fill="white"/>
<path d="M356.126 249.778V251.559H344.958V250.001L350.548 243.778C351.236 243.012 351.767 242.364 352.142 241.833C352.525 241.294 352.79 240.813 352.939 240.391C353.095 239.961 353.173 239.524 353.173 239.079C353.173 238.516 353.056 238.008 352.822 237.555C352.595 237.094 352.259 236.727 351.814 236.454C351.368 236.18 350.829 236.044 350.197 236.044C349.439 236.044 348.806 236.192 348.298 236.489C347.798 236.778 347.423 237.184 347.173 237.708C346.923 238.231 346.798 238.833 346.798 239.512H344.63C344.63 238.551 344.841 237.672 345.263 236.876C345.685 236.079 346.31 235.446 347.138 234.977C347.966 234.501 348.986 234.262 350.197 234.262C351.275 234.262 352.197 234.454 352.962 234.836C353.728 235.211 354.314 235.743 354.72 236.43C355.134 237.11 355.341 237.907 355.341 238.821C355.341 239.321 355.255 239.829 355.083 240.344C354.919 240.852 354.689 241.36 354.392 241.868C354.103 242.376 353.763 242.876 353.372 243.368C352.99 243.86 352.579 244.344 352.142 244.821L347.572 249.778H356.126Z" fill="white"/>
<path d="M408.126 249.778V251.559H396.958V250.001L402.548 243.778C403.236 243.012 403.767 242.364 404.142 241.833C404.525 241.294 404.79 240.813 404.939 240.391C405.095 239.961 405.173 239.524 405.173 239.079C405.173 238.516 405.056 238.008 404.822 237.555C404.595 237.094 404.259 236.727 403.814 236.454C403.368 236.18 402.829 236.044 402.197 236.044C401.439 236.044 400.806 236.192 400.298 236.489C399.798 236.778 399.423 237.184 399.173 237.708C398.923 238.231 398.798 238.833 398.798 239.512H396.63C396.63 238.551 396.841 237.672 397.263 236.876C397.685 236.079 398.31 235.446 399.138 234.977C399.966 234.501 400.986 234.262 402.197 234.262C403.275 234.262 404.197 234.454 404.962 234.836C405.728 235.211 406.314 235.743 406.72 236.43C407.134 237.11 407.341 237.907 407.341 238.821C407.341 239.321 407.255 239.829 407.083 240.344C406.919 240.852 406.689 241.36 406.392 241.868C406.103 242.376 405.763 242.876 405.372 243.368C404.99 243.86 404.579 244.344 404.142 244.821L399.572 249.778H408.126Z" fill="white"/>
<path d="M416.615 229.008V230.743C416.615 231.675 416.531 232.461 416.365 233.102C416.198 233.743 415.958 234.258 415.646 234.649C415.333 235.039 414.956 235.323 414.513 235.5C414.076 235.672 413.581 235.758 413.029 235.758C412.591 235.758 412.187 235.704 411.818 235.594C411.448 235.485 411.115 235.31 410.818 235.071C410.526 234.826 410.276 234.508 410.068 234.118C409.859 233.727 409.701 233.253 409.591 232.696C409.482 232.138 409.427 231.487 409.427 230.743V229.008C409.427 228.076 409.51 227.295 409.677 226.664C409.849 226.034 410.091 225.529 410.404 225.149C410.716 224.763 411.091 224.487 411.529 224.321C411.971 224.154 412.466 224.071 413.013 224.071C413.456 224.071 413.862 224.125 414.232 224.235C414.607 224.339 414.94 224.508 415.232 224.743C415.523 224.972 415.771 225.279 415.974 225.664C416.182 226.045 416.341 226.511 416.451 227.063C416.56 227.615 416.615 228.263 416.615 229.008ZM415.161 230.977V228.766C415.161 228.256 415.13 227.808 415.068 227.422C415.01 227.032 414.924 226.698 414.81 226.422C414.695 226.146 414.549 225.922 414.372 225.75C414.201 225.579 414 225.454 413.771 225.375C413.547 225.292 413.294 225.25 413.013 225.25C412.669 225.25 412.365 225.316 412.099 225.446C411.833 225.571 411.609 225.771 411.427 226.047C411.25 226.323 411.115 226.685 411.021 227.133C410.927 227.581 410.88 228.125 410.88 228.766V230.977C410.88 231.487 410.909 231.938 410.966 232.329C411.029 232.719 411.12 233.058 411.24 233.344C411.359 233.625 411.505 233.857 411.677 234.039C411.849 234.222 412.047 234.357 412.271 234.446C412.5 234.529 412.753 234.571 413.029 234.571C413.383 234.571 413.693 234.503 413.958 234.368C414.224 234.232 414.445 234.021 414.622 233.735C414.805 233.443 414.94 233.071 415.029 232.618C415.117 232.159 415.161 231.612 415.161 230.977Z" fill="white"/>
<path d="M362.224 224.164V235.602H360.779V225.969L357.865 227.032V225.727L361.997 224.164H362.224Z" fill="white"/>
<path d="M307.927 234.414V235.602H300.482V234.563L304.208 230.414C304.667 229.904 305.021 229.472 305.271 229.118C305.526 228.758 305.703 228.438 305.802 228.157C305.906 227.87 305.958 227.579 305.958 227.282C305.958 226.907 305.88 226.568 305.724 226.266C305.573 225.959 305.349 225.714 305.052 225.532C304.755 225.349 304.396 225.258 303.974 225.258C303.469 225.258 303.047 225.357 302.708 225.555C302.375 225.748 302.125 226.019 301.958 226.368C301.792 226.717 301.708 227.118 301.708 227.571H300.263C300.263 226.93 300.404 226.344 300.685 225.813C300.966 225.282 301.383 224.86 301.935 224.547C302.487 224.23 303.167 224.071 303.974 224.071C304.693 224.071 305.307 224.198 305.818 224.454C306.328 224.704 306.719 225.058 306.99 225.516C307.266 225.969 307.404 226.5 307.404 227.11C307.404 227.443 307.346 227.782 307.232 228.125C307.122 228.464 306.969 228.803 306.771 229.141C306.578 229.48 306.352 229.813 306.091 230.141C305.836 230.469 305.562 230.792 305.271 231.11L302.224 234.414H307.927Z" fill="white"/>
<path d="M250.583 229.204H251.615C252.12 229.204 252.536 229.12 252.865 228.954C253.198 228.782 253.445 228.55 253.607 228.258C253.773 227.961 253.857 227.628 253.857 227.258C253.857 226.821 253.784 226.454 253.638 226.157C253.492 225.86 253.273 225.636 252.982 225.485C252.69 225.334 252.32 225.258 251.872 225.258C251.466 225.258 251.107 225.339 250.794 225.5C250.487 225.657 250.245 225.881 250.068 226.172C249.896 226.464 249.81 226.808 249.81 227.204H248.365C248.365 226.625 248.51 226.099 248.802 225.625C249.094 225.151 249.503 224.774 250.029 224.493C250.56 224.211 251.174 224.071 251.872 224.071C252.56 224.071 253.161 224.193 253.677 224.438C254.193 224.678 254.594 225.037 254.88 225.516C255.167 225.99 255.31 226.581 255.31 227.289C255.31 227.576 255.242 227.883 255.107 228.211C254.977 228.534 254.771 228.836 254.49 229.118C254.214 229.399 253.854 229.631 253.411 229.813C252.969 229.99 252.437 230.079 251.818 230.079H250.583V229.204ZM250.583 230.391V229.524H251.818C252.542 229.524 253.141 229.61 253.615 229.782C254.089 229.954 254.461 230.183 254.732 230.469C255.008 230.756 255.201 231.071 255.31 231.414C255.424 231.753 255.482 232.092 255.482 232.43C255.482 232.961 255.391 233.433 255.208 233.844C255.031 234.256 254.779 234.605 254.451 234.891C254.128 235.178 253.747 235.394 253.31 235.539C252.872 235.685 252.396 235.758 251.88 235.758C251.385 235.758 250.919 235.688 250.482 235.547C250.049 235.407 249.667 235.204 249.333 234.938C249 234.667 248.74 234.336 248.552 233.946C248.365 233.55 248.271 233.099 248.271 232.594H249.716C249.716 232.99 249.802 233.336 249.974 233.633C250.151 233.93 250.401 234.162 250.724 234.329C251.052 234.49 251.437 234.571 251.88 234.571C252.323 234.571 252.703 234.495 253.021 234.344C253.344 234.188 253.591 233.954 253.763 233.641C253.94 233.329 254.029 232.935 254.029 232.461C254.029 231.987 253.93 231.599 253.732 231.297C253.534 230.99 253.253 230.763 252.888 230.618C252.529 230.467 252.104 230.391 251.615 230.391H250.583Z" fill="white"/>
<path d="M208.161 231.774V232.961H199.943V232.11L205.036 224.227H206.216L204.951 226.508L201.583 231.774H208.161ZM206.576 224.227V235.602H205.13V224.227H206.576Z" fill="white"/>
<path d="M152.302 230.188L151.146 229.891L151.716 224.227H157.552V225.563H152.943L152.599 228.657C152.807 228.537 153.07 228.425 153.388 228.321C153.711 228.217 154.081 228.164 154.497 228.164C155.023 228.164 155.495 228.256 155.911 228.438C156.328 228.615 156.682 228.87 156.974 229.204C157.271 229.537 157.497 229.938 157.654 230.407C157.81 230.875 157.888 231.399 157.888 231.977C157.888 232.524 157.812 233.026 157.661 233.485C157.516 233.943 157.294 234.344 156.997 234.688C156.701 235.026 156.326 235.289 155.872 235.477C155.424 235.664 154.896 235.758 154.286 235.758C153.828 235.758 153.393 235.696 152.982 235.571C152.576 235.441 152.211 235.245 151.888 234.985C151.57 234.719 151.31 234.391 151.107 234C150.909 233.605 150.784 233.141 150.732 232.61H152.107C152.169 233.037 152.294 233.396 152.482 233.688C152.669 233.98 152.914 234.201 153.216 234.352C153.523 234.498 153.88 234.571 154.286 234.571C154.63 234.571 154.935 234.511 155.201 234.391C155.466 234.271 155.69 234.099 155.872 233.875C156.055 233.651 156.193 233.381 156.286 233.063C156.385 232.745 156.435 232.388 156.435 231.993C156.435 231.633 156.385 231.3 156.286 230.993C156.187 230.685 156.039 230.417 155.841 230.188C155.648 229.959 155.411 229.782 155.13 229.657C154.849 229.526 154.526 229.461 154.161 229.461C153.677 229.461 153.31 229.526 153.06 229.657C152.815 229.787 152.562 229.964 152.302 230.188Z" fill="white"/>
<path d="M112.021 224.211H112.146V225.438H112.021C111.255 225.438 110.615 225.563 110.099 225.813C109.583 226.058 109.174 226.388 108.872 226.805C108.57 227.217 108.352 227.68 108.216 228.196C108.086 228.711 108.021 229.235 108.021 229.766V231.438C108.021 231.943 108.081 232.391 108.201 232.782C108.32 233.167 108.484 233.493 108.693 233.758C108.901 234.024 109.135 234.224 109.396 234.36C109.661 234.495 109.937 234.563 110.224 234.563C110.557 234.563 110.854 234.5 111.115 234.375C111.375 234.245 111.594 234.066 111.771 233.836C111.953 233.602 112.091 233.326 112.185 233.008C112.279 232.691 112.326 232.342 112.326 231.961C112.326 231.623 112.284 231.297 112.201 230.985C112.117 230.667 111.99 230.386 111.818 230.141C111.646 229.891 111.43 229.696 111.169 229.555C110.914 229.409 110.609 229.336 110.255 229.336C109.854 229.336 109.479 229.435 109.13 229.633C108.786 229.826 108.503 230.081 108.279 230.399C108.06 230.711 107.935 231.053 107.904 231.422L107.138 231.414C107.211 230.831 107.346 230.334 107.544 229.922C107.747 229.506 107.997 229.167 108.294 228.907C108.596 228.641 108.932 228.448 109.302 228.329C109.677 228.204 110.073 228.141 110.49 228.141C111.057 228.141 111.547 228.248 111.958 228.461C112.37 228.675 112.708 228.961 112.974 229.321C113.24 229.675 113.435 230.076 113.56 230.524C113.69 230.967 113.755 231.422 113.755 231.891C113.755 232.428 113.68 232.93 113.529 233.399C113.378 233.868 113.151 234.279 112.849 234.633C112.552 234.987 112.185 235.263 111.747 235.461C111.31 235.659 110.802 235.758 110.224 235.758C109.609 235.758 109.073 235.633 108.615 235.383C108.156 235.128 107.776 234.789 107.474 234.368C107.172 233.946 106.945 233.477 106.794 232.961C106.643 232.446 106.568 231.922 106.568 231.391V230.711C106.568 229.909 106.648 229.123 106.81 228.352C106.971 227.581 107.25 226.883 107.646 226.258C108.047 225.633 108.602 225.136 109.31 224.766C110.018 224.396 110.922 224.211 112.021 224.211Z" fill="white"/>
<path d="M69.8255 224.227V225.039L65.1146 235.602H63.5911L68.2943 225.414H62.138V224.227H69.8255Z" fill="white"/>
<path d="M450.083 186.391V188.277H440.31V186.391H450.083ZM450.083 191.254V193.141H440.31V191.254H450.083ZM466.197 180.66V197.816H464.029V183.367L459.658 184.961V183.004L465.857 180.66H466.197ZM483.751 196.035V197.816H472.583V196.258L478.173 190.035C478.861 189.269 479.392 188.621 479.767 188.09C480.15 187.551 480.415 187.07 480.564 186.648C480.72 186.219 480.798 185.781 480.798 185.336C480.798 184.773 480.681 184.266 480.447 183.812C480.22 183.352 479.884 182.984 479.439 182.711C478.993 182.437 478.454 182.301 477.822 182.301C477.064 182.301 476.431 182.449 475.923 182.746C475.423 183.035 475.048 183.441 474.798 183.965C474.548 184.488 474.423 185.09 474.423 185.769H472.255C472.255 184.809 472.466 183.93 472.888 183.133C473.31 182.336 473.935 181.703 474.763 181.234C475.591 180.758 476.611 180.519 477.822 180.519C478.9 180.519 479.822 180.711 480.587 181.094C481.353 181.469 481.939 182 482.345 182.687C482.759 183.367 482.966 184.164 482.966 185.078C482.966 185.578 482.88 186.086 482.708 186.602C482.544 187.109 482.314 187.617 482.017 188.125C481.728 188.633 481.388 189.133 480.997 189.625C480.615 190.117 480.204 190.602 479.767 191.078L475.197 196.035H483.751Z" fill="white"/>
<path d="M447.939 159.06C448.525 159.646 449.475 159.646 450.061 159.06L459.607 149.514C460.192 148.928 460.192 147.978 459.607 147.392C459.021 146.807 458.071 146.807 457.485 147.392L449 155.878L440.515 147.392C439.929 146.807 438.979 146.807 438.393 147.392C437.808 147.978 437.808 148.928 438.393 149.514L447.939 159.06ZM447.5 65.9991V157.999H450.5V65.9991H447.5Z" fill="#D1D5DB"/>
<path d="M481.738 113.91H481.926V115.75H481.738C480.59 115.75 479.629 115.937 478.855 116.312C478.082 116.68 477.469 117.176 477.016 117.801C476.562 118.418 476.234 119.113 476.031 119.887C475.836 120.66 475.738 121.445 475.738 122.242V124.75C475.738 125.508 475.828 126.18 476.008 126.766C476.188 127.344 476.434 127.832 476.746 128.23C477.059 128.629 477.41 128.93 477.801 129.133C478.199 129.336 478.613 129.437 479.043 129.437C479.543 129.437 479.988 129.344 480.379 129.156C480.77 128.961 481.098 128.691 481.363 128.348C481.637 127.996 481.844 127.582 481.984 127.105C482.125 126.629 482.195 126.105 482.195 125.535C482.195 125.027 482.133 124.539 482.008 124.07C481.883 123.594 481.691 123.172 481.434 122.805C481.176 122.43 480.852 122.137 480.461 121.926C480.078 121.707 479.621 121.598 479.09 121.598C478.488 121.598 477.926 121.746 477.402 122.043C476.887 122.332 476.461 122.715 476.125 123.191C475.797 123.66 475.609 124.172 475.562 124.726L474.414 124.715C474.523 123.84 474.727 123.094 475.023 122.476C475.328 121.851 475.703 121.344 476.148 120.953C476.602 120.555 477.105 120.266 477.66 120.086C478.223 119.898 478.816 119.805 479.441 119.805C480.293 119.805 481.027 119.965 481.645 120.285C482.262 120.605 482.77 121.035 483.168 121.574C483.566 122.105 483.859 122.707 484.047 123.379C484.242 124.043 484.34 124.726 484.34 125.43C484.34 126.234 484.227 126.988 484 127.691C483.773 128.394 483.434 129.012 482.98 129.543C482.535 130.074 481.984 130.488 481.328 130.785C480.672 131.082 479.91 131.23 479.043 131.23C478.121 131.23 477.316 131.043 476.629 130.668C475.941 130.285 475.371 129.777 474.918 129.144C474.465 128.512 474.125 127.808 473.898 127.035C473.672 126.262 473.559 125.476 473.559 124.68V123.66C473.559 122.457 473.68 121.277 473.922 120.121C474.164 118.965 474.582 117.918 475.176 116.98C475.777 116.043 476.609 115.297 477.672 114.742C478.734 114.187 480.09 113.91 481.738 113.91ZM487.832 123.121L495.93 126.402V128.699L486.344 124.258V122.91L487.832 123.121ZM495.93 120.426L487.844 123.754L486.344 123.918V122.558L495.93 118.129V120.426ZM500.043 123.121L508.141 126.402V128.699L498.555 124.258V122.91L500.043 123.121ZM508.141 120.426L500.055 123.754L498.555 123.918V122.558L508.141 118.129V120.426ZM518.465 113.84V130.996H516.297V116.547L511.926 118.141V116.183L518.125 113.84H518.465Z" fill="white"/>
<path d="M369.499 26.4145C368.718 26.6902 367.861 26.2804 367.585 25.4991L363.093 12.7685C362.817 11.9873 363.227 11.1305 364.009 10.8549C364.79 10.5792 365.646 10.989 365.922 11.7702L369.915 23.0863L381.231 19.0931C382.013 18.8175 382.869 19.2273 383.145 20.0085C383.421 20.7897 383.011 21.6465 382.23 21.9222L369.499 26.4145ZM411.78 25.8728C406.643 18.6936 402.357 13.1555 398.577 9.36013C394.761 5.52735 391.693 3.71441 389.017 3.51809C386.458 3.33038 383.794 4.60414 380.687 8.21056C377.574 11.823 374.233 17.5361 370.353 25.6473L367.647 24.3527C371.549 16.194 375.03 10.1803 378.414 6.25236C381.803 2.31841 385.311 0.238183 389.237 0.526133C393.045 0.805483 396.774 3.29785 400.703 7.24329C404.669 11.2261 409.077 16.9391 414.22 24.1272L411.78 25.8728Z" fill="#D1D5DB"/>
<path d="M313.499 26.4145C312.718 26.6902 311.861 26.2804 311.585 25.4991L307.093 12.7685C306.817 11.9873 307.227 11.1305 308.009 10.8549C308.79 10.5792 309.646 10.989 309.922 11.7702L313.915 23.0863L325.231 19.0931C326.013 18.8175 326.869 19.2273 327.145 20.0085C327.421 20.7897 327.011 21.6465 326.23 21.9222L313.499 26.4145ZM355.78 25.8728C350.643 18.6936 346.357 13.1555 342.577 9.36013C338.761 5.52735 335.693 3.71441 333.017 3.51809C330.458 3.33038 327.794 4.60414 324.687 8.21056C321.574 11.823 318.233 17.5361 314.353 25.6473L311.647 24.3527C315.549 16.194 319.03 10.1803 322.414 6.25236C325.803 2.31841 329.311 0.238183 333.237 0.526133C337.045 0.805483 340.774 3.29785 344.703 7.24329C348.669 11.2261 353.077 16.9391 358.22 24.1272L355.78 25.8728Z" fill="#D1D5DB"/>
<path d="M261.499 26.4145C260.718 26.6902 259.861 26.2804 259.585 25.4991L255.093 12.7685C254.817 11.9873 255.227 11.1305 256.009 10.8549C256.79 10.5792 257.646 10.989 257.922 11.7702L261.915 23.0863L273.231 19.0931C274.013 18.8175 274.869 19.2273 275.145 20.0085C275.421 20.7897 275.011 21.6465 274.23 21.9222L261.499 26.4145ZM303.78 25.8728C298.643 18.6936 294.357 13.1555 290.577 9.36013C286.761 5.52735 283.693 3.71441 281.017 3.51809C278.458 3.33038 275.794 4.60414 272.687 8.21056C269.574 11.823 266.233 17.5361 262.353 25.6473L259.647 24.3527C263.549 16.194 267.03 10.1803 270.414 6.25236C273.803 2.31841 277.311 0.238183 281.237 0.526133C285.045 0.805483 288.774 3.29785 292.703 7.24329C296.669 11.2261 301.077 16.9391 306.22 24.1272L303.78 25.8728Z" fill="#D1D5DB"/>
<path d="M208.499 26.4145C207.718 26.6902 206.861 26.2804 206.585 25.4991L202.093 12.7685C201.817 11.9873 202.227 11.1305 203.009 10.8549C203.79 10.5792 204.646 10.989 204.922 11.7702L208.915 23.0863L220.231 19.0931C221.013 18.8175 221.869 19.2273 222.145 20.0085C222.421 20.7897 222.011 21.6465 221.23 21.9222L208.499 26.4145ZM250.78 25.8728C245.643 18.6936 241.357 13.1555 237.577 9.36013C233.761 5.52735 230.693 3.71441 228.017 3.51809C225.458 3.33038 222.794 4.60414 219.687 8.21056C216.574 11.823 213.233 17.5361 209.353 25.6473L206.647 24.3527C210.549 16.194 214.03 10.1803 217.414 6.25236C220.803 2.31841 224.311 0.238183 228.237 0.526133C232.045 0.805483 235.774 3.29785 239.703 7.24329C243.669 11.2261 248.077 16.9391 253.22 24.1272L250.78 25.8728Z" fill="#D1D5DB"/>
<path d="M155.499 26.4145C154.718 26.6902 153.861 26.2804 153.585 25.4991L149.093 12.7685C148.817 11.9873 149.227 11.1305 150.009 10.8549C150.79 10.5792 151.646 10.989 151.922 11.7702L155.915 23.0863L167.231 19.0931C168.013 18.8175 168.869 19.2273 169.145 20.0085C169.421 20.7897 169.011 21.6465 168.23 21.9222L155.499 26.4145ZM197.78 25.8728C192.643 18.6936 188.357 13.1555 184.577 9.36013C180.761 5.52735 177.693 3.71441 175.017 3.51809C172.458 3.33038 169.794 4.60413 166.687 8.21056C163.574 11.823 160.233 17.5361 156.353 25.6473L153.647 24.3527C157.549 16.1939 161.03 10.1803 164.414 6.25236C167.803 2.31841 171.311 0.23818 175.237 0.526131C179.045 0.805481 182.774 3.29785 186.703 7.24329C190.669 11.2261 195.077 16.9391 200.22 24.1272L197.78 25.8728Z" fill="#D1D5DB"/>
<path d="M104.499 26.4145C103.718 26.6902 102.861 26.2804 102.585 25.4991L98.0931 12.7685C97.8175 11.9873 98.2273 11.1305 99.0085 10.8549C99.7897 10.5792 100.646 10.989 100.922 11.7702L104.915 23.0863L116.231 19.0931C117.013 18.8175 117.869 19.2273 118.145 20.0085C118.421 20.7897 118.011 21.6465 117.23 21.9222L104.499 26.4145ZM146.78 25.8728C141.643 18.6936 137.357 13.1555 133.577 9.36013C129.761 5.52735 126.693 3.71441 124.017 3.51809C121.458 3.33038 118.794 4.60414 115.687 8.21056C112.574 11.823 109.233 17.5361 105.353 25.6473L102.647 24.3527C106.549 16.194 110.03 10.1803 113.414 6.25236C116.803 2.31841 120.311 0.238183 124.237 0.526133C128.045 0.805483 131.774 3.29785 135.703 7.24329C139.669 11.2261 144.077 16.9391 149.22 24.1272L146.78 25.8728Z" fill="#D1D5DB"/>
<path d="M6.49915 26.4145C5.71793 26.6902 4.86116 26.2804 4.58549 25.4991L0.0931437 12.7685C-0.182529 11.9873 0.227294 11.1305 1.00851 10.8549C1.78972 10.5792 2.6465 10.989 2.92217 11.7702L6.91536 23.0863L18.2315 19.0931C19.0127 18.8175 19.8695 19.2273 20.1451 20.0085C20.4208 20.7897 20.011 21.6465 19.2298 21.9222L6.49915 26.4145ZM48.7801 25.8728C43.6433 18.6936 39.3567 13.1555 35.5773 9.36013C31.7606 5.52735 28.6934 3.71441 26.0172 3.51809C23.4582 3.33038 20.7938 4.60414 17.6866 8.21056C14.5741 11.823 11.233 17.5361 7.35316 25.6473L4.64684 24.3527C8.54944 16.194 12.0295 10.1803 15.4138 6.25236C18.8033 2.31841 22.3112 0.238183 26.2366 0.526133C30.0448 0.805483 33.7742 3.29785 37.703 7.24329C41.6691 11.2261 46.0768 16.9391 51.2199 24.1272L48.7801 25.8728Z" fill="#D1D5DB"/>
<path d="M57.4991 26.4145C56.7179 26.6902 55.8612 26.2804 55.5855 25.4991L51.0931 12.7685C50.8175 11.9873 51.2273 11.1305 52.0085 10.8549C52.7897 10.5792 53.6465 10.989 53.9222 11.7702L57.9154 23.0863L69.2315 19.0931C70.0127 18.8175 70.8695 19.2273 71.1451 20.0085C71.4208 20.7897 71.011 21.6465 70.2298 21.9222L57.4991 26.4145ZM99.7801 25.8728C94.6433 18.6936 90.3567 13.1555 86.5773 9.36013C82.7606 5.52735 79.6934 3.71441 77.0172 3.51809C74.4582 3.33038 71.7938 4.60414 68.6866 8.21056C65.5741 11.823 62.233 17.5361 58.3532 25.6473L55.6468 24.3527C59.5494 16.194 63.0295 10.1803 66.4138 6.25236C69.8033 2.31841 73.3112 0.238183 77.2366 0.526133C81.0448 0.805483 84.7742 3.29785 88.703 7.24329C92.6691 11.2261 97.0768 16.9391 102.22 24.1272L99.7801 25.8728Z" fill="#D1D5DB"/>
</svg>
