<svg width="488" height="254" viewBox="0 0 488 254" fill="none" xmlns="http://www.w3.org/2000/svg">
<rect x="1.02863" y="25.0437" width="389" height="40.7999" stroke="#D1D5DB"/>
<line x1="182.029" y1="66.3436" x2="182.029" y2="24.5437" stroke="#D1D5DB"/>
<line x1="234.029" y1="66.3436" x2="234.029" y2="24.5437" stroke="#D1D5DB"/>
<line x1="286.029" y1="66.3436" x2="286.029" y2="24.5437" stroke="#D1D5DB"/>
<line x1="343.029" y1="66.3436" x2="343.029" y2="24.5437" stroke="#D1D5DB"/>
<line x1="87.0286" y1="66.3436" x2="87.0286" y2="24.5437" stroke="#D1D5DB"/>
<line x1="133.029" y1="66.3436" x2="133.029" y2="24.5437" stroke="#D1D5DB"/>
<path d="M42.5286 66.3436L42.5286 24.5437" stroke="#D1D5DB"/>
<path d="M67.6575 45.4019V48.0035C67.6575 49.4019 67.5325 50.5816 67.2825 51.5425C67.0325 52.5035 66.6732 53.2769 66.2044 53.8629C65.7357 54.4488 65.1693 54.8746 64.5052 55.1402C63.8489 55.398 63.1068 55.5269 62.2786 55.5269C61.6224 55.5269 61.0169 55.4449 60.4622 55.2808C59.9075 55.1168 59.4075 54.855 58.9622 54.4957C58.5247 54.1285 58.1497 53.6519 57.8372 53.066C57.5247 52.48 57.2864 51.7691 57.1224 50.9332C56.9583 50.0972 56.8763 49.1207 56.8763 48.0035V45.4019C56.8763 44.0035 57.0013 42.8316 57.2513 41.8863C57.5091 40.941 57.8724 40.1832 58.3411 39.6129C58.8099 39.0347 59.3724 38.6207 60.0286 38.3707C60.6927 38.1207 61.4349 37.9957 62.2552 37.9957C62.9193 37.9957 63.5286 38.0777 64.0833 38.2418C64.6458 38.398 65.1458 38.6519 65.5833 39.0035C66.0208 39.3472 66.3919 39.8082 66.6966 40.3863C67.0091 40.9566 67.2474 41.6558 67.4114 42.4839C67.5755 43.3121 67.6575 44.2847 67.6575 45.4019ZM65.4778 48.355V45.0386C65.4778 44.273 65.431 43.6011 65.3372 43.023C65.2513 42.4371 65.1224 41.9371 64.9505 41.523C64.7786 41.1089 64.5599 40.773 64.2943 40.5152C64.0364 40.2574 63.7357 40.0699 63.3919 39.9527C63.056 39.8277 62.6771 39.7652 62.2552 39.7652C61.7396 39.7652 61.2825 39.8629 60.8841 40.0582C60.4857 40.2457 60.1497 40.5464 59.8763 40.9605C59.6107 41.3746 59.4075 41.9175 59.2669 42.5894C59.1263 43.2613 59.056 44.0777 59.056 45.0386V48.355C59.056 49.1207 59.0989 49.7964 59.1849 50.3824C59.2786 50.9683 59.4153 51.4761 59.595 51.9058C59.7747 52.3277 59.9935 52.6754 60.2513 52.9488C60.5091 53.2222 60.806 53.4254 61.1419 53.5582C61.4857 53.6832 61.8646 53.7457 62.2786 53.7457C62.8099 53.7457 63.2747 53.6441 63.6732 53.441C64.0716 53.2379 64.4036 52.9214 64.6693 52.4918C64.9427 52.0543 65.1458 51.4957 65.2786 50.816C65.4114 50.1285 65.4778 49.3082 65.4778 48.355Z" fill="white"/>
<path d="M111.658 45.4019V48.0035C111.658 49.4019 111.533 50.5816 111.283 51.5425C111.033 52.5035 110.673 53.2769 110.204 53.8629C109.736 54.4488 109.169 54.8746 108.505 55.1402C107.849 55.398 107.107 55.5269 106.279 55.5269C105.622 55.5269 105.017 55.4449 104.462 55.2808C103.908 55.1168 103.408 54.855 102.962 54.4957C102.525 54.1285 102.15 53.6519 101.837 53.066C101.525 52.48 101.286 51.7691 101.122 50.9332C100.958 50.0972 100.876 49.1207 100.876 48.0035V45.4019C100.876 44.0035 101.001 42.8316 101.251 41.8863C101.509 40.941 101.872 40.1832 102.341 39.6129C102.81 39.0347 103.372 38.6207 104.029 38.3707C104.693 38.1207 105.435 37.9957 106.255 37.9957C106.919 37.9957 107.529 38.0777 108.083 38.2418C108.646 38.398 109.146 38.6519 109.583 39.0035C110.021 39.3472 110.392 39.8082 110.697 40.3863C111.009 40.9566 111.247 41.6558 111.411 42.4839C111.576 43.3121 111.658 44.2847 111.658 45.4019ZM109.478 48.355V45.0386C109.478 44.273 109.431 43.6011 109.337 43.023C109.251 42.4371 109.122 41.9371 108.951 41.523C108.779 41.1089 108.56 40.773 108.294 40.5152C108.036 40.2574 107.736 40.0699 107.392 39.9527C107.056 39.8277 106.677 39.7652 106.255 39.7652C105.74 39.7652 105.283 39.8629 104.884 40.0582C104.486 40.2457 104.15 40.5464 103.876 40.9605C103.611 41.3746 103.408 41.9175 103.267 42.5894C103.126 43.2613 103.056 44.0777 103.056 45.0386V48.355C103.056 49.1207 103.099 49.7964 103.185 50.3824C103.279 50.9683 103.415 51.4761 103.595 51.9058C103.775 52.3277 103.993 52.6754 104.251 52.9488C104.509 53.2222 104.806 53.4254 105.142 53.5582C105.486 53.6832 105.865 53.7457 106.279 53.7457C106.81 53.7457 107.275 53.6441 107.673 53.441C108.072 53.2379 108.404 52.9214 108.669 52.4918C108.943 52.0543 109.146 51.4957 109.279 50.816C109.411 50.1285 109.478 49.3082 109.478 48.355Z" fill="white"/>
<path d="M161.658 45.4019V48.0035C161.658 49.4019 161.533 50.5816 161.283 51.5425C161.033 52.5035 160.673 53.2769 160.204 53.8629C159.736 54.4488 159.169 54.8746 158.505 55.1402C157.849 55.398 157.107 55.5269 156.279 55.5269C155.622 55.5269 155.017 55.4449 154.462 55.2808C153.908 55.1168 153.408 54.855 152.962 54.4957C152.525 54.1285 152.15 53.6519 151.837 53.066C151.525 52.48 151.286 51.7691 151.122 50.9332C150.958 50.0972 150.876 49.1207 150.876 48.0035V45.4019C150.876 44.0035 151.001 42.8316 151.251 41.8863C151.509 40.941 151.872 40.1832 152.341 39.6129C152.81 39.0347 153.372 38.6207 154.029 38.3707C154.693 38.1207 155.435 37.9957 156.255 37.9957C156.919 37.9957 157.529 38.0777 158.083 38.2418C158.646 38.398 159.146 38.6519 159.583 39.0035C160.021 39.3472 160.392 39.8082 160.697 40.3863C161.009 40.9566 161.247 41.6558 161.411 42.4839C161.576 43.3121 161.658 44.2847 161.658 45.4019ZM159.478 48.355V45.0386C159.478 44.273 159.431 43.6011 159.337 43.023C159.251 42.4371 159.122 41.9371 158.951 41.523C158.779 41.1089 158.56 40.773 158.294 40.5152C158.036 40.2574 157.736 40.0699 157.392 39.9527C157.056 39.8277 156.677 39.7652 156.255 39.7652C155.74 39.7652 155.283 39.8629 154.884 40.0582C154.486 40.2457 154.15 40.5464 153.876 40.9605C153.611 41.3746 153.408 41.9175 153.267 42.5894C153.126 43.2613 153.056 44.0777 153.056 45.0386V48.355C153.056 49.1207 153.099 49.7964 153.185 50.3824C153.279 50.9683 153.415 51.4761 153.595 51.9058C153.775 52.3277 153.993 52.6754 154.251 52.9488C154.509 53.2222 154.806 53.4254 155.142 53.5582C155.486 53.6832 155.865 53.7457 156.279 53.7457C156.81 53.7457 157.275 53.6441 157.673 53.441C158.072 53.2379 158.404 52.9214 158.669 52.4918C158.943 52.0543 159.146 51.4957 159.279 50.816C159.411 50.1285 159.478 49.3082 159.478 48.355Z" fill="white"/>
<path d="M211.658 45.4019V48.0035C211.658 49.4019 211.533 50.5816 211.283 51.5425C211.033 52.5035 210.673 53.2769 210.204 53.8629C209.736 54.4488 209.169 54.8746 208.505 55.1402C207.849 55.398 207.107 55.5269 206.279 55.5269C205.622 55.5269 205.017 55.4449 204.462 55.2808C203.908 55.1168 203.408 54.855 202.962 54.4957C202.525 54.1285 202.15 53.6519 201.837 53.066C201.525 52.48 201.286 51.7691 201.122 50.9332C200.958 50.0972 200.876 49.1207 200.876 48.0035V45.4019C200.876 44.0035 201.001 42.8316 201.251 41.8863C201.509 40.941 201.872 40.1832 202.341 39.6129C202.81 39.0347 203.372 38.6207 204.029 38.3707C204.693 38.1207 205.435 37.9957 206.255 37.9957C206.919 37.9957 207.529 38.0777 208.083 38.2418C208.646 38.398 209.146 38.6519 209.583 39.0035C210.021 39.3472 210.392 39.8082 210.697 40.3863C211.009 40.9566 211.247 41.6558 211.411 42.4839C211.576 43.3121 211.658 44.2847 211.658 45.4019ZM209.478 48.355V45.0386C209.478 44.273 209.431 43.6011 209.337 43.023C209.251 42.4371 209.122 41.9371 208.951 41.523C208.779 41.1089 208.56 40.773 208.294 40.5152C208.036 40.2574 207.736 40.0699 207.392 39.9527C207.056 39.8277 206.677 39.7652 206.255 39.7652C205.74 39.7652 205.283 39.8629 204.884 40.0582C204.486 40.2457 204.15 40.5464 203.876 40.9605C203.611 41.3746 203.408 41.9175 203.267 42.5894C203.126 43.2613 203.056 44.0777 203.056 45.0386V48.355C203.056 49.1207 203.099 49.7964 203.185 50.3824C203.279 50.9683 203.415 51.4761 203.595 51.9058C203.775 52.3277 203.993 52.6754 204.251 52.9488C204.509 53.2222 204.806 53.4254 205.142 53.5582C205.486 53.6832 205.865 53.7457 206.279 53.7457C206.81 53.7457 207.275 53.6441 207.673 53.441C208.072 53.2379 208.404 52.9214 208.669 52.4918C208.943 52.0543 209.146 51.4957 209.279 50.816C209.411 50.1285 209.478 49.3082 209.478 48.355Z" fill="white"/>
<path d="M258.072 38.1363V55.2925H255.904V40.8433L251.533 42.4371V40.48L257.732 38.1363H258.072Z" fill="white"/>
<path d="M315.072 38.1363V55.2925H312.904V40.8433L308.533 42.4371V40.48L314.732 38.1363H315.072Z" fill="white"/>
<path d="M370.658 45.4019V48.0035C370.658 49.4019 370.533 50.5816 370.283 51.5425C370.033 52.5035 369.673 53.2769 369.204 53.8629C368.736 54.4488 368.169 54.8746 367.505 55.1402C366.849 55.398 366.107 55.5269 365.279 55.5269C364.622 55.5269 364.017 55.4449 363.462 55.2808C362.908 55.1168 362.408 54.855 361.962 54.4957C361.525 54.1285 361.15 53.6519 360.837 53.066C360.525 52.48 360.286 51.7691 360.122 50.9332C359.958 50.0972 359.876 49.1207 359.876 48.0035V45.4019C359.876 44.0035 360.001 42.8316 360.251 41.8863C360.509 40.941 360.872 40.1832 361.341 39.6129C361.81 39.0347 362.372 38.6207 363.029 38.3707C363.693 38.1207 364.435 37.9957 365.255 37.9957C365.919 37.9957 366.529 38.0777 367.083 38.2418C367.646 38.398 368.146 38.6519 368.583 39.0035C369.021 39.3472 369.392 39.8082 369.697 40.3863C370.009 40.9566 370.247 41.6558 370.411 42.4839C370.576 43.3121 370.658 44.2847 370.658 45.4019ZM368.478 48.355V45.0386C368.478 44.273 368.431 43.6011 368.337 43.023C368.251 42.4371 368.122 41.9371 367.951 41.523C367.779 41.1089 367.56 40.773 367.294 40.5152C367.036 40.2574 366.736 40.0699 366.392 39.9527C366.056 39.8277 365.677 39.7652 365.255 39.7652C364.74 39.7652 364.283 39.8629 363.884 40.0582C363.486 40.2457 363.15 40.5464 362.876 40.9605C362.611 41.3746 362.408 41.9175 362.267 42.5894C362.126 43.2613 362.056 44.0777 362.056 45.0386V48.355C362.056 49.1207 362.099 49.7964 362.185 50.3824C362.279 50.9683 362.415 51.4761 362.595 51.9058C362.775 52.3277 362.993 52.6754 363.251 52.9488C363.509 53.2222 363.806 53.4254 364.142 53.5582C364.486 53.6832 364.865 53.7457 365.279 53.7457C365.81 53.7457 366.275 53.6441 366.673 53.441C367.072 53.2379 367.404 52.9214 367.669 52.4918C367.943 52.0543 368.146 51.4957 368.279 50.816C368.411 50.1285 368.478 49.3082 368.478 48.355Z" fill="white"/>
<path d="M24.6575 45.6102V48.2118C24.6575 49.6102 24.5325 50.7899 24.2825 51.7508C24.0325 52.7118 23.6732 53.4852 23.2044 54.0711C22.7357 54.6571 22.1693 55.0829 21.5052 55.3485C20.8489 55.6063 20.1068 55.7352 19.2786 55.7352C18.6224 55.7352 18.0169 55.6532 17.4622 55.4891C16.9075 55.325 16.4075 55.0633 15.9622 54.7039C15.5247 54.3368 15.1497 53.8602 14.8372 53.2743C14.5247 52.6883 14.2864 51.9774 14.1224 51.1414C13.9583 50.3055 13.8763 49.3289 13.8763 48.2118V45.6102C13.8763 44.2118 14.0013 43.0399 14.2513 42.0946C14.5091 41.1493 14.8724 40.3914 15.3411 39.8211C15.8099 39.243 16.3724 38.8289 17.0286 38.5789C17.6927 38.3289 18.4349 38.2039 19.2552 38.2039C19.9193 38.2039 20.5286 38.286 21.0833 38.45C21.6458 38.6063 22.1458 38.8602 22.5833 39.2118C23.0208 39.5555 23.3919 40.0164 23.6966 40.5946C24.0091 41.1649 24.2474 41.8641 24.4114 42.6922C24.5755 43.5204 24.6575 44.493 24.6575 45.6102ZM22.4778 48.5633V45.2469C22.4778 44.4813 22.431 43.8094 22.3372 43.2313C22.2513 42.6454 22.1224 42.1454 21.9505 41.7313C21.7786 41.3172 21.5599 40.9813 21.2943 40.7235C21.0364 40.4657 20.7357 40.2782 20.3919 40.161C20.056 40.036 19.6771 39.9735 19.2552 39.9735C18.7396 39.9735 18.2825 40.0711 17.8841 40.2664C17.4857 40.4539 17.1497 40.7547 16.8763 41.1688C16.6107 41.5829 16.4075 42.1258 16.2669 42.7977C16.1263 43.4696 16.056 44.286 16.056 45.2469V48.5633C16.056 49.3289 16.0989 50.0047 16.1849 50.5907C16.2786 51.1766 16.4153 51.6844 16.595 52.1141C16.7747 52.536 16.9935 52.8836 17.2513 53.1571C17.5091 53.4305 17.806 53.6336 18.1419 53.7664C18.4857 53.8914 18.8646 53.9539 19.2786 53.9539C19.8099 53.9539 20.2747 53.8524 20.6732 53.6493C21.0716 53.4461 21.4036 53.1297 21.6693 52.7C21.9427 52.2625 22.1458 51.7039 22.2786 51.0243C22.4114 50.3368 22.4778 49.5164 22.4778 48.5633Z" fill="white"/>
<rect x="1.02863" y="25.0437" width="389" height="40.7999" stroke="#D1D5DB"/>
<line x1="182.029" y1="66.3436" x2="182.029" y2="24.5437" stroke="#D1D5DB"/>
<line x1="234.029" y1="66.3436" x2="234.029" y2="24.5437" stroke="#D1D5DB"/>
<line x1="286.029" y1="66.3436" x2="286.029" y2="24.5437" stroke="#D1D5DB"/>
<line x1="343.029" y1="66.3436" x2="343.029" y2="24.5437" stroke="#D1D5DB"/>
<line x1="87.0286" y1="66.3436" x2="87.0286" y2="24.5437" stroke="#D1D5DB"/>
<line x1="133.029" y1="66.3436" x2="133.029" y2="24.5437" stroke="#D1D5DB"/>
<path d="M42.5286 66.3436L42.5286 24.5437" stroke="#D1D5DB"/>
<path d="M67.6575 45.4019V48.0035C67.6575 49.4019 67.5325 50.5816 67.2825 51.5425C67.0325 52.5035 66.6732 53.2769 66.2044 53.8629C65.7357 54.4488 65.1693 54.8746 64.5052 55.1402C63.8489 55.398 63.1068 55.5269 62.2786 55.5269C61.6224 55.5269 61.0169 55.4449 60.4622 55.2808C59.9075 55.1168 59.4075 54.855 58.9622 54.4957C58.5247 54.1285 58.1497 53.6519 57.8372 53.066C57.5247 52.48 57.2864 51.7691 57.1224 50.9332C56.9583 50.0972 56.8763 49.1207 56.8763 48.0035V45.4019C56.8763 44.0035 57.0013 42.8316 57.2513 41.8863C57.5091 40.941 57.8724 40.1832 58.3411 39.6129C58.8099 39.0347 59.3724 38.6207 60.0286 38.3707C60.6927 38.1207 61.4349 37.9957 62.2552 37.9957C62.9193 37.9957 63.5286 38.0777 64.0833 38.2418C64.6458 38.398 65.1458 38.6519 65.5833 39.0035C66.0208 39.3472 66.3919 39.8082 66.6966 40.3863C67.0091 40.9566 67.2474 41.6558 67.4114 42.4839C67.5755 43.3121 67.6575 44.2847 67.6575 45.4019ZM65.4778 48.355V45.0386C65.4778 44.273 65.431 43.6011 65.3372 43.023C65.2513 42.4371 65.1224 41.9371 64.9505 41.523C64.7786 41.1089 64.5599 40.773 64.2943 40.5152C64.0364 40.2574 63.7357 40.0699 63.3919 39.9527C63.056 39.8277 62.6771 39.7652 62.2552 39.7652C61.7396 39.7652 61.2825 39.8629 60.8841 40.0582C60.4857 40.2457 60.1497 40.5464 59.8763 40.9605C59.6107 41.3746 59.4075 41.9175 59.2669 42.5894C59.1263 43.2613 59.056 44.0777 59.056 45.0386V48.355C59.056 49.1207 59.0989 49.7964 59.1849 50.3824C59.2786 50.9683 59.4153 51.4761 59.595 51.9058C59.7747 52.3277 59.9935 52.6754 60.2513 52.9488C60.5091 53.2222 60.806 53.4254 61.1419 53.5582C61.4857 53.6832 61.8646 53.7457 62.2786 53.7457C62.8099 53.7457 63.2747 53.6441 63.6732 53.441C64.0716 53.2379 64.4036 52.9214 64.6693 52.4918C64.9427 52.0543 65.1458 51.4957 65.2786 50.816C65.4114 50.1285 65.4778 49.3082 65.4778 48.355Z" fill="white"/>
<path d="M111.658 45.4019V48.0035C111.658 49.4019 111.533 50.5816 111.283 51.5425C111.033 52.5035 110.673 53.2769 110.204 53.8629C109.736 54.4488 109.169 54.8746 108.505 55.1402C107.849 55.398 107.107 55.5269 106.279 55.5269C105.622 55.5269 105.017 55.4449 104.462 55.2808C103.908 55.1168 103.408 54.855 102.962 54.4957C102.525 54.1285 102.15 53.6519 101.837 53.066C101.525 52.48 101.286 51.7691 101.122 50.9332C100.958 50.0972 100.876 49.1207 100.876 48.0035V45.4019C100.876 44.0035 101.001 42.8316 101.251 41.8863C101.509 40.941 101.872 40.1832 102.341 39.6129C102.81 39.0347 103.372 38.6207 104.029 38.3707C104.693 38.1207 105.435 37.9957 106.255 37.9957C106.919 37.9957 107.529 38.0777 108.083 38.2418C108.646 38.398 109.146 38.6519 109.583 39.0035C110.021 39.3472 110.392 39.8082 110.697 40.3863C111.009 40.9566 111.247 41.6558 111.411 42.4839C111.576 43.3121 111.658 44.2847 111.658 45.4019ZM109.478 48.355V45.0386C109.478 44.273 109.431 43.6011 109.337 43.023C109.251 42.4371 109.122 41.9371 108.951 41.523C108.779 41.1089 108.56 40.773 108.294 40.5152C108.036 40.2574 107.736 40.0699 107.392 39.9527C107.056 39.8277 106.677 39.7652 106.255 39.7652C105.74 39.7652 105.283 39.8629 104.884 40.0582C104.486 40.2457 104.15 40.5464 103.876 40.9605C103.611 41.3746 103.408 41.9175 103.267 42.5894C103.126 43.2613 103.056 44.0777 103.056 45.0386V48.355C103.056 49.1207 103.099 49.7964 103.185 50.3824C103.279 50.9683 103.415 51.4761 103.595 51.9058C103.775 52.3277 103.993 52.6754 104.251 52.9488C104.509 53.2222 104.806 53.4254 105.142 53.5582C105.486 53.6832 105.865 53.7457 106.279 53.7457C106.81 53.7457 107.275 53.6441 107.673 53.441C108.072 53.2379 108.404 52.9214 108.669 52.4918C108.943 52.0543 109.146 51.4957 109.279 50.816C109.411 50.1285 109.478 49.3082 109.478 48.355Z" fill="white"/>
<path d="M161.658 45.4019V48.0035C161.658 49.4019 161.533 50.5816 161.283 51.5425C161.033 52.5035 160.673 53.2769 160.204 53.8629C159.736 54.4488 159.169 54.8746 158.505 55.1402C157.849 55.398 157.107 55.5269 156.279 55.5269C155.622 55.5269 155.017 55.4449 154.462 55.2808C153.908 55.1168 153.408 54.855 152.962 54.4957C152.525 54.1285 152.15 53.6519 151.837 53.066C151.525 52.48 151.286 51.7691 151.122 50.9332C150.958 50.0972 150.876 49.1207 150.876 48.0035V45.4019C150.876 44.0035 151.001 42.8316 151.251 41.8863C151.509 40.941 151.872 40.1832 152.341 39.6129C152.81 39.0347 153.372 38.6207 154.029 38.3707C154.693 38.1207 155.435 37.9957 156.255 37.9957C156.919 37.9957 157.529 38.0777 158.083 38.2418C158.646 38.398 159.146 38.6519 159.583 39.0035C160.021 39.3472 160.392 39.8082 160.697 40.3863C161.009 40.9566 161.247 41.6558 161.411 42.4839C161.576 43.3121 161.658 44.2847 161.658 45.4019ZM159.478 48.355V45.0386C159.478 44.273 159.431 43.6011 159.337 43.023C159.251 42.4371 159.122 41.9371 158.951 41.523C158.779 41.1089 158.56 40.773 158.294 40.5152C158.036 40.2574 157.736 40.0699 157.392 39.9527C157.056 39.8277 156.677 39.7652 156.255 39.7652C155.74 39.7652 155.283 39.8629 154.884 40.0582C154.486 40.2457 154.15 40.5464 153.876 40.9605C153.611 41.3746 153.408 41.9175 153.267 42.5894C153.126 43.2613 153.056 44.0777 153.056 45.0386V48.355C153.056 49.1207 153.099 49.7964 153.185 50.3824C153.279 50.9683 153.415 51.4761 153.595 51.9058C153.775 52.3277 153.993 52.6754 154.251 52.9488C154.509 53.2222 154.806 53.4254 155.142 53.5582C155.486 53.6832 155.865 53.7457 156.279 53.7457C156.81 53.7457 157.275 53.6441 157.673 53.441C158.072 53.2379 158.404 52.9214 158.669 52.4918C158.943 52.0543 159.146 51.4957 159.279 50.816C159.411 50.1285 159.478 49.3082 159.478 48.355Z" fill="white"/>
<path d="M211.658 45.4019V48.0035C211.658 49.4019 211.533 50.5816 211.283 51.5425C211.033 52.5035 210.673 53.2769 210.204 53.8629C209.736 54.4488 209.169 54.8746 208.505 55.1402C207.849 55.398 207.107 55.5269 206.279 55.5269C205.622 55.5269 205.017 55.4449 204.462 55.2808C203.908 55.1168 203.408 54.855 202.962 54.4957C202.525 54.1285 202.15 53.6519 201.837 53.066C201.525 52.48 201.286 51.7691 201.122 50.9332C200.958 50.0972 200.876 49.1207 200.876 48.0035V45.4019C200.876 44.0035 201.001 42.8316 201.251 41.8863C201.509 40.941 201.872 40.1832 202.341 39.6129C202.81 39.0347 203.372 38.6207 204.029 38.3707C204.693 38.1207 205.435 37.9957 206.255 37.9957C206.919 37.9957 207.529 38.0777 208.083 38.2418C208.646 38.398 209.146 38.6519 209.583 39.0035C210.021 39.3472 210.392 39.8082 210.697 40.3863C211.009 40.9566 211.247 41.6558 211.411 42.4839C211.576 43.3121 211.658 44.2847 211.658 45.4019ZM209.478 48.355V45.0386C209.478 44.273 209.431 43.6011 209.337 43.023C209.251 42.4371 209.122 41.9371 208.951 41.523C208.779 41.1089 208.56 40.773 208.294 40.5152C208.036 40.2574 207.736 40.0699 207.392 39.9527C207.056 39.8277 206.677 39.7652 206.255 39.7652C205.74 39.7652 205.283 39.8629 204.884 40.0582C204.486 40.2457 204.15 40.5464 203.876 40.9605C203.611 41.3746 203.408 41.9175 203.267 42.5894C203.126 43.2613 203.056 44.0777 203.056 45.0386V48.355C203.056 49.1207 203.099 49.7964 203.185 50.3824C203.279 50.9683 203.415 51.4761 203.595 51.9058C203.775 52.3277 203.993 52.6754 204.251 52.9488C204.509 53.2222 204.806 53.4254 205.142 53.5582C205.486 53.6832 205.865 53.7457 206.279 53.7457C206.81 53.7457 207.275 53.6441 207.673 53.441C208.072 53.2379 208.404 52.9214 208.669 52.4918C208.943 52.0543 209.146 51.4957 209.279 50.816C209.411 50.1285 209.478 49.3082 209.478 48.355Z" fill="white"/>
<path d="M258.072 38.1363V55.2925H255.904V40.8433L251.533 42.4371V40.48L257.732 38.1363H258.072Z" fill="white"/>
<path d="M315.072 38.1363V55.2925H312.904V40.8433L308.533 42.4371V40.48L314.732 38.1363H315.072Z" fill="white"/>
<path d="M370.658 45.4019V48.0035C370.658 49.4019 370.533 50.5816 370.283 51.5425C370.033 52.5035 369.673 53.2769 369.204 53.8629C368.736 54.4488 368.169 54.8746 367.505 55.1402C366.849 55.398 366.107 55.5269 365.279 55.5269C364.622 55.5269 364.017 55.4449 363.462 55.2808C362.908 55.1168 362.408 54.855 361.962 54.4957C361.525 54.1285 361.15 53.6519 360.837 53.066C360.525 52.48 360.286 51.7691 360.122 50.9332C359.958 50.0972 359.876 49.1207 359.876 48.0035V45.4019C359.876 44.0035 360.001 42.8316 360.251 41.8863C360.509 40.941 360.872 40.1832 361.341 39.6129C361.81 39.0347 362.372 38.6207 363.029 38.3707C363.693 38.1207 364.435 37.9957 365.255 37.9957C365.919 37.9957 366.529 38.0777 367.083 38.2418C367.646 38.398 368.146 38.6519 368.583 39.0035C369.021 39.3472 369.392 39.8082 369.697 40.3863C370.009 40.9566 370.247 41.6558 370.411 42.4839C370.576 43.3121 370.658 44.2847 370.658 45.4019ZM368.478 48.355V45.0386C368.478 44.273 368.431 43.6011 368.337 43.023C368.251 42.4371 368.122 41.9371 367.951 41.523C367.779 41.1089 367.56 40.773 367.294 40.5152C367.036 40.2574 366.736 40.0699 366.392 39.9527C366.056 39.8277 365.677 39.7652 365.255 39.7652C364.74 39.7652 364.283 39.8629 363.884 40.0582C363.486 40.2457 363.15 40.5464 362.876 40.9605C362.611 41.3746 362.408 41.9175 362.267 42.5894C362.126 43.2613 362.056 44.0777 362.056 45.0386V48.355C362.056 49.1207 362.099 49.7964 362.185 50.3824C362.279 50.9683 362.415 51.4761 362.595 51.9058C362.775 52.3277 362.993 52.6754 363.251 52.9488C363.509 53.2222 363.806 53.4254 364.142 53.5582C364.486 53.6832 364.865 53.7457 365.279 53.7457C365.81 53.7457 366.275 53.6441 366.673 53.441C367.072 53.2379 367.404 52.9214 367.669 52.4918C367.943 52.0543 368.146 51.4957 368.279 50.816C368.411 50.1285 368.478 49.3082 368.478 48.355Z" fill="white"/>
<path d="M24.6575 45.6102V48.2118C24.6575 49.6102 24.5325 50.7899 24.2825 51.7508C24.0325 52.7118 23.6732 53.4852 23.2044 54.0711C22.7357 54.6571 22.1693 55.0829 21.5052 55.3485C20.8489 55.6063 20.1068 55.7352 19.2786 55.7352C18.6224 55.7352 18.0169 55.6532 17.4622 55.4891C16.9075 55.325 16.4075 55.0633 15.9622 54.7039C15.5247 54.3368 15.1497 53.8602 14.8372 53.2743C14.5247 52.6883 14.2864 51.9774 14.1224 51.1414C13.9583 50.3055 13.8763 49.3289 13.8763 48.2118V45.6102C13.8763 44.2118 14.0013 43.0399 14.2513 42.0946C14.5091 41.1493 14.8724 40.3914 15.3411 39.8211C15.8099 39.243 16.3724 38.8289 17.0286 38.5789C17.6927 38.3289 18.4349 38.2039 19.2552 38.2039C19.9193 38.2039 20.5286 38.286 21.0833 38.45C21.6458 38.6063 22.1458 38.8602 22.5833 39.2118C23.0208 39.5555 23.3919 40.0164 23.6966 40.5946C24.0091 41.1649 24.2474 41.8641 24.4114 42.6922C24.5755 43.5204 24.6575 44.493 24.6575 45.6102ZM22.4778 48.5633V45.2469C22.4778 44.4813 22.431 43.8094 22.3372 43.2313C22.2513 42.6454 22.1224 42.1454 21.9505 41.7313C21.7786 41.3172 21.5599 40.9813 21.2943 40.7235C21.0364 40.4657 20.7357 40.2782 20.3919 40.161C20.056 40.036 19.6771 39.9735 19.2552 39.9735C18.7396 39.9735 18.2825 40.0711 17.8841 40.2664C17.4857 40.4539 17.1497 40.7547 16.8763 41.1688C16.6107 41.5829 16.4075 42.1258 16.2669 42.7977C16.1263 43.4696 16.056 44.286 16.056 45.2469V48.5633C16.056 49.3289 16.0989 50.0047 16.1849 50.5907C16.2786 51.1766 16.4153 51.6844 16.595 52.1141C16.7747 52.536 16.9935 52.8836 17.2513 53.1571C17.5091 53.4305 17.806 53.6336 18.1419 53.7664C18.4857 53.8914 18.8646 53.9539 19.2786 53.9539C19.8099 53.9539 20.2747 53.8524 20.6732 53.6493C21.0716 53.4461 21.4036 53.1297 21.6693 52.7C21.9427 52.2625 22.1458 51.7039 22.2786 51.0243C22.4114 50.3368 22.4778 49.5164 22.4778 48.5633Z" fill="white"/>
<path d="M25.1263 107.462V109.244H13.9583V107.685L19.5482 101.462C20.2357 100.697 20.7669 100.048 21.1419 99.517C21.5247 98.978 21.7903 98.4975 21.9388 98.0756C22.095 97.6459 22.1732 97.2084 22.1732 96.7631C22.1732 96.2006 22.056 95.6928 21.8216 95.2397C21.595 94.7787 21.2591 94.4116 20.8138 94.1381C20.3685 93.8647 19.8294 93.728 19.1966 93.728C18.4388 93.728 17.806 93.8764 17.2982 94.1733C16.7982 94.4623 16.4232 94.8686 16.1732 95.392C15.9232 95.9155 15.7982 96.517 15.7982 97.1967H13.6302C13.6302 96.2358 13.8411 95.3569 14.263 94.56C14.6849 93.7631 15.3099 93.1303 16.138 92.6616C16.9661 92.185 17.9857 91.9467 19.1966 91.9467C20.2747 91.9467 21.1966 92.1381 21.9622 92.5209C22.7278 92.8959 23.3138 93.4272 23.72 94.1147C24.1341 94.7944 24.3411 95.5912 24.3411 96.5053C24.3411 97.0053 24.2552 97.5131 24.0833 98.0287C23.9193 98.5366 23.6888 99.0444 23.3919 99.5522C23.1028 100.06 22.763 100.56 22.3724 101.052C21.9896 101.544 21.5794 102.029 21.1419 102.505L16.5716 107.462H25.1263Z" fill="white"/>
<path d="M68.1263 107.462V109.244H56.9583V107.685L62.5482 101.462C63.2357 100.697 63.7669 100.048 64.1419 99.517C64.5247 98.978 64.7903 98.4975 64.9388 98.0756C65.095 97.6459 65.1732 97.2084 65.1732 96.7631C65.1732 96.2006 65.056 95.6928 64.8216 95.2397C64.595 94.7787 64.2591 94.4116 63.8138 94.1381C63.3685 93.8647 62.8294 93.728 62.1966 93.728C61.4388 93.728 60.806 93.8764 60.2982 94.1733C59.7982 94.4623 59.4232 94.8686 59.1732 95.392C58.9232 95.9155 58.7982 96.517 58.7982 97.1967H56.6302C56.6302 96.2358 56.8411 95.3569 57.263 94.56C57.6849 93.7631 58.3099 93.1303 59.138 92.6616C59.9661 92.185 60.9857 91.9467 62.1966 91.9467C63.2747 91.9467 64.1966 92.1381 64.9622 92.5209C65.7278 92.8959 66.3138 93.4272 66.72 94.1147C67.1341 94.7944 67.3411 95.5912 67.3411 96.5053C67.3411 97.0053 67.2552 97.5131 67.0833 98.0287C66.9193 98.5366 66.6888 99.0444 66.3919 99.5522C66.1028 100.06 65.763 100.56 65.3724 101.052C64.9896 101.544 64.5794 102.029 64.1419 102.505L59.5716 107.462H68.1263Z" fill="white"/>
<path d="M112.126 107.462V109.244H100.958V107.685L106.548 101.462C107.236 100.697 107.767 100.048 108.142 99.517C108.525 98.978 108.79 98.4975 108.939 98.0756C109.095 97.6459 109.173 97.2084 109.173 96.7631C109.173 96.2006 109.056 95.6928 108.822 95.2397C108.595 94.7787 108.259 94.4116 107.814 94.1381C107.368 93.8647 106.829 93.728 106.197 93.728C105.439 93.728 104.806 93.8764 104.298 94.1733C103.798 94.4623 103.423 94.8686 103.173 95.392C102.923 95.9155 102.798 96.517 102.798 97.1967H100.63C100.63 96.2358 100.841 95.3569 101.263 94.56C101.685 93.7631 102.31 93.1303 103.138 92.6616C103.966 92.185 104.986 91.9467 106.197 91.9467C107.275 91.9467 108.197 92.1381 108.962 92.5209C109.728 92.8959 110.314 93.4272 110.72 94.1147C111.134 94.7944 111.341 95.5912 111.341 96.5053C111.341 97.0053 111.255 97.5131 111.083 98.0287C110.919 98.5366 110.689 99.0444 110.392 99.5522C110.103 100.06 109.763 100.56 109.372 101.052C108.99 101.544 108.579 102.029 108.142 102.505L103.572 107.462H112.126Z" fill="white"/>
<path d="M162.126 107.462V109.244H150.958V107.685L156.548 101.462C157.236 100.697 157.767 100.048 158.142 99.517C158.525 98.978 158.79 98.4975 158.939 98.0756C159.095 97.6459 159.173 97.2084 159.173 96.7631C159.173 96.2006 159.056 95.6928 158.822 95.2397C158.595 94.7787 158.259 94.4116 157.814 94.1381C157.368 93.8647 156.829 93.728 156.197 93.728C155.439 93.728 154.806 93.8764 154.298 94.1733C153.798 94.4623 153.423 94.8686 153.173 95.392C152.923 95.9155 152.798 96.517 152.798 97.1967H150.63C150.63 96.2358 150.841 95.3569 151.263 94.56C151.685 93.7631 152.31 93.1303 153.138 92.6616C153.966 92.185 154.986 91.9467 156.197 91.9467C157.275 91.9467 158.197 92.1381 158.962 92.5209C159.728 92.8959 160.314 93.4272 160.72 94.1147C161.134 94.7944 161.341 95.5912 161.341 96.5053C161.341 97.0053 161.255 97.5131 161.083 98.0287C160.919 98.5366 160.689 99.0444 160.392 99.5522C160.103 100.06 159.763 100.56 159.372 101.052C158.99 101.544 158.579 102.029 158.142 102.505L153.572 107.462H162.126Z" fill="white"/>
<path d="M212.126 107.462V109.244H200.958V107.685L206.548 101.462C207.236 100.697 207.767 100.048 208.142 99.517C208.525 98.978 208.79 98.4975 208.939 98.0756C209.095 97.6459 209.173 97.2084 209.173 96.7631C209.173 96.2006 209.056 95.6928 208.822 95.2397C208.595 94.7787 208.259 94.4116 207.814 94.1381C207.368 93.8647 206.829 93.728 206.197 93.728C205.439 93.728 204.806 93.8764 204.298 94.1733C203.798 94.4623 203.423 94.8686 203.173 95.392C202.923 95.9155 202.798 96.517 202.798 97.1967H200.63C200.63 96.2358 200.841 95.3569 201.263 94.56C201.685 93.7631 202.31 93.1303 203.138 92.6616C203.966 92.185 204.986 91.9467 206.197 91.9467C207.275 91.9467 208.197 92.1381 208.962 92.5209C209.728 92.8959 210.314 93.4272 210.72 94.1147C211.134 94.7944 211.341 95.5912 211.341 96.5053C211.341 97.0053 211.255 97.5131 211.083 98.0287C210.919 98.5366 210.689 99.0444 210.392 99.5522C210.103 100.06 209.763 100.56 209.372 101.052C208.99 101.544 208.579 102.029 208.142 102.505L203.572 107.462H212.126Z" fill="white"/>
<path d="M262.126 107.462V109.244H250.958V107.685L256.548 101.462C257.236 100.697 257.767 100.048 258.142 99.517C258.525 98.978 258.79 98.4975 258.939 98.0756C259.095 97.6459 259.173 97.2084 259.173 96.7631C259.173 96.2006 259.056 95.6928 258.822 95.2397C258.595 94.7787 258.259 94.4116 257.814 94.1381C257.368 93.8647 256.829 93.728 256.197 93.728C255.439 93.728 254.806 93.8764 254.298 94.1733C253.798 94.4623 253.423 94.8686 253.173 95.392C252.923 95.9155 252.798 96.517 252.798 97.1967H250.63C250.63 96.2358 250.841 95.3569 251.263 94.56C251.685 93.7631 252.31 93.1303 253.138 92.6616C253.966 92.185 254.986 91.9467 256.197 91.9467C257.275 91.9467 258.197 92.1381 258.962 92.5209C259.728 92.8959 260.314 93.4272 260.72 94.1147C261.134 94.7944 261.341 95.5912 261.341 96.5053C261.341 97.0053 261.255 97.5131 261.083 98.0287C260.919 98.5366 260.689 99.0444 260.392 99.5522C260.103 100.06 259.763 100.56 259.372 101.052C258.99 101.544 258.579 102.029 258.142 102.505L253.572 107.462H262.126Z" fill="white"/>
<path d="M319.126 107.462V109.244H307.958V107.685L313.548 101.462C314.236 100.697 314.767 100.048 315.142 99.517C315.525 98.978 315.79 98.4975 315.939 98.0756C316.095 97.6459 316.173 97.2084 316.173 96.7631C316.173 96.2006 316.056 95.6928 315.822 95.2397C315.595 94.7787 315.259 94.4116 314.814 94.1381C314.368 93.8647 313.829 93.728 313.197 93.728C312.439 93.728 311.806 93.8764 311.298 94.1733C310.798 94.4623 310.423 94.8686 310.173 95.392C309.923 95.9155 309.798 96.517 309.798 97.1967H307.63C307.63 96.2358 307.841 95.3569 308.263 94.56C308.685 93.7631 309.31 93.1303 310.138 92.6616C310.966 92.185 311.986 91.9467 313.197 91.9467C314.275 91.9467 315.197 92.1381 315.962 92.5209C316.728 92.8959 317.314 93.4272 317.72 94.1147C318.134 94.7944 318.341 95.5912 318.341 96.5053C318.341 97.0053 318.255 97.5131 318.083 98.0287C317.919 98.5366 317.689 99.0444 317.392 99.5522C317.103 100.06 316.763 100.56 316.372 101.052C315.99 101.544 315.579 102.029 315.142 102.505L310.572 107.462H319.126Z" fill="white"/>
<path d="M371.126 107.462V109.244H359.958V107.685L365.548 101.462C366.236 100.697 366.767 100.048 367.142 99.517C367.525 98.978 367.79 98.4975 367.939 98.0756C368.095 97.6459 368.173 97.2084 368.173 96.7631C368.173 96.2006 368.056 95.6928 367.822 95.2397C367.595 94.7787 367.259 94.4116 366.814 94.1381C366.368 93.8647 365.829 93.728 365.197 93.728C364.439 93.728 363.806 93.8764 363.298 94.1733C362.798 94.4623 362.423 94.8686 362.173 95.392C361.923 95.9155 361.798 96.517 361.798 97.1967H359.63C359.63 96.2358 359.841 95.3569 360.263 94.56C360.685 93.7631 361.31 93.1303 362.138 92.6616C362.966 92.185 363.986 91.9467 365.197 91.9467C366.275 91.9467 367.197 92.1381 367.962 92.5209C368.728 92.8959 369.314 93.4272 369.72 94.1147C370.134 94.7944 370.341 95.5912 370.341 96.5053C370.341 97.0053 370.255 97.5131 370.083 98.0287C369.919 98.5366 369.689 99.0444 369.392 99.5522C369.103 100.06 368.763 100.56 368.372 101.052C367.99 101.544 367.579 102.029 367.142 102.505L362.572 107.462H371.126Z" fill="white"/>
<path d="M379.615 86.6927V88.4271C379.615 89.3594 379.531 90.1458 379.365 90.7865C379.198 91.4271 378.958 91.9427 378.646 92.3333C378.333 92.724 377.956 93.0078 377.513 93.1849C377.076 93.3568 376.581 93.4427 376.029 93.4427C375.591 93.4427 375.187 93.388 374.818 93.2787C374.448 93.1693 374.115 92.9948 373.818 92.7552C373.526 92.5104 373.276 92.1927 373.068 91.8021C372.859 91.4115 372.701 90.9375 372.591 90.3802C372.482 89.8229 372.427 89.1719 372.427 88.4271V86.6927C372.427 85.7604 372.51 84.9792 372.677 84.349C372.849 83.7188 373.091 83.2136 373.404 82.8333C373.716 82.4479 374.091 82.1719 374.529 82.0052C374.971 81.8386 375.466 81.7552 376.013 81.7552C376.456 81.7552 376.862 81.8099 377.232 81.9193C377.607 82.0234 377.94 82.1927 378.232 82.4271C378.523 82.6563 378.771 82.9636 378.974 83.349C379.182 83.7292 379.341 84.1953 379.451 84.7474C379.56 85.2995 379.615 85.9479 379.615 86.6927ZM378.161 88.6615V86.4505C378.161 85.9401 378.13 85.4922 378.068 85.1068C378.01 84.7162 377.924 84.3828 377.81 84.1068C377.695 83.8307 377.549 83.6068 377.372 83.4349C377.201 83.263 377 83.138 376.771 83.0599C376.547 82.9766 376.294 82.9349 376.013 82.9349C375.669 82.9349 375.365 83 375.099 83.1302C374.833 83.2552 374.609 83.4557 374.427 83.7318C374.25 84.0078 374.115 84.3698 374.021 84.8177C373.927 85.2656 373.88 85.8099 373.88 86.4505V88.6615C373.88 89.1719 373.909 89.6224 373.966 90.013C374.029 90.4037 374.12 90.7422 374.24 91.0287C374.359 91.3099 374.505 91.5417 374.677 91.724C374.849 91.9063 375.047 92.0417 375.271 92.1302C375.5 92.2136 375.753 92.2552 376.029 92.2552C376.383 92.2552 376.693 92.1875 376.958 92.0521C377.224 91.9167 377.445 91.7057 377.622 91.4193C377.805 91.1276 377.94 90.7552 378.029 90.3021C378.117 89.8438 378.161 89.2969 378.161 88.6615Z" fill="white"/>
<path d="M325.224 81.849V93.2865H323.779V83.6537L320.865 84.7162V83.4115L324.997 81.849H325.224Z" fill="white"/>
<path d="M270.927 92.099V93.2865H263.482V92.2474L267.208 88.099C267.667 87.5886 268.021 87.1563 268.271 86.8021C268.526 86.4427 268.703 86.1224 268.802 85.8412C268.906 85.5547 268.958 85.263 268.958 84.9662C268.958 84.5912 268.88 84.2526 268.724 83.9505C268.573 83.6432 268.349 83.3984 268.052 83.2162C267.755 83.0339 267.396 82.9427 266.974 82.9427C266.469 82.9427 266.047 83.0417 265.708 83.2396C265.375 83.4323 265.125 83.7031 264.958 84.0521C264.792 84.4011 264.708 84.8021 264.708 85.2552H263.263C263.263 84.6146 263.404 84.0287 263.685 83.4974C263.966 82.9662 264.383 82.5443 264.935 82.2318C265.487 81.9141 266.167 81.7552 266.974 81.7552C267.693 81.7552 268.307 81.8828 268.818 82.138C269.328 82.388 269.719 82.7422 269.99 83.2005C270.266 83.6537 270.404 84.1849 270.404 84.7943C270.404 85.1276 270.346 85.4662 270.232 85.8099C270.122 86.1484 269.969 86.487 269.771 86.8255C269.578 87.1641 269.352 87.4974 269.091 87.8255C268.836 88.1537 268.562 88.4766 268.271 88.7943L265.224 92.099H270.927Z" fill="white"/>
<path d="M213.583 86.888H214.615C215.12 86.888 215.536 86.8047 215.865 86.638C216.198 86.4662 216.445 86.2344 216.607 85.9427C216.773 85.6458 216.857 85.3125 216.857 84.9427C216.857 84.5052 216.784 84.138 216.638 83.8412C216.492 83.5443 216.273 83.3203 215.982 83.1693C215.69 83.0182 215.32 82.9427 214.872 82.9427C214.466 82.9427 214.107 83.0234 213.794 83.1849C213.487 83.3412 213.245 83.5651 213.068 83.8568C212.896 84.1484 212.81 84.4922 212.81 84.888H211.365C211.365 84.3099 211.51 83.7839 211.802 83.3099C212.094 82.8359 212.503 82.4583 213.029 82.1771C213.56 81.8958 214.174 81.7552 214.872 81.7552C215.56 81.7552 216.161 81.8776 216.677 82.1224C217.193 82.362 217.594 82.7214 217.88 83.2005C218.167 83.6745 218.31 84.2656 218.31 84.974C218.31 85.2604 218.242 85.5677 218.107 85.8958C217.977 86.2188 217.771 86.5208 217.49 86.8021C217.214 87.0833 216.854 87.3151 216.411 87.4974C215.969 87.6745 215.437 87.763 214.818 87.763H213.583V86.888ZM213.583 88.0755V87.2083H214.818C215.542 87.2083 216.141 87.2943 216.615 87.4662C217.089 87.638 217.461 87.8672 217.732 88.1537C218.008 88.4401 218.201 88.7552 218.31 89.099C218.424 89.4375 218.482 89.7761 218.482 90.1146C218.482 90.6458 218.391 91.1172 218.208 91.5287C218.031 91.9401 217.779 92.2891 217.451 92.5755C217.128 92.862 216.747 93.0781 216.31 93.224C215.872 93.3698 215.396 93.4427 214.88 93.4427C214.385 93.4427 213.919 93.3724 213.482 93.2318C213.049 93.0912 212.667 92.888 212.333 92.6224C212 92.3516 211.74 92.0208 211.552 91.6302C211.365 91.2344 211.271 90.7839 211.271 90.2787H212.716C212.716 90.6745 212.802 91.0208 212.974 91.3177C213.151 91.6146 213.401 91.8464 213.724 92.013C214.052 92.1745 214.437 92.2552 214.88 92.2552C215.323 92.2552 215.703 92.1797 216.021 92.0287C216.344 91.8724 216.591 91.638 216.763 91.3255C216.94 91.013 217.029 90.6198 217.029 90.1458C217.029 89.6719 216.93 89.2839 216.732 88.9818C216.534 88.6745 216.253 88.4479 215.888 88.3021C215.529 88.1511 215.104 88.0755 214.615 88.0755H213.583Z" fill="white"/>
<path d="M171.161 89.4583V90.6458H162.943V89.7943L168.036 81.9115H169.216L167.951 84.1927L164.583 89.4583H171.161ZM169.576 81.9115V93.2865H168.13V81.9115H169.576Z" fill="white"/>
<path d="M115.302 87.8724L114.146 87.5755L114.716 81.9115H120.552V83.2474H115.943L115.599 86.3412C115.807 86.2214 116.07 86.1094 116.388 86.0052C116.711 85.9011 117.081 85.849 117.497 85.849C118.023 85.849 118.495 85.9401 118.911 86.1224C119.328 86.2995 119.682 86.5547 119.974 86.888C120.271 87.2214 120.497 87.6224 120.654 88.0912C120.81 88.5599 120.888 89.0833 120.888 89.6615C120.888 90.2083 120.812 90.7109 120.661 91.1693C120.516 91.6276 120.294 92.0287 119.997 92.3724C119.701 92.7109 119.326 92.974 118.872 93.1615C118.424 93.349 117.896 93.4427 117.286 93.4427C116.828 93.4427 116.393 93.3802 115.982 93.2552C115.576 93.125 115.211 92.9297 114.888 92.6693C114.57 92.4037 114.31 92.0755 114.107 91.6849C113.909 91.2891 113.784 90.8255 113.732 90.2943H115.107C115.169 90.7214 115.294 91.0807 115.482 91.3724C115.669 91.6641 115.914 91.8854 116.216 92.0365C116.523 92.1823 116.88 92.2552 117.286 92.2552C117.63 92.2552 117.935 92.1953 118.201 92.0755C118.466 91.9557 118.69 91.7839 118.872 91.5599C119.055 91.3359 119.193 91.0651 119.286 90.7474C119.385 90.4297 119.435 90.0729 119.435 89.6771C119.435 89.3177 119.385 88.9844 119.286 88.6771C119.187 88.3698 119.039 88.1016 118.841 87.8724C118.648 87.6432 118.411 87.4662 118.13 87.3412C117.849 87.2109 117.526 87.1458 117.161 87.1458C116.677 87.1458 116.31 87.2109 116.06 87.3412C115.815 87.4714 115.562 87.6484 115.302 87.8724Z" fill="white"/>
<path d="M75.0208 81.8958H75.1458V83.1224H75.0208C74.2552 83.1224 73.6146 83.2474 73.0989 83.4974C72.5833 83.7422 72.1745 84.0729 71.8724 84.4896C71.5703 84.9011 71.3515 85.3646 71.2161 85.8802C71.0859 86.3958 71.0208 86.9193 71.0208 87.4505V89.1224C71.0208 89.6276 71.0807 90.0755 71.2005 90.4662C71.3203 90.8516 71.4844 91.1771 71.6927 91.4427C71.901 91.7083 72.1354 91.9089 72.3958 92.0443C72.6614 92.1797 72.9375 92.2474 73.2239 92.2474C73.5573 92.2474 73.8541 92.1849 74.1146 92.0599C74.375 91.9297 74.5937 91.75 74.7708 91.5208C74.9531 91.2865 75.0911 91.0104 75.1849 90.6927C75.2786 90.375 75.3255 90.0261 75.3255 89.6458C75.3255 89.3073 75.2838 88.9818 75.2005 88.6693C75.1172 88.3516 74.9896 88.0703 74.8177 87.8255C74.6458 87.5755 74.4297 87.3802 74.1693 87.2396C73.914 87.0938 73.6094 87.0208 73.2552 87.0208C72.8541 87.0208 72.4791 87.1198 72.1302 87.3177C71.7864 87.5104 71.5026 87.7656 71.2786 88.0833C71.0599 88.3958 70.9349 88.737 70.9036 89.1068L70.138 89.099C70.2109 88.5156 70.3463 88.0182 70.5443 87.6068C70.7474 87.1901 70.9974 86.8516 71.2943 86.5912C71.5963 86.3255 71.9323 86.1328 72.3021 86.013C72.6771 85.888 73.0729 85.8255 73.4896 85.8255C74.0573 85.8255 74.5469 85.9323 74.9583 86.1458C75.3698 86.3594 75.7083 86.6458 75.9739 87.0052C76.2396 87.3594 76.4349 87.7604 76.5599 88.2083C76.6901 88.6511 76.7552 89.1068 76.7552 89.5755C76.7552 90.112 76.6797 90.6146 76.5286 91.0833C76.3776 91.5521 76.151 91.9636 75.8489 92.3177C75.5521 92.6719 75.1849 92.9479 74.7474 93.1458C74.3099 93.3438 73.8021 93.4427 73.2239 93.4427C72.6094 93.4427 72.0729 93.3177 71.6146 93.0677C71.1562 92.8125 70.776 92.474 70.4739 92.0521C70.1719 91.6302 69.9453 91.1615 69.7943 90.6458C69.6432 90.1302 69.5677 89.6068 69.5677 89.0755V88.3958C69.5677 87.5938 69.6484 86.8073 69.8099 86.0365C69.9713 85.2656 70.25 84.5677 70.6458 83.9427C71.0469 83.3177 71.6015 82.8203 72.3099 82.4505C73.0182 82.0807 73.9219 81.8958 75.0208 81.8958Z" fill="white"/>
<path d="M32.8255 81.9115V82.724L28.1146 93.2865H26.5911L31.2943 83.099H25.138V81.9115H32.8255Z" fill="white"/>
<path d="M429.555 44.5742V46.4609H419.781V44.5742H429.555ZM429.555 49.4375V51.3242H419.781V49.4375H429.555ZM446.863 38.9141H447.051V40.7539H446.863C445.715 40.7539 444.754 40.9414 443.98 41.3164C443.207 41.6836 442.594 42.1797 442.141 42.8047C441.688 43.4219 441.359 44.1172 441.156 44.8906C440.961 45.6641 440.863 46.4492 440.863 47.2461V49.7539C440.863 50.5117 440.953 51.1836 441.133 51.7695C441.312 52.3477 441.559 52.8359 441.871 53.2344C442.184 53.6328 442.535 53.9336 442.926 54.1367C443.324 54.3398 443.738 54.4414 444.168 54.4414C444.668 54.4414 445.113 54.3477 445.504 54.1602C445.895 53.9648 446.223 53.6953 446.488 53.3516C446.762 53 446.969 52.5859 447.109 52.1094C447.25 51.6328 447.32 51.1094 447.32 50.5391C447.32 50.0312 447.258 49.543 447.133 49.0742C447.008 48.5977 446.816 48.1758 446.559 47.8086C446.301 47.4336 445.977 47.1406 445.586 46.9297C445.203 46.7109 444.746 46.6016 444.215 46.6016C443.613 46.6016 443.051 46.75 442.527 47.0469C442.012 47.3359 441.586 47.7188 441.25 48.1953C440.922 48.6641 440.734 49.1758 440.688 49.7305L439.539 49.7188C439.648 48.8438 439.852 48.0977 440.148 47.4805C440.453 46.8555 440.828 46.3477 441.273 45.957C441.727 45.5586 442.23 45.2695 442.785 45.0898C443.348 44.9023 443.941 44.8086 444.566 44.8086C445.418 44.8086 446.152 44.9688 446.77 45.2891C447.387 45.6094 447.895 46.0391 448.293 46.5781C448.691 47.1094 448.984 47.7109 449.172 48.3828C449.367 49.0469 449.465 49.7305 449.465 50.4336C449.465 51.2383 449.352 51.9922 449.125 52.6953C448.898 53.3984 448.559 54.0156 448.105 54.5469C447.66 55.0781 447.109 55.4922 446.453 55.7891C445.797 56.0859 445.035 56.2344 444.168 56.2344C443.246 56.2344 442.441 56.0469 441.754 55.6719C441.066 55.2891 440.496 54.7812 440.043 54.1484C439.59 53.5156 439.25 52.8125 439.023 52.0391C438.797 51.2656 438.684 50.4805 438.684 49.6836V48.6641C438.684 47.4609 438.805 46.2812 439.047 45.125C439.289 43.9688 439.707 42.9219 440.301 41.9844C440.902 41.0469 441.734 40.3008 442.797 39.7461C443.859 39.1914 445.215 38.9141 446.863 38.9141Z" fill="white"/>
<rect x="1.02863" y="167.359" width="389" height="40.7999" stroke="#D1D5DB"/>
<line x1="182.029" y1="208.659" x2="182.029" y2="166.859" stroke="#D1D5DB"/>
<line x1="234.029" y1="208.659" x2="234.029" y2="166.859" stroke="#D1D5DB"/>
<line x1="286.029" y1="208.659" x2="286.029" y2="166.859" stroke="#D1D5DB"/>
<line x1="343.029" y1="208.659" x2="343.029" y2="166.859" stroke="#D1D5DB"/>
<line x1="87.0286" y1="208.659" x2="87.0286" y2="166.859" stroke="#D1D5DB"/>
<line x1="133.029" y1="208.659" x2="133.029" y2="166.859" stroke="#D1D5DB"/>
<path d="M42.5286 208.659L42.5286 166.859" stroke="#D1D5DB"/>
<path d="M67.6575 187.717V190.319C67.6575 191.717 67.5325 192.897 67.2825 193.858C67.0325 194.819 66.6732 195.592 66.2044 196.178C65.7357 196.764 65.1693 197.19 64.5052 197.456C63.8489 197.714 63.1068 197.842 62.2786 197.842C61.6224 197.842 61.0169 197.76 60.4622 197.596C59.9075 197.432 59.4075 197.171 58.9622 196.811C58.5247 196.444 58.1497 195.967 57.8372 195.382C57.5247 194.796 57.2864 194.085 57.1224 193.249C56.9583 192.413 56.8763 191.436 56.8763 190.319V187.717C56.8763 186.319 57.0013 185.147 57.2513 184.202C57.5091 183.257 57.8724 182.499 58.3411 181.928C58.8099 181.35 59.3724 180.936 60.0286 180.686C60.6927 180.436 61.4349 180.311 62.2552 180.311C62.9193 180.311 63.5286 180.393 64.0833 180.557C64.6458 180.714 65.1458 180.967 65.5833 181.319C66.0208 181.663 66.3919 182.124 66.6966 182.702C67.0091 183.272 67.2474 183.971 67.4114 184.799C67.5755 185.628 67.6575 186.6 67.6575 187.717ZM65.4778 190.671V187.354C65.4778 186.589 65.431 185.917 65.3372 185.339C65.2513 184.753 65.1224 184.253 64.9505 183.839C64.7786 183.424 64.5599 183.089 64.2943 182.831C64.0364 182.573 63.7357 182.385 63.3919 182.268C63.056 182.143 62.6771 182.081 62.2552 182.081C61.7396 182.081 61.2825 182.178 60.8841 182.374C60.4857 182.561 60.1497 182.862 59.8763 183.276C59.6107 183.69 59.4075 184.233 59.2669 184.905C59.1263 185.577 59.056 186.393 59.056 187.354V190.671C59.056 191.436 59.0989 192.112 59.1849 192.698C59.2786 193.284 59.4153 193.792 59.595 194.221C59.7747 194.643 59.9935 194.991 60.2513 195.264C60.5091 195.538 60.806 195.741 61.1419 195.874C61.4857 195.999 61.8646 196.061 62.2786 196.061C62.8099 196.061 63.2747 195.96 63.6732 195.757C64.0716 195.553 64.4036 195.237 64.6693 194.807C64.9427 194.37 65.1458 193.811 65.2786 193.132C65.4114 192.444 65.4778 191.624 65.4778 190.671Z" fill="white"/>
<path d="M111.658 187.717V190.319C111.658 191.717 111.533 192.897 111.283 193.858C111.033 194.819 110.673 195.592 110.204 196.178C109.736 196.764 109.169 197.19 108.505 197.456C107.849 197.714 107.107 197.842 106.279 197.842C105.622 197.842 105.017 197.76 104.462 197.596C103.908 197.432 103.408 197.171 102.962 196.811C102.525 196.444 102.15 195.967 101.837 195.382C101.525 194.796 101.286 194.085 101.122 193.249C100.958 192.413 100.876 191.436 100.876 190.319V187.717C100.876 186.319 101.001 185.147 101.251 184.202C101.509 183.257 101.872 182.499 102.341 181.928C102.81 181.35 103.372 180.936 104.029 180.686C104.693 180.436 105.435 180.311 106.255 180.311C106.919 180.311 107.529 180.393 108.083 180.557C108.646 180.714 109.146 180.967 109.583 181.319C110.021 181.663 110.392 182.124 110.697 182.702C111.009 183.272 111.247 183.971 111.411 184.799C111.576 185.628 111.658 186.6 111.658 187.717ZM109.478 190.671V187.354C109.478 186.589 109.431 185.917 109.337 185.339C109.251 184.753 109.122 184.253 108.951 183.839C108.779 183.424 108.56 183.089 108.294 182.831C108.036 182.573 107.736 182.385 107.392 182.268C107.056 182.143 106.677 182.081 106.255 182.081C105.74 182.081 105.283 182.178 104.884 182.374C104.486 182.561 104.15 182.862 103.876 183.276C103.611 183.69 103.408 184.233 103.267 184.905C103.126 185.577 103.056 186.393 103.056 187.354V190.671C103.056 191.436 103.099 192.112 103.185 192.698C103.279 193.284 103.415 193.792 103.595 194.221C103.775 194.643 103.993 194.991 104.251 195.264C104.509 195.538 104.806 195.741 105.142 195.874C105.486 195.999 105.865 196.061 106.279 196.061C106.81 196.061 107.275 195.96 107.673 195.757C108.072 195.553 108.404 195.237 108.669 194.807C108.943 194.37 109.146 193.811 109.279 193.132C109.411 192.444 109.478 191.624 109.478 190.671Z" fill="white"/>
<path d="M161.658 187.717V190.319C161.658 191.717 161.533 192.897 161.283 193.858C161.033 194.819 160.673 195.592 160.204 196.178C159.736 196.764 159.169 197.19 158.505 197.456C157.849 197.714 157.107 197.842 156.279 197.842C155.622 197.842 155.017 197.76 154.462 197.596C153.908 197.432 153.408 197.171 152.962 196.811C152.525 196.444 152.15 195.967 151.837 195.382C151.525 194.796 151.286 194.085 151.122 193.249C150.958 192.413 150.876 191.436 150.876 190.319V187.717C150.876 186.319 151.001 185.147 151.251 184.202C151.509 183.257 151.872 182.499 152.341 181.928C152.81 181.35 153.372 180.936 154.029 180.686C154.693 180.436 155.435 180.311 156.255 180.311C156.919 180.311 157.529 180.393 158.083 180.557C158.646 180.714 159.146 180.967 159.583 181.319C160.021 181.663 160.392 182.124 160.697 182.702C161.009 183.272 161.247 183.971 161.411 184.799C161.576 185.628 161.658 186.6 161.658 187.717ZM159.478 190.671V187.354C159.478 186.589 159.431 185.917 159.337 185.339C159.251 184.753 159.122 184.253 158.951 183.839C158.779 183.424 158.56 183.089 158.294 182.831C158.036 182.573 157.736 182.385 157.392 182.268C157.056 182.143 156.677 182.081 156.255 182.081C155.74 182.081 155.283 182.178 154.884 182.374C154.486 182.561 154.15 182.862 153.876 183.276C153.611 183.69 153.408 184.233 153.267 184.905C153.126 185.577 153.056 186.393 153.056 187.354V190.671C153.056 191.436 153.099 192.112 153.185 192.698C153.279 193.284 153.415 193.792 153.595 194.221C153.775 194.643 153.993 194.991 154.251 195.264C154.509 195.538 154.806 195.741 155.142 195.874C155.486 195.999 155.865 196.061 156.279 196.061C156.81 196.061 157.275 195.96 157.673 195.757C158.072 195.553 158.404 195.237 158.669 194.807C158.943 194.37 159.146 193.811 159.279 193.132C159.411 192.444 159.478 191.624 159.478 190.671Z" fill="white"/>
<path d="M24.6575 187.926V190.527C24.6575 191.926 24.5325 193.105 24.2825 194.066C24.0325 195.027 23.6732 195.801 23.2044 196.387C22.7357 196.973 22.1693 197.398 21.5052 197.664C20.8489 197.922 20.1068 198.051 19.2786 198.051C18.6224 198.051 18.0169 197.969 17.4622 197.805C16.9075 197.641 16.4075 197.379 15.9622 197.019C15.5247 196.652 15.1497 196.176 14.8372 195.59C14.5247 195.004 14.2864 194.293 14.1224 193.457C13.9583 192.621 13.8763 191.644 13.8763 190.527V187.926C13.8763 186.527 14.0013 185.355 14.2513 184.41C14.5091 183.465 14.8724 182.707 15.3411 182.137C15.8099 181.559 16.3724 181.144 17.0286 180.894C17.6927 180.644 18.4349 180.519 19.2552 180.519C19.9193 180.519 20.5286 180.602 21.0833 180.766C21.6458 180.922 22.1458 181.176 22.5833 181.527C23.0208 181.871 23.3919 182.332 23.6966 182.91C24.0091 183.48 24.2474 184.18 24.4114 185.008C24.5755 185.836 24.6575 186.809 24.6575 187.926ZM22.4778 190.879V187.562C22.4778 186.797 22.431 186.125 22.3372 185.547C22.2513 184.961 22.1224 184.461 21.9505 184.047C21.7786 183.633 21.5599 183.297 21.2943 183.039C21.0364 182.781 20.7357 182.594 20.3919 182.477C20.056 182.352 19.6771 182.289 19.2552 182.289C18.7396 182.289 18.2825 182.387 17.8841 182.582C17.4857 182.769 17.1497 183.07 16.8763 183.484C16.6107 183.898 16.4075 184.441 16.2669 185.113C16.1263 185.785 16.056 186.602 16.056 187.562V190.879C16.056 191.644 16.0989 192.32 16.1849 192.906C16.2786 193.492 16.4153 194 16.595 194.43C16.7747 194.852 16.9935 195.199 17.2513 195.473C17.5091 195.746 17.806 195.949 18.1419 196.082C18.4857 196.207 18.8646 196.269 19.2786 196.269C19.8099 196.269 20.2747 196.168 20.6732 195.965C21.0716 195.762 21.4036 195.445 21.6693 195.016C21.9427 194.578 22.1458 194.019 22.2786 193.34C22.4114 192.652 22.4778 191.832 22.4778 190.879Z" fill="white"/>
<rect x="1.02863" y="167.359" width="389" height="40.7999" stroke="#D1D5DB"/>
<line x1="182.029" y1="208.659" x2="182.029" y2="166.859" stroke="#D1D5DB"/>
<line x1="234.029" y1="208.659" x2="234.029" y2="166.859" stroke="#D1D5DB"/>
<line x1="286.029" y1="208.659" x2="286.029" y2="166.859" stroke="#D1D5DB"/>
<line x1="343.029" y1="208.659" x2="343.029" y2="166.859" stroke="#D1D5DB"/>
<line x1="87.0286" y1="208.659" x2="87.0286" y2="166.859" stroke="#D1D5DB"/>
<line x1="133.029" y1="208.659" x2="133.029" y2="166.859" stroke="#D1D5DB"/>
<path d="M42.5286 208.659L42.5286 166.859" stroke="#D1D5DB"/>
<path d="M67.6575 187.717V190.319C67.6575 191.717 67.5325 192.897 67.2825 193.858C67.0325 194.819 66.6732 195.592 66.2044 196.178C65.7357 196.764 65.1693 197.19 64.5052 197.456C63.8489 197.714 63.1068 197.842 62.2786 197.842C61.6224 197.842 61.0169 197.76 60.4622 197.596C59.9075 197.432 59.4075 197.171 58.9622 196.811C58.5247 196.444 58.1497 195.967 57.8372 195.382C57.5247 194.796 57.2864 194.085 57.1224 193.249C56.9583 192.413 56.8763 191.436 56.8763 190.319V187.717C56.8763 186.319 57.0013 185.147 57.2513 184.202C57.5091 183.257 57.8724 182.499 58.3411 181.928C58.8099 181.35 59.3724 180.936 60.0286 180.686C60.6927 180.436 61.4349 180.311 62.2552 180.311C62.9193 180.311 63.5286 180.393 64.0833 180.557C64.6458 180.714 65.1458 180.967 65.5833 181.319C66.0208 181.663 66.3919 182.124 66.6966 182.702C67.0091 183.272 67.2474 183.971 67.4114 184.799C67.5755 185.628 67.6575 186.6 67.6575 187.717ZM65.4778 190.671V187.354C65.4778 186.589 65.431 185.917 65.3372 185.339C65.2513 184.753 65.1224 184.253 64.9505 183.839C64.7786 183.424 64.5599 183.089 64.2943 182.831C64.0364 182.573 63.7357 182.385 63.3919 182.268C63.056 182.143 62.6771 182.081 62.2552 182.081C61.7396 182.081 61.2825 182.178 60.8841 182.374C60.4857 182.561 60.1497 182.862 59.8763 183.276C59.6107 183.69 59.4075 184.233 59.2669 184.905C59.1263 185.577 59.056 186.393 59.056 187.354V190.671C59.056 191.436 59.0989 192.112 59.1849 192.698C59.2786 193.284 59.4153 193.792 59.595 194.221C59.7747 194.643 59.9935 194.991 60.2513 195.264C60.5091 195.538 60.806 195.741 61.1419 195.874C61.4857 195.999 61.8646 196.061 62.2786 196.061C62.8099 196.061 63.2747 195.96 63.6732 195.757C64.0716 195.553 64.4036 195.237 64.6693 194.807C64.9427 194.37 65.1458 193.811 65.2786 193.132C65.4114 192.444 65.4778 191.624 65.4778 190.671Z" fill="white"/>
<path d="M111.658 187.717V190.319C111.658 191.717 111.533 192.897 111.283 193.858C111.033 194.819 110.673 195.592 110.204 196.178C109.736 196.764 109.169 197.19 108.505 197.456C107.849 197.714 107.107 197.842 106.279 197.842C105.622 197.842 105.017 197.76 104.462 197.596C103.908 197.432 103.408 197.171 102.962 196.811C102.525 196.444 102.15 195.967 101.837 195.382C101.525 194.796 101.286 194.085 101.122 193.249C100.958 192.413 100.876 191.436 100.876 190.319V187.717C100.876 186.319 101.001 185.147 101.251 184.202C101.509 183.257 101.872 182.499 102.341 181.928C102.81 181.35 103.372 180.936 104.029 180.686C104.693 180.436 105.435 180.311 106.255 180.311C106.919 180.311 107.529 180.393 108.083 180.557C108.646 180.714 109.146 180.967 109.583 181.319C110.021 181.663 110.392 182.124 110.697 182.702C111.009 183.272 111.247 183.971 111.411 184.799C111.576 185.628 111.658 186.6 111.658 187.717ZM109.478 190.671V187.354C109.478 186.589 109.431 185.917 109.337 185.339C109.251 184.753 109.122 184.253 108.951 183.839C108.779 183.424 108.56 183.089 108.294 182.831C108.036 182.573 107.736 182.385 107.392 182.268C107.056 182.143 106.677 182.081 106.255 182.081C105.74 182.081 105.283 182.178 104.884 182.374C104.486 182.561 104.15 182.862 103.876 183.276C103.611 183.69 103.408 184.233 103.267 184.905C103.126 185.577 103.056 186.393 103.056 187.354V190.671C103.056 191.436 103.099 192.112 103.185 192.698C103.279 193.284 103.415 193.792 103.595 194.221C103.775 194.643 103.993 194.991 104.251 195.264C104.509 195.538 104.806 195.741 105.142 195.874C105.486 195.999 105.865 196.061 106.279 196.061C106.81 196.061 107.275 195.96 107.673 195.757C108.072 195.553 108.404 195.237 108.669 194.807C108.943 194.37 109.146 193.811 109.279 193.132C109.411 192.444 109.478 191.624 109.478 190.671Z" fill="white"/>
<path d="M161.658 187.717V190.319C161.658 191.717 161.533 192.897 161.283 193.858C161.033 194.819 160.673 195.592 160.204 196.178C159.736 196.764 159.169 197.19 158.505 197.456C157.849 197.714 157.107 197.842 156.279 197.842C155.622 197.842 155.017 197.76 154.462 197.596C153.908 197.432 153.408 197.171 152.962 196.811C152.525 196.444 152.15 195.967 151.837 195.382C151.525 194.796 151.286 194.085 151.122 193.249C150.958 192.413 150.876 191.436 150.876 190.319V187.717C150.876 186.319 151.001 185.147 151.251 184.202C151.509 183.257 151.872 182.499 152.341 181.928C152.81 181.35 153.372 180.936 154.029 180.686C154.693 180.436 155.435 180.311 156.255 180.311C156.919 180.311 157.529 180.393 158.083 180.557C158.646 180.714 159.146 180.967 159.583 181.319C160.021 181.663 160.392 182.124 160.697 182.702C161.009 183.272 161.247 183.971 161.411 184.799C161.576 185.628 161.658 186.6 161.658 187.717ZM159.478 190.671V187.354C159.478 186.589 159.431 185.917 159.337 185.339C159.251 184.753 159.122 184.253 158.951 183.839C158.779 183.424 158.56 183.089 158.294 182.831C158.036 182.573 157.736 182.385 157.392 182.268C157.056 182.143 156.677 182.081 156.255 182.081C155.74 182.081 155.283 182.178 154.884 182.374C154.486 182.561 154.15 182.862 153.876 183.276C153.611 183.69 153.408 184.233 153.267 184.905C153.126 185.577 153.056 186.393 153.056 187.354V190.671C153.056 191.436 153.099 192.112 153.185 192.698C153.279 193.284 153.415 193.792 153.595 194.221C153.775 194.643 153.993 194.991 154.251 195.264C154.509 195.538 154.806 195.741 155.142 195.874C155.486 195.999 155.865 196.061 156.279 196.061C156.81 196.061 157.275 195.96 157.673 195.757C158.072 195.553 158.404 195.237 158.669 194.807C158.943 194.37 159.146 193.811 159.279 193.132C159.411 192.444 159.478 191.624 159.478 190.671Z" fill="white"/>
<path d="M214.129 188.109V190.711C214.129 192.109 214.004 193.289 213.754 194.25C213.504 195.211 213.145 195.984 212.676 196.57C212.207 197.156 211.641 197.582 210.977 197.848C210.32 198.105 209.578 198.234 208.75 198.234C208.094 198.234 207.488 198.152 206.934 197.988C206.379 197.824 205.879 197.562 205.434 197.203C204.996 196.836 204.621 196.359 204.309 195.773C203.996 195.188 203.758 194.477 203.594 193.641C203.43 192.805 203.348 191.828 203.348 190.711V188.109C203.348 186.711 203.473 185.539 203.723 184.594C203.98 183.648 204.344 182.891 204.812 182.32C205.281 181.742 205.844 181.328 206.5 181.078C207.164 180.828 207.906 180.703 208.727 180.703C209.391 180.703 210 180.785 210.555 180.949C211.117 181.105 211.617 181.359 212.055 181.711C212.492 182.055 212.863 182.516 213.168 183.094C213.48 183.664 213.719 184.363 213.883 185.191C214.047 186.02 214.129 186.992 214.129 188.109ZM211.949 191.062V187.746C211.949 186.98 211.902 186.309 211.809 185.73C211.723 185.145 211.594 184.645 211.422 184.23C211.25 183.816 211.031 183.48 210.766 183.223C210.508 182.965 210.207 182.777 209.863 182.66C209.527 182.535 209.148 182.473 208.727 182.473C208.211 182.473 207.754 182.57 207.355 182.766C206.957 182.953 206.621 183.254 206.348 183.668C206.082 184.082 205.879 184.625 205.738 185.297C205.598 185.969 205.527 186.785 205.527 187.746V191.062C205.527 191.828 205.57 192.504 205.656 193.09C205.75 193.676 205.887 194.184 206.066 194.613C206.246 195.035 206.465 195.383 206.723 195.656C206.98 195.93 207.277 196.133 207.613 196.266C207.957 196.391 208.336 196.453 208.75 196.453C209.281 196.453 209.746 196.352 210.145 196.148C210.543 195.945 210.875 195.629 211.141 195.199C211.414 194.762 211.617 194.203 211.75 193.523C211.883 192.836 211.949 192.016 211.949 191.062Z" fill="white"/>
<path d="M267.129 188.109V190.711C267.129 192.109 267.004 193.289 266.754 194.25C266.504 195.211 266.145 195.984 265.676 196.57C265.207 197.156 264.641 197.582 263.977 197.848C263.32 198.105 262.578 198.234 261.75 198.234C261.094 198.234 260.488 198.152 259.934 197.988C259.379 197.824 258.879 197.562 258.434 197.203C257.996 196.836 257.621 196.359 257.309 195.773C256.996 195.188 256.758 194.477 256.594 193.641C256.43 192.805 256.348 191.828 256.348 190.711V188.109C256.348 186.711 256.473 185.539 256.723 184.594C256.98 183.648 257.344 182.891 257.812 182.32C258.281 181.742 258.844 181.328 259.5 181.078C260.164 180.828 260.906 180.703 261.727 180.703C262.391 180.703 263 180.785 263.555 180.949C264.117 181.105 264.617 181.359 265.055 181.711C265.492 182.055 265.863 182.516 266.168 183.094C266.48 183.664 266.719 184.363 266.883 185.191C267.047 186.02 267.129 186.992 267.129 188.109ZM264.949 191.062V187.746C264.949 186.98 264.902 186.309 264.809 185.73C264.723 185.145 264.594 184.645 264.422 184.23C264.25 183.816 264.031 183.48 263.766 183.223C263.508 182.965 263.207 182.777 262.863 182.66C262.527 182.535 262.148 182.473 261.727 182.473C261.211 182.473 260.754 182.57 260.355 182.766C259.957 182.953 259.621 183.254 259.348 183.668C259.082 184.082 258.879 184.625 258.738 185.297C258.598 185.969 258.527 186.785 258.527 187.746V191.062C258.527 191.828 258.57 192.504 258.656 193.09C258.75 193.676 258.887 194.184 259.066 194.613C259.246 195.035 259.465 195.383 259.723 195.656C259.98 195.93 260.277 196.133 260.613 196.266C260.957 196.391 261.336 196.453 261.75 196.453C262.281 196.453 262.746 196.352 263.145 196.148C263.543 195.945 263.875 195.629 264.141 195.199C264.414 194.762 264.617 194.203 264.75 193.523C264.883 192.836 264.949 192.016 264.949 191.062Z" fill="white"/>
<path d="M368.543 180.844V198H366.375V183.551L362.004 185.145V183.188L368.203 180.844H368.543Z" fill="white"/>
<path d="M319.543 180.844V198H317.375V183.551L313.004 185.145V183.188L319.203 180.844H319.543Z" fill="white"/>
<path d="M24.6575 187.926V190.527C24.6575 191.926 24.5325 193.105 24.2825 194.066C24.0325 195.027 23.6732 195.801 23.2044 196.387C22.7357 196.973 22.1693 197.398 21.5052 197.664C20.8489 197.922 20.1068 198.051 19.2786 198.051C18.6224 198.051 18.0169 197.969 17.4622 197.805C16.9075 197.641 16.4075 197.379 15.9622 197.019C15.5247 196.652 15.1497 196.176 14.8372 195.59C14.5247 195.004 14.2864 194.293 14.1224 193.457C13.9583 192.621 13.8763 191.644 13.8763 190.527V187.926C13.8763 186.527 14.0013 185.355 14.2513 184.41C14.5091 183.465 14.8724 182.707 15.3411 182.137C15.8099 181.559 16.3724 181.144 17.0286 180.894C17.6927 180.644 18.4349 180.519 19.2552 180.519C19.9193 180.519 20.5286 180.602 21.0833 180.766C21.6458 180.922 22.1458 181.176 22.5833 181.527C23.0208 181.871 23.3919 182.332 23.6966 182.91C24.0091 183.48 24.2474 184.18 24.4114 185.008C24.5755 185.836 24.6575 186.809 24.6575 187.926ZM22.4778 190.879V187.562C22.4778 186.797 22.431 186.125 22.3372 185.547C22.2513 184.961 22.1224 184.461 21.9505 184.047C21.7786 183.633 21.5599 183.297 21.2943 183.039C21.0364 182.781 20.7357 182.594 20.3919 182.477C20.056 182.352 19.6771 182.289 19.2552 182.289C18.7396 182.289 18.2825 182.387 17.8841 182.582C17.4857 182.769 17.1497 183.07 16.8763 183.484C16.6107 183.898 16.4075 184.441 16.2669 185.113C16.1263 185.785 16.056 186.602 16.056 187.562V190.879C16.056 191.644 16.0989 192.32 16.1849 192.906C16.2786 193.492 16.4153 194 16.595 194.43C16.7747 194.852 16.9935 195.199 17.2513 195.473C17.5091 195.746 17.806 195.949 18.1419 196.082C18.4857 196.207 18.8646 196.269 19.2786 196.269C19.8099 196.269 20.2747 196.168 20.6732 195.965C21.0716 195.762 21.4036 195.445 21.6693 195.016C21.9427 194.578 22.1458 194.019 22.2786 193.34C22.4114 192.652 22.4778 191.832 22.4778 190.879Z" fill="white"/>
<path d="M25.1263 249.778V251.559H13.9583V250.001L19.5482 243.778C20.2357 243.012 20.7669 242.364 21.1419 241.833C21.5247 241.294 21.7903 240.813 21.9388 240.391C22.095 239.961 22.1732 239.524 22.1732 239.079C22.1732 238.516 22.056 238.008 21.8216 237.555C21.595 237.094 21.2591 236.727 20.8138 236.454C20.3685 236.18 19.8294 236.044 19.1966 236.044C18.4388 236.044 17.806 236.192 17.2982 236.489C16.7982 236.778 16.4232 237.184 16.1732 237.708C15.9232 238.231 15.7982 238.833 15.7982 239.512H13.6302C13.6302 238.551 13.8411 237.672 14.263 236.876C14.6849 236.079 15.3099 235.446 16.138 234.977C16.9661 234.501 17.9857 234.262 19.1966 234.262C20.2747 234.262 21.1966 234.454 21.9622 234.836C22.7278 235.211 23.3138 235.743 23.72 236.43C24.1341 237.11 24.3411 237.907 24.3411 238.821C24.3411 239.321 24.2552 239.829 24.0833 240.344C23.9193 240.852 23.6888 241.36 23.3919 241.868C23.1028 242.376 22.763 242.876 22.3724 243.368C21.9896 243.86 21.5794 244.344 21.1419 244.821L16.5716 249.778H25.1263Z" fill="white"/>
<path d="M68.1263 249.778V251.559H56.9583V250.001L62.5482 243.778C63.2357 243.012 63.7669 242.364 64.1419 241.833C64.5247 241.294 64.7903 240.813 64.9388 240.391C65.095 239.961 65.1732 239.524 65.1732 239.079C65.1732 238.516 65.056 238.008 64.8216 237.555C64.595 237.094 64.2591 236.727 63.8138 236.454C63.3685 236.18 62.8294 236.044 62.1966 236.044C61.4388 236.044 60.806 236.192 60.2982 236.489C59.7982 236.778 59.4232 237.184 59.1732 237.708C58.9232 238.231 58.7982 238.833 58.7982 239.512H56.6302C56.6302 238.551 56.8411 237.672 57.263 236.876C57.6849 236.079 58.3099 235.446 59.138 234.977C59.9661 234.501 60.9857 234.262 62.1966 234.262C63.2747 234.262 64.1966 234.454 64.9622 234.836C65.7278 235.211 66.3138 235.743 66.72 236.43C67.1341 237.11 67.3411 237.907 67.3411 238.821C67.3411 239.321 67.2552 239.829 67.0833 240.344C66.9193 240.852 66.6888 241.36 66.3919 241.868C66.1028 242.376 65.763 242.876 65.3724 243.368C64.9896 243.86 64.5794 244.344 64.1419 244.821L59.5716 249.778H68.1263Z" fill="white"/>
<path d="M112.126 249.778V251.559H100.958V250.001L106.548 243.778C107.236 243.012 107.767 242.364 108.142 241.833C108.525 241.294 108.79 240.813 108.939 240.391C109.095 239.961 109.173 239.524 109.173 239.079C109.173 238.516 109.056 238.008 108.822 237.555C108.595 237.094 108.259 236.727 107.814 236.454C107.368 236.18 106.829 236.044 106.197 236.044C105.439 236.044 104.806 236.192 104.298 236.489C103.798 236.778 103.423 237.184 103.173 237.708C102.923 238.231 102.798 238.833 102.798 239.512H100.63C100.63 238.551 100.841 237.672 101.263 236.876C101.685 236.079 102.31 235.446 103.138 234.977C103.966 234.501 104.986 234.262 106.197 234.262C107.275 234.262 108.197 234.454 108.962 234.836C109.728 235.211 110.314 235.743 110.72 236.43C111.134 237.11 111.341 237.907 111.341 238.821C111.341 239.321 111.255 239.829 111.083 240.344C110.919 240.852 110.689 241.36 110.392 241.868C110.103 242.376 109.763 242.876 109.372 243.368C108.99 243.86 108.579 244.344 108.142 244.821L103.572 249.778H112.126Z" fill="white"/>
<path d="M162.126 249.778V251.559H150.958V250.001L156.548 243.778C157.236 243.012 157.767 242.364 158.142 241.833C158.525 241.294 158.79 240.813 158.939 240.391C159.095 239.961 159.173 239.524 159.173 239.079C159.173 238.516 159.056 238.008 158.822 237.555C158.595 237.094 158.259 236.727 157.814 236.454C157.368 236.18 156.829 236.044 156.197 236.044C155.439 236.044 154.806 236.192 154.298 236.489C153.798 236.778 153.423 237.184 153.173 237.708C152.923 238.231 152.798 238.833 152.798 239.512H150.63C150.63 238.551 150.841 237.672 151.263 236.876C151.685 236.079 152.31 235.446 153.138 234.977C153.966 234.501 154.986 234.262 156.197 234.262C157.275 234.262 158.197 234.454 158.962 234.836C159.728 235.211 160.314 235.743 160.72 236.43C161.134 237.11 161.341 237.907 161.341 238.821C161.341 239.321 161.255 239.829 161.083 240.344C160.919 240.852 160.689 241.36 160.392 241.868C160.103 242.376 159.763 242.876 159.372 243.368C158.99 243.86 158.579 244.344 158.142 244.821L153.572 249.778H162.126Z" fill="white"/>
<path d="M212.126 249.778V251.559H200.958V250.001L206.548 243.778C207.236 243.012 207.767 242.364 208.142 241.833C208.525 241.294 208.79 240.813 208.939 240.391C209.095 239.961 209.173 239.524 209.173 239.079C209.173 238.516 209.056 238.008 208.822 237.555C208.595 237.094 208.259 236.727 207.814 236.454C207.368 236.18 206.829 236.044 206.197 236.044C205.439 236.044 204.806 236.192 204.298 236.489C203.798 236.778 203.423 237.184 203.173 237.708C202.923 238.231 202.798 238.833 202.798 239.512H200.63C200.63 238.551 200.841 237.672 201.263 236.876C201.685 236.079 202.31 235.446 203.138 234.977C203.966 234.501 204.986 234.262 206.197 234.262C207.275 234.262 208.197 234.454 208.962 234.836C209.728 235.211 210.314 235.743 210.72 236.43C211.134 237.11 211.341 237.907 211.341 238.821C211.341 239.321 211.255 239.829 211.083 240.344C210.919 240.852 210.689 241.36 210.392 241.868C210.103 242.376 209.763 242.876 209.372 243.368C208.99 243.86 208.579 244.344 208.142 244.821L203.572 249.778H212.126Z" fill="white"/>
<path d="M262.126 249.778V251.559H250.958V250.001L256.548 243.778C257.236 243.012 257.767 242.364 258.142 241.833C258.525 241.294 258.79 240.813 258.939 240.391C259.095 239.961 259.173 239.524 259.173 239.079C259.173 238.516 259.056 238.008 258.822 237.555C258.595 237.094 258.259 236.727 257.814 236.454C257.368 236.18 256.829 236.044 256.197 236.044C255.439 236.044 254.806 236.192 254.298 236.489C253.798 236.778 253.423 237.184 253.173 237.708C252.923 238.231 252.798 238.833 252.798 239.512H250.63C250.63 238.551 250.841 237.672 251.263 236.876C251.685 236.079 252.31 235.446 253.138 234.977C253.966 234.501 254.986 234.262 256.197 234.262C257.275 234.262 258.197 234.454 258.962 234.836C259.728 235.211 260.314 235.743 260.72 236.43C261.134 237.11 261.341 237.907 261.341 238.821C261.341 239.321 261.255 239.829 261.083 240.344C260.919 240.852 260.689 241.36 260.392 241.868C260.103 242.376 259.763 242.876 259.372 243.368C258.99 243.86 258.579 244.344 258.142 244.821L253.572 249.778H262.126Z" fill="white"/>
<path d="M319.126 249.778V251.559H307.958V250.001L313.548 243.778C314.236 243.012 314.767 242.364 315.142 241.833C315.525 241.294 315.79 240.813 315.939 240.391C316.095 239.961 316.173 239.524 316.173 239.079C316.173 238.516 316.056 238.008 315.822 237.555C315.595 237.094 315.259 236.727 314.814 236.454C314.368 236.18 313.829 236.044 313.197 236.044C312.439 236.044 311.806 236.192 311.298 236.489C310.798 236.778 310.423 237.184 310.173 237.708C309.923 238.231 309.798 238.833 309.798 239.512H307.63C307.63 238.551 307.841 237.672 308.263 236.876C308.685 236.079 309.31 235.446 310.138 234.977C310.966 234.501 311.986 234.262 313.197 234.262C314.275 234.262 315.197 234.454 315.962 234.836C316.728 235.211 317.314 235.743 317.72 236.43C318.134 237.11 318.341 237.907 318.341 238.821C318.341 239.321 318.255 239.829 318.083 240.344C317.919 240.852 317.689 241.36 317.392 241.868C317.103 242.376 316.763 242.876 316.372 243.368C315.99 243.86 315.579 244.344 315.142 244.821L310.572 249.778H319.126Z" fill="white"/>
<path d="M371.126 249.778V251.559H359.958V250.001L365.548 243.778C366.236 243.012 366.767 242.364 367.142 241.833C367.525 241.294 367.79 240.813 367.939 240.391C368.095 239.961 368.173 239.524 368.173 239.079C368.173 238.516 368.056 238.008 367.822 237.555C367.595 237.094 367.259 236.727 366.814 236.454C366.368 236.18 365.829 236.044 365.197 236.044C364.439 236.044 363.806 236.192 363.298 236.489C362.798 236.778 362.423 237.184 362.173 237.708C361.923 238.231 361.798 238.833 361.798 239.512H359.63C359.63 238.551 359.841 237.672 360.263 236.876C360.685 236.079 361.31 235.446 362.138 234.977C362.966 234.501 363.986 234.262 365.197 234.262C366.275 234.262 367.197 234.454 367.962 234.836C368.728 235.211 369.314 235.743 369.72 236.43C370.134 237.11 370.341 237.907 370.341 238.821C370.341 239.321 370.255 239.829 370.083 240.344C369.919 240.852 369.689 241.36 369.392 241.868C369.103 242.376 368.763 242.876 368.372 243.368C367.99 243.86 367.579 244.344 367.142 244.821L362.572 249.778H371.126Z" fill="white"/>
<path d="M379.615 229.008V230.743C379.615 231.675 379.531 232.461 379.365 233.102C379.198 233.743 378.958 234.258 378.646 234.649C378.333 235.039 377.956 235.323 377.513 235.5C377.076 235.672 376.581 235.758 376.029 235.758C375.591 235.758 375.187 235.704 374.818 235.594C374.448 235.485 374.115 235.31 373.818 235.071C373.526 234.826 373.276 234.508 373.068 234.118C372.859 233.727 372.701 233.253 372.591 232.696C372.482 232.138 372.427 231.487 372.427 230.743V229.008C372.427 228.076 372.51 227.295 372.677 226.664C372.849 226.034 373.091 225.529 373.404 225.149C373.716 224.763 374.091 224.487 374.529 224.321C374.971 224.154 375.466 224.071 376.013 224.071C376.456 224.071 376.862 224.125 377.232 224.235C377.607 224.339 377.94 224.508 378.232 224.743C378.523 224.972 378.771 225.279 378.974 225.664C379.182 226.045 379.341 226.511 379.451 227.063C379.56 227.615 379.615 228.263 379.615 229.008ZM378.161 230.977V228.766C378.161 228.256 378.13 227.808 378.068 227.422C378.01 227.032 377.924 226.698 377.81 226.422C377.695 226.146 377.549 225.922 377.372 225.75C377.201 225.579 377 225.454 376.771 225.375C376.547 225.292 376.294 225.25 376.013 225.25C375.669 225.25 375.365 225.316 375.099 225.446C374.833 225.571 374.609 225.771 374.427 226.047C374.25 226.323 374.115 226.685 374.021 227.133C373.927 227.581 373.88 228.125 373.88 228.766V230.977C373.88 231.487 373.909 231.938 373.966 232.329C374.029 232.719 374.12 233.058 374.24 233.344C374.359 233.625 374.505 233.857 374.677 234.039C374.849 234.222 375.047 234.357 375.271 234.446C375.5 234.529 375.753 234.571 376.029 234.571C376.383 234.571 376.693 234.503 376.958 234.368C377.224 234.232 377.445 234.021 377.622 233.735C377.805 233.443 377.94 233.071 378.029 232.618C378.117 232.159 378.161 231.612 378.161 230.977Z" fill="white"/>
<path d="M325.224 224.164V235.602H323.779V225.969L320.865 227.032V225.727L324.997 224.164H325.224Z" fill="white"/>
<path d="M270.927 234.414V235.602H263.482V234.563L267.208 230.414C267.667 229.904 268.021 229.472 268.271 229.118C268.526 228.758 268.703 228.438 268.802 228.157C268.906 227.87 268.958 227.579 268.958 227.282C268.958 226.907 268.88 226.568 268.724 226.266C268.573 225.959 268.349 225.714 268.052 225.532C267.755 225.349 267.396 225.258 266.974 225.258C266.469 225.258 266.047 225.357 265.708 225.555C265.375 225.748 265.125 226.019 264.958 226.368C264.792 226.717 264.708 227.118 264.708 227.571H263.263C263.263 226.93 263.404 226.344 263.685 225.813C263.966 225.282 264.383 224.86 264.935 224.547C265.487 224.23 266.167 224.071 266.974 224.071C267.693 224.071 268.307 224.198 268.818 224.454C269.328 224.704 269.719 225.058 269.99 225.516C270.266 225.969 270.404 226.5 270.404 227.11C270.404 227.443 270.346 227.782 270.232 228.125C270.122 228.464 269.969 228.803 269.771 229.141C269.578 229.48 269.352 229.813 269.091 230.141C268.836 230.469 268.562 230.792 268.271 231.11L265.224 234.414H270.927Z" fill="white"/>
<path d="M213.583 229.204H214.615C215.12 229.204 215.536 229.12 215.865 228.954C216.198 228.782 216.445 228.55 216.607 228.258C216.773 227.961 216.857 227.628 216.857 227.258C216.857 226.821 216.784 226.454 216.638 226.157C216.492 225.86 216.273 225.636 215.982 225.485C215.69 225.334 215.32 225.258 214.872 225.258C214.466 225.258 214.107 225.339 213.794 225.5C213.487 225.657 213.245 225.881 213.068 226.172C212.896 226.464 212.81 226.808 212.81 227.204H211.365C211.365 226.625 211.51 226.099 211.802 225.625C212.094 225.151 212.503 224.774 213.029 224.493C213.56 224.211 214.174 224.071 214.872 224.071C215.56 224.071 216.161 224.193 216.677 224.438C217.193 224.678 217.594 225.037 217.88 225.516C218.167 225.99 218.31 226.581 218.31 227.289C218.31 227.576 218.242 227.883 218.107 228.211C217.977 228.534 217.771 228.836 217.49 229.118C217.214 229.399 216.854 229.631 216.411 229.813C215.969 229.99 215.437 230.079 214.818 230.079H213.583V229.204ZM213.583 230.391V229.524H214.818C215.542 229.524 216.141 229.61 216.615 229.782C217.089 229.954 217.461 230.183 217.732 230.469C218.008 230.756 218.201 231.071 218.31 231.414C218.424 231.753 218.482 232.092 218.482 232.43C218.482 232.961 218.391 233.433 218.208 233.844C218.031 234.256 217.779 234.605 217.451 234.891C217.128 235.178 216.747 235.394 216.31 235.539C215.872 235.685 215.396 235.758 214.88 235.758C214.385 235.758 213.919 235.688 213.482 235.547C213.049 235.407 212.667 235.204 212.333 234.938C212 234.667 211.74 234.336 211.552 233.946C211.365 233.55 211.271 233.099 211.271 232.594H212.716C212.716 232.99 212.802 233.336 212.974 233.633C213.151 233.93 213.401 234.162 213.724 234.329C214.052 234.49 214.437 234.571 214.88 234.571C215.323 234.571 215.703 234.495 216.021 234.344C216.344 234.188 216.591 233.954 216.763 233.641C216.94 233.329 217.029 232.935 217.029 232.461C217.029 231.987 216.93 231.599 216.732 231.297C216.534 230.99 216.253 230.763 215.888 230.618C215.529 230.467 215.104 230.391 214.615 230.391H213.583Z" fill="white"/>
<path d="M171.161 231.774V232.961H162.943V232.11L168.036 224.227H169.216L167.951 226.508L164.583 231.774H171.161ZM169.576 224.227V235.602H168.13V224.227H169.576Z" fill="white"/>
<path d="M115.302 230.188L114.146 229.891L114.716 224.227H120.552V225.563H115.943L115.599 228.657C115.807 228.537 116.07 228.425 116.388 228.321C116.711 228.217 117.081 228.164 117.497 228.164C118.023 228.164 118.495 228.256 118.911 228.438C119.328 228.615 119.682 228.87 119.974 229.204C120.271 229.537 120.497 229.938 120.654 230.407C120.81 230.875 120.888 231.399 120.888 231.977C120.888 232.524 120.812 233.026 120.661 233.485C120.516 233.943 120.294 234.344 119.997 234.688C119.701 235.026 119.326 235.289 118.872 235.477C118.424 235.664 117.896 235.758 117.286 235.758C116.828 235.758 116.393 235.696 115.982 235.571C115.576 235.441 115.211 235.245 114.888 234.985C114.57 234.719 114.31 234.391 114.107 234C113.909 233.605 113.784 233.141 113.732 232.61H115.107C115.169 233.037 115.294 233.396 115.482 233.688C115.669 233.98 115.914 234.201 116.216 234.352C116.523 234.498 116.88 234.571 117.286 234.571C117.63 234.571 117.935 234.511 118.201 234.391C118.466 234.271 118.69 234.099 118.872 233.875C119.055 233.651 119.193 233.381 119.286 233.063C119.385 232.745 119.435 232.388 119.435 231.993C119.435 231.633 119.385 231.3 119.286 230.993C119.187 230.685 119.039 230.417 118.841 230.188C118.648 229.959 118.411 229.782 118.13 229.657C117.849 229.526 117.526 229.461 117.161 229.461C116.677 229.461 116.31 229.526 116.06 229.657C115.815 229.787 115.562 229.964 115.302 230.188Z" fill="white"/>
<path d="M75.0208 224.211H75.1458V225.438H75.0208C74.2552 225.438 73.6146 225.563 73.0989 225.813C72.5833 226.058 72.1745 226.388 71.8724 226.805C71.5703 227.217 71.3515 227.68 71.2161 228.196C71.0859 228.711 71.0208 229.235 71.0208 229.766V231.438C71.0208 231.943 71.0807 232.391 71.2005 232.782C71.3203 233.167 71.4844 233.493 71.6927 233.758C71.901 234.024 72.1354 234.224 72.3958 234.36C72.6614 234.495 72.9375 234.563 73.2239 234.563C73.5573 234.563 73.8541 234.5 74.1146 234.375C74.375 234.245 74.5937 234.066 74.7708 233.836C74.9531 233.602 75.0911 233.326 75.1849 233.008C75.2786 232.691 75.3255 232.342 75.3255 231.961C75.3255 231.623 75.2838 231.297 75.2005 230.985C75.1172 230.667 74.9896 230.386 74.8177 230.141C74.6458 229.891 74.4297 229.696 74.1693 229.555C73.914 229.409 73.6094 229.336 73.2552 229.336C72.8541 229.336 72.4791 229.435 72.1302 229.633C71.7864 229.826 71.5026 230.081 71.2786 230.399C71.0599 230.711 70.9349 231.053 70.9036 231.422L70.138 231.414C70.2109 230.831 70.3463 230.334 70.5443 229.922C70.7474 229.506 70.9974 229.167 71.2943 228.907C71.5963 228.641 71.9323 228.448 72.3021 228.329C72.6771 228.204 73.0729 228.141 73.4896 228.141C74.0573 228.141 74.5469 228.248 74.9583 228.461C75.3698 228.675 75.7083 228.961 75.9739 229.321C76.2396 229.675 76.4349 230.076 76.5599 230.524C76.6901 230.967 76.7552 231.422 76.7552 231.891C76.7552 232.428 76.6797 232.93 76.5286 233.399C76.3776 233.868 76.151 234.279 75.8489 234.633C75.5521 234.987 75.1849 235.263 74.7474 235.461C74.3099 235.659 73.8021 235.758 73.2239 235.758C72.6094 235.758 72.0729 235.633 71.6146 235.383C71.1562 235.128 70.776 234.789 70.4739 234.368C70.1719 233.946 69.9453 233.477 69.7943 232.961C69.6432 232.446 69.5677 231.922 69.5677 231.391V230.711C69.5677 229.909 69.6484 229.123 69.8099 228.352C69.9713 227.581 70.25 226.883 70.6458 226.258C71.0469 225.633 71.6015 225.136 72.3099 224.766C73.0182 224.396 73.9219 224.211 75.0208 224.211Z" fill="white"/>
<path d="M32.8255 224.227V225.039L28.1146 235.602H26.5911L31.2943 225.414H25.138V224.227H32.8255Z" fill="white"/>
<path d="M429.555 186.574V188.461H419.781V186.574H429.555ZM429.555 191.438V193.324H419.781V191.438H429.555ZM441.707 188.402H443.254C444.012 188.402 444.637 188.277 445.129 188.027C445.629 187.77 446 187.422 446.242 186.984C446.492 186.539 446.617 186.039 446.617 185.484C446.617 184.828 446.508 184.277 446.289 183.832C446.07 183.387 445.742 183.051 445.305 182.824C444.867 182.598 444.312 182.484 443.641 182.484C443.031 182.484 442.492 182.605 442.023 182.848C441.562 183.082 441.199 183.418 440.934 183.855C440.676 184.293 440.547 184.809 440.547 185.402H438.379C438.379 184.535 438.598 183.746 439.035 183.035C439.473 182.324 440.086 181.758 440.875 181.336C441.672 180.914 442.594 180.703 443.641 180.703C444.672 180.703 445.574 180.887 446.348 181.254C447.121 181.613 447.723 182.152 448.152 182.871C448.582 183.582 448.797 184.469 448.797 185.531C448.797 185.961 448.695 186.422 448.492 186.914C448.297 187.398 447.988 187.852 447.566 188.273C447.152 188.695 446.613 189.043 445.949 189.316C445.285 189.582 444.488 189.715 443.559 189.715H441.707V188.402ZM441.707 190.184V188.883H443.559C444.645 188.883 445.543 189.012 446.254 189.27C446.965 189.527 447.523 189.871 447.93 190.301C448.344 190.73 448.633 191.203 448.797 191.719C448.969 192.227 449.055 192.734 449.055 193.242C449.055 194.039 448.918 194.746 448.645 195.363C448.379 195.98 448 196.504 447.508 196.934C447.023 197.363 446.453 197.688 445.797 197.906C445.141 198.125 444.426 198.234 443.652 198.234C442.91 198.234 442.211 198.129 441.555 197.918C440.906 197.707 440.332 197.402 439.832 197.004C439.332 196.598 438.941 196.102 438.66 195.516C438.379 194.922 438.238 194.246 438.238 193.488H440.406C440.406 194.082 440.535 194.602 440.793 195.047C441.059 195.492 441.434 195.84 441.918 196.09C442.41 196.332 442.988 196.453 443.652 196.453C444.316 196.453 444.887 196.34 445.363 196.113C445.848 195.879 446.219 195.527 446.477 195.059C446.742 194.59 446.875 194 446.875 193.289C446.875 192.578 446.727 191.996 446.43 191.543C446.133 191.082 445.711 190.742 445.164 190.523C444.625 190.297 443.988 190.184 443.254 190.184H441.707Z" fill="white"/>
<path d="M421.939 161.061C422.525 161.646 423.475 161.646 424.061 161.061L433.607 151.515C434.192 150.929 434.192 149.979 433.607 149.393C433.021 148.808 432.071 148.808 431.485 149.393L423 157.879L414.515 149.393C413.929 148.808 412.979 148.808 412.393 149.393C411.808 149.979 411.808 150.929 412.393 151.515L421.939 161.061ZM421.5 68V160H424.5V68H421.5Z" fill="#D1D5DB"/>
<path d="M444.738 113.91H444.926V115.75H444.738C443.59 115.75 442.629 115.937 441.855 116.312C441.082 116.68 440.469 117.176 440.016 117.801C439.562 118.418 439.234 119.113 439.031 119.887C438.836 120.66 438.738 121.445 438.738 122.242V124.75C438.738 125.508 438.828 126.18 439.008 126.766C439.188 127.344 439.434 127.832 439.746 128.23C440.059 128.629 440.41 128.93 440.801 129.133C441.199 129.336 441.613 129.437 442.043 129.437C442.543 129.437 442.988 129.344 443.379 129.156C443.77 128.961 444.098 128.691 444.363 128.348C444.637 127.996 444.844 127.582 444.984 127.105C445.125 126.629 445.195 126.105 445.195 125.535C445.195 125.027 445.133 124.539 445.008 124.07C444.883 123.594 444.691 123.172 444.434 122.805C444.176 122.43 443.852 122.137 443.461 121.926C443.078 121.707 442.621 121.598 442.09 121.598C441.488 121.598 440.926 121.746 440.402 122.043C439.887 122.332 439.461 122.715 439.125 123.191C438.797 123.66 438.609 124.172 438.562 124.726L437.414 124.715C437.523 123.84 437.727 123.094 438.023 122.476C438.328 121.851 438.703 121.344 439.148 120.953C439.602 120.555 440.105 120.266 440.66 120.086C441.223 119.898 441.816 119.805 442.441 119.805C443.293 119.805 444.027 119.965 444.645 120.285C445.262 120.605 445.77 121.035 446.168 121.574C446.566 122.105 446.859 122.707 447.047 123.379C447.242 124.043 447.34 124.726 447.34 125.43C447.34 126.234 447.227 126.988 447 127.691C446.773 128.394 446.434 129.012 445.98 129.543C445.535 130.074 444.984 130.488 444.328 130.785C443.672 131.082 442.91 131.23 442.043 131.23C441.121 131.23 440.316 131.043 439.629 130.668C438.941 130.285 438.371 129.777 437.918 129.144C437.465 128.512 437.125 127.808 436.898 127.035C436.672 126.262 436.559 125.476 436.559 124.68V123.66C436.559 122.457 436.68 121.277 436.922 120.121C437.164 118.965 437.582 117.918 438.176 116.98C438.777 116.043 439.609 115.297 440.672 114.742C441.734 114.187 443.09 113.91 444.738 113.91ZM458.414 123.59L450.082 120.344V118.105L460.09 122.535V123.906L458.414 123.59ZM450.082 126.449L458.438 123.133L460.09 122.887V124.246L450.082 128.687V126.449ZM470.977 123.59L462.645 120.344V118.105L472.652 122.535V123.906L470.977 123.59ZM462.645 126.449L471 123.133L472.652 122.887V124.246L462.645 128.687V126.449ZM482.168 113.84V130.996H480V116.547L475.629 118.141V116.183L481.828 113.84H482.168Z" fill="white"/>
<path d="M415.45 26.3956C416.221 26.6992 417.092 26.3205 417.396 25.5497L422.343 12.9889C422.647 12.2181 422.268 11.3472 421.497 11.0436C420.726 10.74 419.855 11.1187 419.552 11.8895L415.154 23.0546L403.989 18.6569C403.218 18.3534 402.347 18.7321 402.044 19.5029C401.74 20.2737 402.119 21.1446 402.89 21.4482L415.45 26.3956ZM377.257 25.8179C381.928 18.6376 385.824 13.101 389.257 9.30839C392.74 5.46109 395.489 3.7056 397.823 3.51725C400.017 3.34022 402.389 4.53133 405.228 8.15641C408.057 11.7681 411.096 17.4835 414.624 25.5982L417.376 24.4018C413.829 16.2466 410.667 10.2352 407.59 6.30652C404.523 2.39122 401.283 0.228343 397.582 0.526973C394.021 0.814291 390.592 3.36412 387.033 7.29503C383.425 11.2807 379.417 16.9952 374.743 24.1821L377.257 25.8179Z" fill="#D1D5DB"/>
<path d="M359.45 26.3956C360.221 26.6992 361.092 26.3205 361.396 25.5497L366.343 12.9889C366.647 12.2181 366.268 11.3472 365.497 11.0436C364.726 10.74 363.855 11.1187 363.552 11.8895L359.154 23.0546L347.989 18.6569C347.218 18.3534 346.347 18.7321 346.044 19.5029C345.74 20.2737 346.119 21.1446 346.89 21.4482L359.45 26.3956ZM321.257 25.8179C325.928 18.6376 329.824 13.101 333.257 9.30839C336.74 5.46109 339.489 3.7056 341.823 3.51725C344.017 3.34022 346.389 4.53133 349.228 8.15641C352.057 11.7681 355.096 17.4835 358.624 25.5982L361.376 24.4018C357.829 16.2466 354.667 10.2352 351.59 6.30652C348.523 2.39122 345.283 0.228343 341.582 0.526973C338.021 0.814291 334.592 3.36412 331.033 7.29503C327.425 11.2807 323.417 16.9952 318.743 24.1821L321.257 25.8179Z" fill="#D1D5DB"/>
<path d="M302.45 26.3956C303.221 26.6992 304.092 26.3205 304.396 25.5497L309.343 12.9889C309.647 12.2181 309.268 11.3472 308.497 11.0436C307.726 10.74 306.855 11.1187 306.552 11.8895L302.154 23.0546L290.989 18.6569C290.218 18.3534 289.347 18.7321 289.044 19.5029C288.74 20.2737 289.119 21.1446 289.89 21.4482L302.45 26.3956ZM264.257 25.8179C268.928 18.6376 272.824 13.101 276.257 9.30839C279.74 5.46109 282.489 3.7056 284.823 3.51725C287.017 3.34022 289.389 4.53133 292.228 8.15641C295.057 11.7681 298.096 17.4835 301.624 25.5982L304.376 24.4018C300.829 16.2466 297.667 10.2352 294.59 6.30652C291.523 2.39122 288.283 0.228343 284.582 0.526973C281.021 0.814291 277.592 3.36412 274.033 7.29503C270.425 11.2807 266.417 16.9952 261.743 24.1821L264.257 25.8179Z" fill="#D1D5DB"/>
<path d="M249.45 26.3956C250.221 26.6992 251.092 26.3205 251.396 25.5497L256.343 12.9889C256.647 12.2181 256.268 11.3472 255.497 11.0436C254.726 10.74 253.855 11.1187 253.552 11.8895L249.154 23.0546L237.989 18.6569C237.218 18.3534 236.347 18.7321 236.044 19.5029C235.74 20.2737 236.119 21.1446 236.89 21.4482L249.45 26.3956ZM211.257 25.8179C215.928 18.6376 219.824 13.101 223.257 9.30839C226.74 5.46109 229.489 3.7056 231.823 3.51725C234.017 3.34022 236.389 4.53133 239.228 8.15641C242.057 11.7681 245.096 17.4835 248.624 25.5982L251.376 24.4018C247.829 16.2466 244.667 10.2352 241.59 6.30652C238.523 2.39122 235.283 0.228343 231.582 0.526973C228.021 0.814291 224.592 3.36412 221.033 7.29503C217.425 11.2807 213.417 16.9952 208.743 24.1821L211.257 25.8179Z" fill="#D1D5DB"/>
<path d="M197.45 26.3956C198.221 26.6992 199.092 26.3205 199.396 25.5497L204.343 12.9889C204.647 12.2181 204.268 11.3472 203.497 11.0436C202.726 10.74 201.855 11.1187 201.552 11.8895L197.154 23.0546L185.989 18.6569C185.218 18.3534 184.347 18.7321 184.044 19.5029C183.74 20.2737 184.119 21.1446 184.89 21.4482L197.45 26.3956ZM159.257 25.8179C163.928 18.6376 167.824 13.101 171.257 9.30839C174.74 5.46109 177.489 3.7056 179.823 3.51725C182.017 3.34022 184.389 4.53133 187.228 8.15641C190.057 11.7681 193.096 17.4835 196.624 25.5982L199.376 24.4018C195.829 16.2466 192.667 10.2352 189.59 6.30652C186.523 2.39122 183.283 0.228343 179.582 0.526973C176.021 0.814291 172.592 3.36412 169.033 7.29503C165.425 11.2807 161.417 16.9952 156.743 24.1821L159.257 25.8179Z" fill="#D1D5DB"/>
<path d="M149.45 26.3956C150.221 26.6992 151.092 26.3205 151.396 25.5497L156.343 12.9889C156.647 12.2181 156.268 11.3472 155.497 11.0436C154.726 10.74 153.855 11.1187 153.552 11.8895L149.154 23.0546L137.989 18.6569C137.218 18.3534 136.347 18.7321 136.044 19.5029C135.74 20.2737 136.119 21.1446 136.89 21.4482L149.45 26.3956ZM111.257 25.8179C115.928 18.6376 119.824 13.101 123.257 9.30839C126.74 5.46109 129.489 3.7056 131.823 3.51725C134.017 3.34022 136.389 4.53133 139.228 8.15641C142.057 11.7681 145.096 17.4835 148.624 25.5982L151.376 24.4018C147.829 16.2466 144.667 10.2352 141.59 6.30652C138.523 2.39122 135.283 0.228343 131.582 0.526973C128.021 0.814291 124.592 3.36412 121.033 7.29503C117.425 11.2807 113.417 16.9952 108.743 24.1821L111.257 25.8179Z" fill="#D1D5DB"/>
<path d="M103.45 26.3956C104.221 26.6992 105.092 26.3205 105.396 25.5497L110.343 12.9889C110.647 12.2181 110.268 11.3472 109.497 11.0436C108.726 10.74 107.855 11.1187 107.552 11.8895L103.154 23.0546L91.9889 18.6569C91.2181 18.3534 90.3472 18.7321 90.0436 19.5029C89.74 20.2737 90.1187 21.1446 90.8895 21.4482L103.45 26.3956ZM65.2574 25.8179C69.9279 18.6376 73.8241 13.101 77.2573 9.30839C80.7402 5.46109 83.4893 3.7056 85.8235 3.51725C88.0175 3.34022 90.3886 4.53133 93.228 8.15641C96.0569 11.7681 99.0958 17.4835 102.624 25.5982L105.376 24.4018C101.829 16.2466 98.667 10.2352 95.5898 6.30652C92.5231 2.39122 89.2831 0.228343 85.5822 0.526973C82.0214 0.814291 78.5918 3.36412 75.0333 7.29503C71.4252 11.2807 67.4174 16.9952 62.7426 24.1821L65.2574 25.8179Z" fill="#D1D5DB"/>
<path d="M55.4503 26.3956C56.2211 26.6992 57.092 26.3205 57.3956 25.5497L62.343 12.9889C62.6466 12.2181 62.2679 11.3472 61.4971 11.0436C60.7263 10.74 59.8554 11.1187 59.5518 11.8895L55.1541 23.0546L43.9889 18.6569C43.2181 18.3534 42.3472 18.7321 42.0436 19.5029C41.74 20.2737 42.1187 21.1446 42.8895 21.4482L55.4503 26.3956ZM17.2574 25.8179C21.9279 18.6376 25.8241 13.101 29.2573 9.30839C32.7402 5.46109 35.4893 3.7056 37.8235 3.51725C40.0175 3.34022 42.3886 4.53133 45.228 8.15641C48.0569 11.7681 51.0958 17.4835 54.6244 25.5982L57.3756 24.4018C53.8293 16.2466 50.667 10.2352 47.5898 6.30652C44.5231 2.39122 41.2831 0.228343 37.5822 0.526973C34.0214 0.814291 30.5918 3.36412 27.0333 7.29503C23.4252 11.2807 19.4174 16.9952 14.7426 24.1821L17.2574 25.8179Z" fill="#D1D5DB"/>
</svg>
