<svg width="652" height="1042" viewBox="0 0 652 1042" fill="none" xmlns="http://www.w3.org/2000/svg">
<path d="M79.5 231.5C79.5 254.161 61.7981 272.5 40 272.5C18.2019 272.5 0.5 254.161 0.5 231.5C0.5 208.839 18.2019 190.5 40 190.5C61.7981 190.5 79.5 208.839 79.5 231.5Z" stroke="white"/>
<path d="M172.5 75.5C172.5 98.1612 154.798 116.5 133 116.5C111.202 116.5 93.5 98.1612 93.5 75.5C93.5 52.8388 111.202 34.5 133 34.5C154.798 34.5 172.5 52.8388 172.5 75.5Z" stroke="white"/>
<path d="M266.5 231.5C266.5 254.161 248.798 272.5 227 272.5C205.202 272.5 187.5 254.161 187.5 231.5C187.5 208.839 205.202 190.5 227 190.5C248.798 190.5 266.5 208.839 266.5 231.5Z" stroke="white"/>
<path d="M41.543 221.844V239H39.375V224.551L35.0039 226.145V224.188L41.2031 221.844H41.543Z" fill="white"/>
<path d="M138.598 81.2188V83H127.43V81.4414L133.02 75.2188C133.707 74.4531 134.238 73.8047 134.613 73.2734C134.996 72.7344 135.262 72.2539 135.41 71.832C135.566 71.4023 135.645 70.9648 135.645 70.5195C135.645 69.957 135.527 69.4492 135.293 68.9961C135.066 68.5352 134.73 68.168 134.285 67.8945C133.84 67.6211 133.301 67.4844 132.668 67.4844C131.91 67.4844 131.277 67.6328 130.77 67.9297C130.27 68.2188 129.895 68.625 129.645 69.1484C129.395 69.6719 129.27 70.2734 129.27 70.9531H127.102C127.102 69.9922 127.312 69.1133 127.734 68.3164C128.156 67.5195 128.781 66.8867 129.609 66.418C130.438 65.9414 131.457 65.7031 132.668 65.7031C133.746 65.7031 134.668 65.8945 135.434 66.2773C136.199 66.6523 136.785 67.1836 137.191 67.8711C137.605 68.5508 137.812 69.3477 137.812 70.2617C137.812 70.7617 137.727 71.2695 137.555 71.7852C137.391 72.293 137.16 72.8008 136.863 73.3086C136.574 73.8164 136.234 74.3164 135.844 74.8086C135.461 75.3008 135.051 75.7852 134.613 76.2617L130.043 81.2188H138.598Z" fill="white"/>
<path d="M224.582 229.402H226.129C226.887 229.402 227.512 229.277 228.004 229.027C228.504 228.77 228.875 228.422 229.117 227.984C229.367 227.539 229.492 227.039 229.492 226.484C229.492 225.828 229.383 225.277 229.164 224.832C228.945 224.387 228.617 224.051 228.18 223.824C227.742 223.598 227.188 223.484 226.516 223.484C225.906 223.484 225.367 223.605 224.898 223.848C224.438 224.082 224.074 224.418 223.809 224.855C223.551 225.293 223.422 225.809 223.422 226.402H221.254C221.254 225.535 221.473 224.746 221.91 224.035C222.348 223.324 222.961 222.758 223.75 222.336C224.547 221.914 225.469 221.703 226.516 221.703C227.547 221.703 228.449 221.887 229.223 222.254C229.996 222.613 230.598 223.152 231.027 223.871C231.457 224.582 231.672 225.469 231.672 226.531C231.672 226.961 231.57 227.422 231.367 227.914C231.172 228.398 230.863 228.852 230.441 229.273C230.027 229.695 229.488 230.043 228.824 230.316C228.16 230.582 227.363 230.715 226.434 230.715H224.582V229.402ZM224.582 231.184V229.883H226.434C227.52 229.883 228.418 230.012 229.129 230.27C229.84 230.527 230.398 230.871 230.805 231.301C231.219 231.73 231.508 232.203 231.672 232.719C231.844 233.227 231.93 233.734 231.93 234.242C231.93 235.039 231.793 235.746 231.52 236.363C231.254 236.98 230.875 237.504 230.383 237.934C229.898 238.363 229.328 238.688 228.672 238.906C228.016 239.125 227.301 239.234 226.527 239.234C225.785 239.234 225.086 239.129 224.43 238.918C223.781 238.707 223.207 238.402 222.707 238.004C222.207 237.598 221.816 237.102 221.535 236.516C221.254 235.922 221.113 235.246 221.113 234.488H223.281C223.281 235.082 223.41 235.602 223.668 236.047C223.934 236.492 224.309 236.84 224.793 237.09C225.285 237.332 225.863 237.453 226.527 237.453C227.191 237.453 227.762 237.34 228.238 237.113C228.723 236.879 229.094 236.527 229.352 236.059C229.617 235.59 229.75 235 229.75 234.289C229.75 233.578 229.602 232.996 229.305 232.543C229.008 232.082 228.586 231.742 228.039 231.523C227.5 231.297 226.863 231.184 226.129 231.184H224.582Z" fill="white"/>
<line x1="80" y1="230.5" x2="187" y2="230.5" stroke="white"/>
<line x1="39.5861" y1="190.719" x2="100.586" y2="100.719" stroke="white"/>
<line x1="165.413" y1="99.7185" x2="227.413" y2="190.718" stroke="white"/>
<path d="M86.7422 4.9375H88.9922V16.4805C88.9922 17.7617 88.707 18.8281 88.1367 19.6797C87.5664 20.5312 86.8086 21.1719 85.8633 21.6016C84.9258 22.0234 83.9062 22.2344 82.8047 22.2344C81.6484 22.2344 80.6016 22.0234 79.6641 21.6016C78.7344 21.1719 77.9961 20.5312 77.4492 19.6797C76.9102 18.8281 76.6406 17.7617 76.6406 16.4805V4.9375H78.8789V16.4805C78.8789 17.3711 79.043 18.1055 79.3711 18.6836C79.6992 19.2617 80.1562 19.6914 80.7422 19.9727C81.3359 20.2539 82.0234 20.3945 82.8047 20.3945C83.5938 20.3945 84.2812 20.2539 84.8672 19.9727C85.4609 19.6914 85.9219 19.2617 86.25 18.6836C86.5781 18.1055 86.7422 17.3711 86.7422 16.4805V4.9375ZM94.3828 12.0273V22H92.2148V9.32031H94.2656L94.3828 12.0273ZM93.8672 15.1797L92.9648 15.1445C92.9727 14.2773 93.1016 13.4766 93.3516 12.7422C93.6016 12 93.9531 11.3555 94.4062 10.8086C94.8594 10.2617 95.3984 9.83984 96.0234 9.54297C96.6562 9.23828 97.3555 9.08594 98.1211 9.08594C98.7461 9.08594 99.3086 9.17188 99.8086 9.34375C100.309 9.50781 100.734 9.77344 101.086 10.1406C101.445 10.5078 101.719 10.9844 101.906 11.5703C102.094 12.1484 102.188 12.8555 102.188 13.6914V22H100.008V13.668C100.008 13.0039 99.9102 12.4727 99.7148 12.0742C99.5195 11.668 99.2344 11.375 98.8594 11.1953C98.4844 11.0078 98.0234 10.9141 97.4766 10.9141C96.9375 10.9141 96.4453 11.0273 96 11.2539C95.5625 11.4805 95.1836 11.793 94.8633 12.1914C94.5508 12.5898 94.3047 13.0469 94.125 13.5625C93.9531 14.0703 93.8672 14.6094 93.8672 15.1797ZM113.473 19.5391V4H115.652V22H113.66L113.473 19.5391ZM104.941 15.8008V15.5547C104.941 14.5859 105.059 13.707 105.293 12.918C105.535 12.1211 105.875 11.4375 106.312 10.8672C106.758 10.2969 107.285 9.85938 107.895 9.55469C108.512 9.24219 109.199 9.08594 109.957 9.08594C110.754 9.08594 111.449 9.22656 112.043 9.50781C112.645 9.78125 113.152 10.1836 113.566 10.7148C113.988 11.2383 114.32 11.8711 114.562 12.6133C114.805 13.3555 114.973 14.1953 115.066 15.1328V16.2109C114.98 17.1406 114.812 17.9766 114.562 18.7188C114.32 19.4609 113.988 20.0938 113.566 20.6172C113.152 21.1406 112.645 21.543 112.043 21.8242C111.441 22.0977 110.738 22.2344 109.934 22.2344C109.191 22.2344 108.512 22.0742 107.895 21.7539C107.285 21.4336 106.758 20.9844 106.312 20.4062C105.875 19.8281 105.535 19.1484 105.293 18.3672C105.059 17.5781 104.941 16.7227 104.941 15.8008ZM107.121 15.5547V15.8008C107.121 16.4336 107.184 17.0273 107.309 17.582C107.441 18.1367 107.645 18.625 107.918 19.0469C108.191 19.4688 108.539 19.8008 108.961 20.043C109.383 20.2773 109.887 20.3945 110.473 20.3945C111.191 20.3945 111.781 20.2422 112.242 19.9375C112.711 19.6328 113.086 19.2305 113.367 18.7305C113.648 18.2305 113.867 17.6875 114.023 17.1016V14.2773C113.93 13.8477 113.793 13.4336 113.613 13.0352C113.441 12.6289 113.215 12.2695 112.934 11.957C112.66 11.6367 112.32 11.3828 111.914 11.1953C111.516 11.0078 111.043 10.9141 110.496 10.9141C109.902 10.9141 109.391 11.0391 108.961 11.2891C108.539 11.5312 108.191 11.8672 107.918 12.2969C107.645 12.7188 107.441 13.2109 107.309 13.7734C107.184 14.3281 107.121 14.9219 107.121 15.5547ZM121.383 9.32031V22H119.203V9.32031H121.383ZM119.039 5.95703C119.039 5.60547 119.145 5.30859 119.355 5.06641C119.574 4.82422 119.895 4.70312 120.316 4.70312C120.73 4.70312 121.047 4.82422 121.266 5.06641C121.492 5.30859 121.605 5.60547 121.605 5.95703C121.605 6.29297 121.492 6.58203 121.266 6.82422C121.047 7.05859 120.73 7.17578 120.316 7.17578C119.895 7.17578 119.574 7.05859 119.355 6.82422C119.145 6.58203 119.039 6.29297 119.039 5.95703ZM127.031 11.3125V22H124.863V9.32031H126.973L127.031 11.3125ZM130.992 9.25L130.98 11.2656C130.801 11.2266 130.629 11.2031 130.465 11.1953C130.309 11.1797 130.129 11.1719 129.926 11.1719C129.426 11.1719 128.984 11.25 128.602 11.4062C128.219 11.5625 127.895 11.7812 127.629 12.0625C127.363 12.3438 127.152 12.6797 126.996 13.0703C126.848 13.4531 126.75 13.875 126.703 14.3359L126.094 14.6875C126.094 13.9219 126.168 13.2031 126.316 12.5312C126.473 11.8594 126.711 11.2656 127.031 10.75C127.352 10.2266 127.758 9.82031 128.25 9.53125C128.75 9.23438 129.344 9.08594 130.031 9.08594C130.188 9.08594 130.367 9.10547 130.57 9.14453C130.773 9.17578 130.914 9.21094 130.992 9.25ZM138.023 22.2344C137.141 22.2344 136.34 22.0859 135.621 21.7891C134.91 21.4844 134.297 21.0586 133.781 20.5117C133.273 19.9648 132.883 19.3164 132.609 18.5664C132.336 17.8164 132.199 16.9961 132.199 16.1055V15.6133C132.199 14.582 132.352 13.6641 132.656 12.8594C132.961 12.0469 133.375 11.3594 133.898 10.7969C134.422 10.2344 135.016 9.80859 135.68 9.51953C136.344 9.23047 137.031 9.08594 137.742 9.08594C138.648 9.08594 139.43 9.24219 140.086 9.55469C140.75 9.86719 141.293 10.3047 141.715 10.8672C142.137 11.4219 142.449 12.0781 142.652 12.8359C142.855 13.5859 142.957 14.4062 142.957 15.2969V16.2695H133.488V14.5H140.789V14.3359C140.758 13.7734 140.641 13.2266 140.438 12.6953C140.242 12.1641 139.93 11.7266 139.5 11.3828C139.07 11.0391 138.484 10.8672 137.742 10.8672C137.25 10.8672 136.797 10.9727 136.383 11.1836C135.969 11.3867 135.613 11.6914 135.316 12.0977C135.02 12.5039 134.789 13 134.625 13.5859C134.461 14.1719 134.379 14.8477 134.379 15.6133V16.1055C134.379 16.707 134.461 17.2734 134.625 17.8047C134.797 18.3281 135.043 18.7891 135.363 19.1875C135.691 19.5859 136.086 19.8984 136.547 20.125C137.016 20.3516 137.547 20.4648 138.141 20.4648C138.906 20.4648 139.555 20.3086 140.086 19.9961C140.617 19.6836 141.082 19.2656 141.48 18.7422L142.793 19.7852C142.52 20.1992 142.172 20.5938 141.75 20.9688C141.328 21.3438 140.809 21.6484 140.191 21.8828C139.582 22.1172 138.859 22.2344 138.023 22.2344ZM150.562 20.4531C151.078 20.4531 151.555 20.3477 151.992 20.1367C152.43 19.9258 152.789 19.6367 153.07 19.2695C153.352 18.8945 153.512 18.4688 153.551 17.9922H155.613C155.574 18.7422 155.32 19.4414 154.852 20.0898C154.391 20.7305 153.785 21.25 153.035 21.6484C152.285 22.0391 151.461 22.2344 150.562 22.2344C149.609 22.2344 148.777 22.0664 148.066 21.7305C147.363 21.3945 146.777 20.9336 146.309 20.3477C145.848 19.7617 145.5 19.0898 145.266 18.332C145.039 17.5664 144.926 16.7578 144.926 15.9062V15.4141C144.926 14.5625 145.039 13.7578 145.266 13C145.5 12.2344 145.848 11.5586 146.309 10.9727C146.777 10.3867 147.363 9.92578 148.066 9.58984C148.777 9.25391 149.609 9.08594 150.562 9.08594C151.555 9.08594 152.422 9.28906 153.164 9.69531C153.906 10.0938 154.488 10.6406 154.91 11.3359C155.34 12.0234 155.574 12.8047 155.613 13.6797H153.551C153.512 13.1562 153.363 12.6836 153.105 12.2617C152.855 11.8398 152.512 11.5039 152.074 11.2539C151.645 10.9961 151.141 10.8672 150.562 10.8672C149.898 10.8672 149.34 11 148.887 11.2656C148.441 11.5234 148.086 11.875 147.82 12.3203C147.562 12.7578 147.375 13.2461 147.258 13.7852C147.148 14.3164 147.094 14.8594 147.094 15.4141V15.9062C147.094 16.4609 147.148 17.0078 147.258 17.5469C147.367 18.0859 147.551 18.5742 147.809 19.0117C148.074 19.4492 148.43 19.8008 148.875 20.0664C149.328 20.3242 149.891 20.4531 150.562 20.4531ZM163.359 9.32031V10.9844H156.504V9.32031H163.359ZM158.824 6.23828H160.992V18.8594C160.992 19.2891 161.059 19.6133 161.191 19.832C161.324 20.0508 161.496 20.1953 161.707 20.2656C161.918 20.3359 162.145 20.3711 162.387 20.3711C162.566 20.3711 162.754 20.3555 162.949 20.3242C163.152 20.2852 163.305 20.2539 163.406 20.2305L163.418 22C163.246 22.0547 163.02 22.1055 162.738 22.1523C162.465 22.207 162.133 22.2344 161.742 22.2344C161.211 22.2344 160.723 22.1289 160.277 21.918C159.832 21.707 159.477 21.3555 159.211 20.8633C158.953 20.3633 158.824 19.6914 158.824 18.8477V6.23828ZM171.164 22.2344C170.281 22.2344 169.48 22.0859 168.762 21.7891C168.051 21.4844 167.438 21.0586 166.922 20.5117C166.414 19.9648 166.023 19.3164 165.75 18.5664C165.477 17.8164 165.34 16.9961 165.34 16.1055V15.6133C165.34 14.582 165.492 13.6641 165.797 12.8594C166.102 12.0469 166.516 11.3594 167.039 10.7969C167.562 10.2344 168.156 9.80859 168.82 9.51953C169.484 9.23047 170.172 9.08594 170.883 9.08594C171.789 9.08594 172.57 9.24219 173.227 9.55469C173.891 9.86719 174.434 10.3047 174.855 10.8672C175.277 11.4219 175.59 12.0781 175.793 12.8359C175.996 13.5859 176.098 14.4062 176.098 15.2969V16.2695H166.629V14.5H173.93V14.3359C173.898 13.7734 173.781 13.2266 173.578 12.6953C173.383 12.1641 173.07 11.7266 172.641 11.3828C172.211 11.0391 171.625 10.8672 170.883 10.8672C170.391 10.8672 169.938 10.9727 169.523 11.1836C169.109 11.3867 168.754 11.6914 168.457 12.0977C168.16 12.5039 167.93 13 167.766 13.5859C167.602 14.1719 167.52 14.8477 167.52 15.6133V16.1055C167.52 16.707 167.602 17.2734 167.766 17.8047C167.938 18.3281 168.184 18.7891 168.504 19.1875C168.832 19.5859 169.227 19.8984 169.688 20.125C170.156 20.3516 170.688 20.4648 171.281 20.4648C172.047 20.4648 172.695 20.3086 173.227 19.9961C173.758 19.6836 174.223 19.2656 174.621 18.7422L175.934 19.7852C175.66 20.1992 175.312 20.5938 174.891 20.9688C174.469 21.3438 173.949 21.6484 173.332 21.8828C172.723 22.1172 172 22.2344 171.164 22.2344ZM186.621 19.5391V4H188.801V22H186.809L186.621 19.5391ZM178.09 15.8008V15.5547C178.09 14.5859 178.207 13.707 178.441 12.918C178.684 12.1211 179.023 11.4375 179.461 10.8672C179.906 10.2969 180.434 9.85938 181.043 9.55469C181.66 9.24219 182.348 9.08594 183.105 9.08594C183.902 9.08594 184.598 9.22656 185.191 9.50781C185.793 9.78125 186.301 10.1836 186.715 10.7148C187.137 11.2383 187.469 11.8711 187.711 12.6133C187.953 13.3555 188.121 14.1953 188.215 15.1328V16.2109C188.129 17.1406 187.961 17.9766 187.711 18.7188C187.469 19.4609 187.137 20.0938 186.715 20.6172C186.301 21.1406 185.793 21.543 185.191 21.8242C184.59 22.0977 183.887 22.2344 183.082 22.2344C182.34 22.2344 181.66 22.0742 181.043 21.7539C180.434 21.4336 179.906 20.9844 179.461 20.4062C179.023 19.8281 178.684 19.1484 178.441 18.3672C178.207 17.5781 178.09 16.7227 178.09 15.8008ZM180.27 15.5547V15.8008C180.27 16.4336 180.332 17.0273 180.457 17.582C180.59 18.1367 180.793 18.625 181.066 19.0469C181.34 19.4688 181.688 19.8008 182.109 20.043C182.531 20.2773 183.035 20.3945 183.621 20.3945C184.34 20.3945 184.93 20.2422 185.391 19.9375C185.859 19.6328 186.234 19.2305 186.516 18.7305C186.797 18.2305 187.016 17.6875 187.172 17.1016V14.2773C187.078 13.8477 186.941 13.4336 186.762 13.0352C186.59 12.6289 186.363 12.2695 186.082 11.957C185.809 11.6367 185.469 11.3828 185.062 11.1953C184.664 11.0078 184.191 10.9141 183.645 10.9141C183.051 10.9141 182.539 11.0391 182.109 11.2891C181.688 11.5312 181.34 11.8672 181.066 12.2969C180.793 12.7188 180.59 13.2109 180.457 13.7734C180.332 14.3281 180.27 14.9219 180.27 15.5547Z" fill="white"/>
<path d="M455.5 231.5C455.5 254.161 437.798 272.5 416 272.5C394.202 272.5 376.5 254.161 376.5 231.5C376.5 208.839 394.202 190.5 416 190.5C437.798 190.5 455.5 208.839 455.5 231.5Z" stroke="white"/>
<path d="M548.5 75.5C548.5 98.1612 530.798 116.5 509 116.5C487.202 116.5 469.5 98.1612 469.5 75.5C469.5 52.8388 487.202 34.5 509 34.5C530.798 34.5 548.5 52.8388 548.5 75.5Z" stroke="white"/>
<path d="M642.5 231.5C642.5 254.161 624.798 272.5 603 272.5C581.202 272.5 563.5 254.161 563.5 231.5C563.5 208.839 581.202 190.5 603 190.5C624.798 190.5 642.5 208.839 642.5 231.5Z" stroke="white"/>
<path d="M417.543 221.844V239H415.375V224.551L411.004 226.145V224.188L417.203 221.844H417.543Z" fill="white"/>
<path d="M514.598 81.2188V83H503.43V81.4414L509.02 75.2188C509.707 74.4531 510.238 73.8047 510.613 73.2734C510.996 72.7344 511.262 72.2539 511.41 71.832C511.566 71.4023 511.645 70.9648 511.645 70.5195C511.645 69.957 511.527 69.4492 511.293 68.9961C511.066 68.5352 510.73 68.168 510.285 67.8945C509.84 67.6211 509.301 67.4844 508.668 67.4844C507.91 67.4844 507.277 67.6328 506.77 67.9297C506.27 68.2188 505.895 68.625 505.645 69.1484C505.395 69.6719 505.27 70.2734 505.27 70.9531H503.102C503.102 69.9922 503.312 69.1133 503.734 68.3164C504.156 67.5195 504.781 66.8867 505.609 66.418C506.438 65.9414 507.457 65.7031 508.668 65.7031C509.746 65.7031 510.668 65.8945 511.434 66.2773C512.199 66.6523 512.785 67.1836 513.191 67.8711C513.605 68.5508 513.812 69.3477 513.812 70.2617C513.812 70.7617 513.727 71.2695 513.555 71.7852C513.391 72.293 513.16 72.8008 512.863 73.3086C512.574 73.8164 512.234 74.3164 511.844 74.8086C511.461 75.3008 511.051 75.7852 510.613 76.2617L506.043 81.2188H514.598Z" fill="white"/>
<path d="M600.582 229.402H602.129C602.887 229.402 603.512 229.277 604.004 229.027C604.504 228.77 604.875 228.422 605.117 227.984C605.367 227.539 605.492 227.039 605.492 226.484C605.492 225.828 605.383 225.277 605.164 224.832C604.945 224.387 604.617 224.051 604.18 223.824C603.742 223.598 603.188 223.484 602.516 223.484C601.906 223.484 601.367 223.605 600.898 223.848C600.438 224.082 600.074 224.418 599.809 224.855C599.551 225.293 599.422 225.809 599.422 226.402H597.254C597.254 225.535 597.473 224.746 597.91 224.035C598.348 223.324 598.961 222.758 599.75 222.336C600.547 221.914 601.469 221.703 602.516 221.703C603.547 221.703 604.449 221.887 605.223 222.254C605.996 222.613 606.598 223.152 607.027 223.871C607.457 224.582 607.672 225.469 607.672 226.531C607.672 226.961 607.57 227.422 607.367 227.914C607.172 228.398 606.863 228.852 606.441 229.273C606.027 229.695 605.488 230.043 604.824 230.316C604.16 230.582 603.363 230.715 602.434 230.715H600.582V229.402ZM600.582 231.184V229.883H602.434C603.52 229.883 604.418 230.012 605.129 230.27C605.84 230.527 606.398 230.871 606.805 231.301C607.219 231.73 607.508 232.203 607.672 232.719C607.844 233.227 607.93 233.734 607.93 234.242C607.93 235.039 607.793 235.746 607.52 236.363C607.254 236.98 606.875 237.504 606.383 237.934C605.898 238.363 605.328 238.688 604.672 238.906C604.016 239.125 603.301 239.234 602.527 239.234C601.785 239.234 601.086 239.129 600.43 238.918C599.781 238.707 599.207 238.402 598.707 238.004C598.207 237.598 597.816 237.102 597.535 236.516C597.254 235.922 597.113 235.246 597.113 234.488H599.281C599.281 235.082 599.41 235.602 599.668 236.047C599.934 236.492 600.309 236.84 600.793 237.09C601.285 237.332 601.863 237.453 602.527 237.453C603.191 237.453 603.762 237.34 604.238 237.113C604.723 236.879 605.094 236.527 605.352 236.059C605.617 235.59 605.75 235 605.75 234.289C605.75 233.578 605.602 232.996 605.305 232.543C605.008 232.082 604.586 231.742 604.039 231.523C603.5 231.297 602.863 231.184 602.129 231.184H600.582Z" fill="white"/>
<path d="M466.598 22H463.035L463.059 20.1602H466.598C467.816 20.1602 468.832 19.9062 469.645 19.3984C470.457 18.8828 471.066 18.1641 471.473 17.2422C471.887 16.3125 472.094 15.2266 472.094 13.9844V12.9414C472.094 11.9648 471.977 11.0977 471.742 10.3398C471.508 9.57422 471.164 8.92969 470.711 8.40625C470.258 7.875 469.703 7.47266 469.047 7.19922C468.398 6.92578 467.652 6.78906 466.809 6.78906H462.965V4.9375H466.809C467.926 4.9375 468.945 5.125 469.867 5.5C470.789 5.86719 471.582 6.40234 472.246 7.10547C472.918 7.80078 473.434 8.64453 473.793 9.63672C474.152 10.6211 474.332 11.7305 474.332 12.9648V13.9844C474.332 15.2188 474.152 16.332 473.793 17.3242C473.434 18.3086 472.914 19.1484 472.234 19.8438C471.562 20.5391 470.75 21.0742 469.797 21.4492C468.852 21.8164 467.785 22 466.598 22ZM464.242 4.9375V22H461.98V4.9375H464.242ZM479.758 9.32031V22H477.578V9.32031H479.758ZM477.414 5.95703C477.414 5.60547 477.52 5.30859 477.73 5.06641C477.949 4.82422 478.27 4.70312 478.691 4.70312C479.105 4.70312 479.422 4.82422 479.641 5.06641C479.867 5.30859 479.98 5.60547 479.98 5.95703C479.98 6.29297 479.867 6.58203 479.641 6.82422C479.422 7.05859 479.105 7.17578 478.691 7.17578C478.27 7.17578 477.949 7.05859 477.73 6.82422C477.52 6.58203 477.414 6.29297 477.414 5.95703ZM485.406 11.3125V22H483.238V9.32031H485.348L485.406 11.3125ZM489.367 9.25L489.355 11.2656C489.176 11.2266 489.004 11.2031 488.84 11.1953C488.684 11.1797 488.504 11.1719 488.301 11.1719C487.801 11.1719 487.359 11.25 486.977 11.4062C486.594 11.5625 486.27 11.7812 486.004 12.0625C485.738 12.3438 485.527 12.6797 485.371 13.0703C485.223 13.4531 485.125 13.875 485.078 14.3359L484.469 14.6875C484.469 13.9219 484.543 13.2031 484.691 12.5312C484.848 11.8594 485.086 11.2656 485.406 10.75C485.727 10.2266 486.133 9.82031 486.625 9.53125C487.125 9.23438 487.719 9.08594 488.406 9.08594C488.562 9.08594 488.742 9.10547 488.945 9.14453C489.148 9.17578 489.289 9.21094 489.367 9.25ZM496.398 22.2344C495.516 22.2344 494.715 22.0859 493.996 21.7891C493.285 21.4844 492.672 21.0586 492.156 20.5117C491.648 19.9648 491.258 19.3164 490.984 18.5664C490.711 17.8164 490.574 16.9961 490.574 16.1055V15.6133C490.574 14.582 490.727 13.6641 491.031 12.8594C491.336 12.0469 491.75 11.3594 492.273 10.7969C492.797 10.2344 493.391 9.80859 494.055 9.51953C494.719 9.23047 495.406 9.08594 496.117 9.08594C497.023 9.08594 497.805 9.24219 498.461 9.55469C499.125 9.86719 499.668 10.3047 500.09 10.8672C500.512 11.4219 500.824 12.0781 501.027 12.8359C501.23 13.5859 501.332 14.4062 501.332 15.2969V16.2695H491.863V14.5H499.164V14.3359C499.133 13.7734 499.016 13.2266 498.812 12.6953C498.617 12.1641 498.305 11.7266 497.875 11.3828C497.445 11.0391 496.859 10.8672 496.117 10.8672C495.625 10.8672 495.172 10.9727 494.758 11.1836C494.344 11.3867 493.988 11.6914 493.691 12.0977C493.395 12.5039 493.164 13 493 13.5859C492.836 14.1719 492.754 14.8477 492.754 15.6133V16.1055C492.754 16.707 492.836 17.2734 493 17.8047C493.172 18.3281 493.418 18.7891 493.738 19.1875C494.066 19.5859 494.461 19.8984 494.922 20.125C495.391 20.3516 495.922 20.4648 496.516 20.4648C497.281 20.4648 497.93 20.3086 498.461 19.9961C498.992 19.6836 499.457 19.2656 499.855 18.7422L501.168 19.7852C500.895 20.1992 500.547 20.5938 500.125 20.9688C499.703 21.3438 499.184 21.6484 498.566 21.8828C497.957 22.1172 497.234 22.2344 496.398 22.2344ZM508.938 20.4531C509.453 20.4531 509.93 20.3477 510.367 20.1367C510.805 19.9258 511.164 19.6367 511.445 19.2695C511.727 18.8945 511.887 18.4688 511.926 17.9922H513.988C513.949 18.7422 513.695 19.4414 513.227 20.0898C512.766 20.7305 512.16 21.25 511.41 21.6484C510.66 22.0391 509.836 22.2344 508.938 22.2344C507.984 22.2344 507.152 22.0664 506.441 21.7305C505.738 21.3945 505.152 20.9336 504.684 20.3477C504.223 19.7617 503.875 19.0898 503.641 18.332C503.414 17.5664 503.301 16.7578 503.301 15.9062V15.4141C503.301 14.5625 503.414 13.7578 503.641 13C503.875 12.2344 504.223 11.5586 504.684 10.9727C505.152 10.3867 505.738 9.92578 506.441 9.58984C507.152 9.25391 507.984 9.08594 508.938 9.08594C509.93 9.08594 510.797 9.28906 511.539 9.69531C512.281 10.0938 512.863 10.6406 513.285 11.3359C513.715 12.0234 513.949 12.8047 513.988 13.6797H511.926C511.887 13.1562 511.738 12.6836 511.48 12.2617C511.23 11.8398 510.887 11.5039 510.449 11.2539C510.02 10.9961 509.516 10.8672 508.938 10.8672C508.273 10.8672 507.715 11 507.262 11.2656C506.816 11.5234 506.461 11.875 506.195 12.3203C505.938 12.7578 505.75 13.2461 505.633 13.7852C505.523 14.3164 505.469 14.8594 505.469 15.4141V15.9062C505.469 16.4609 505.523 17.0078 505.633 17.5469C505.742 18.0859 505.926 18.5742 506.184 19.0117C506.449 19.4492 506.805 19.8008 507.25 20.0664C507.703 20.3242 508.266 20.4531 508.938 20.4531ZM521.734 9.32031V10.9844H514.879V9.32031H521.734ZM517.199 6.23828H519.367V18.8594C519.367 19.2891 519.434 19.6133 519.566 19.832C519.699 20.0508 519.871 20.1953 520.082 20.2656C520.293 20.3359 520.52 20.3711 520.762 20.3711C520.941 20.3711 521.129 20.3555 521.324 20.3242C521.527 20.2852 521.68 20.2539 521.781 20.2305L521.793 22C521.621 22.0547 521.395 22.1055 521.113 22.1523C520.84 22.207 520.508 22.2344 520.117 22.2344C519.586 22.2344 519.098 22.1289 518.652 21.918C518.207 21.707 517.852 21.3555 517.586 20.8633C517.328 20.3633 517.199 19.6914 517.199 18.8477V6.23828ZM529.539 22.2344C528.656 22.2344 527.855 22.0859 527.137 21.7891C526.426 21.4844 525.812 21.0586 525.297 20.5117C524.789 19.9648 524.398 19.3164 524.125 18.5664C523.852 17.8164 523.715 16.9961 523.715 16.1055V15.6133C523.715 14.582 523.867 13.6641 524.172 12.8594C524.477 12.0469 524.891 11.3594 525.414 10.7969C525.938 10.2344 526.531 9.80859 527.195 9.51953C527.859 9.23047 528.547 9.08594 529.258 9.08594C530.164 9.08594 530.945 9.24219 531.602 9.55469C532.266 9.86719 532.809 10.3047 533.23 10.8672C533.652 11.4219 533.965 12.0781 534.168 12.8359C534.371 13.5859 534.473 14.4062 534.473 15.2969V16.2695H525.004V14.5H532.305V14.3359C532.273 13.7734 532.156 13.2266 531.953 12.6953C531.758 12.1641 531.445 11.7266 531.016 11.3828C530.586 11.0391 530 10.8672 529.258 10.8672C528.766 10.8672 528.312 10.9727 527.898 11.1836C527.484 11.3867 527.129 11.6914 526.832 12.0977C526.535 12.5039 526.305 13 526.141 13.5859C525.977 14.1719 525.895 14.8477 525.895 15.6133V16.1055C525.895 16.707 525.977 17.2734 526.141 17.8047C526.312 18.3281 526.559 18.7891 526.879 19.1875C527.207 19.5859 527.602 19.8984 528.062 20.125C528.531 20.3516 529.062 20.4648 529.656 20.4648C530.422 20.4648 531.07 20.3086 531.602 19.9961C532.133 19.6836 532.598 19.2656 532.996 18.7422L534.309 19.7852C534.035 20.1992 533.688 20.5938 533.266 20.9688C532.844 21.3438 532.324 21.6484 531.707 21.8828C531.098 22.1172 530.375 22.2344 529.539 22.2344ZM544.996 19.5391V4H547.176V22H545.184L544.996 19.5391ZM536.465 15.8008V15.5547C536.465 14.5859 536.582 13.707 536.816 12.918C537.059 12.1211 537.398 11.4375 537.836 10.8672C538.281 10.2969 538.809 9.85938 539.418 9.55469C540.035 9.24219 540.723 9.08594 541.48 9.08594C542.277 9.08594 542.973 9.22656 543.566 9.50781C544.168 9.78125 544.676 10.1836 545.09 10.7148C545.512 11.2383 545.844 11.8711 546.086 12.6133C546.328 13.3555 546.496 14.1953 546.59 15.1328V16.2109C546.504 17.1406 546.336 17.9766 546.086 18.7188C545.844 19.4609 545.512 20.0938 545.09 20.6172C544.676 21.1406 544.168 21.543 543.566 21.8242C542.965 22.0977 542.262 22.2344 541.457 22.2344C540.715 22.2344 540.035 22.0742 539.418 21.7539C538.809 21.4336 538.281 20.9844 537.836 20.4062C537.398 19.8281 537.059 19.1484 536.816 18.3672C536.582 17.5781 536.465 16.7227 536.465 15.8008ZM538.645 15.5547V15.8008C538.645 16.4336 538.707 17.0273 538.832 17.582C538.965 18.1367 539.168 18.625 539.441 19.0469C539.715 19.4688 540.062 19.8008 540.484 20.043C540.906 20.2773 541.41 20.3945 541.996 20.3945C542.715 20.3945 543.305 20.2422 543.766 19.9375C544.234 19.6328 544.609 19.2305 544.891 18.7305C545.172 18.2305 545.391 17.6875 545.547 17.1016V14.2773C545.453 13.8477 545.316 13.4336 545.137 13.0352C544.965 12.6289 544.738 12.2695 544.457 11.957C544.184 11.6367 543.844 11.3828 543.438 11.1953C543.039 11.0078 542.566 10.9141 542.02 10.9141C541.426 10.9141 540.914 11.0391 540.484 11.2891C540.062 11.5312 539.715 11.8672 539.441 12.2969C539.168 12.7188 538.965 13.2109 538.832 13.7734C538.707 14.3281 538.645 14.9219 538.645 15.5547Z" fill="white"/>
<path d="M474.457 95.643C474.26 94.8384 473.448 94.3459 472.643 94.5431L459.531 97.756C458.726 97.9532 458.234 98.7653 458.431 99.5699C458.628 100.375 459.44 100.867 460.245 100.67L471.9 97.8139L474.756 109.469C474.953 110.274 475.765 110.766 476.57 110.569C477.375 110.372 477.867 109.56 477.67 108.755L474.457 95.643ZM417.283 190.778L474.283 96.7778L471.717 95.2222L414.717 189.222L417.283 190.778Z" fill="white"/>
<path d="M602.684 191.466C603.494 191.641 604.292 191.126 604.466 190.316L607.313 177.12C607.487 176.31 606.972 175.512 606.163 175.337C605.353 175.163 604.555 175.677 604.38 176.487L601.85 188.217L590.12 185.687C589.31 185.513 588.512 186.028 588.337 186.837C588.163 187.647 588.677 188.445 589.487 188.62L602.684 191.466ZM541.74 97.8132L601.74 190.813L604.26 189.187L544.26 96.1868L541.74 97.8132Z" fill="white"/>
<path d="M563.061 234.561C563.646 233.975 563.646 233.025 563.061 232.439L553.515 222.893C552.929 222.308 551.979 222.308 551.393 222.893C550.808 223.479 550.808 224.429 551.393 225.015L559.879 233.5L551.393 241.985C550.808 242.571 550.808 243.521 551.393 244.107C551.979 244.692 552.929 244.692 553.515 244.107L563.061 234.561ZM455.5 235L562 235L562 232L455.5 232L455.5 235Z" fill="white"/>
<path d="M79.5 620.5C79.5 643.161 61.7981 661.5 40 661.5C18.2019 661.5 0.5 643.161 0.5 620.5C0.5 597.839 18.2019 579.5 40 579.5C61.7981 579.5 79.5 597.839 79.5 620.5Z" stroke="white"/>
<path d="M172.5 464.5C172.5 487.161 154.798 505.5 133 505.5C111.202 505.5 93.5 487.161 93.5 464.5C93.5 441.839 111.202 423.5 133 423.5C154.798 423.5 172.5 441.839 172.5 464.5Z" stroke="white"/>
<path d="M266.5 620.5C266.5 643.161 248.798 661.5 227 661.5C205.202 661.5 187.5 643.161 187.5 620.5C187.5 597.839 205.202 579.5 227 579.5C248.798 579.5 266.5 597.839 266.5 620.5Z" stroke="white"/>
<path d="M41.543 610.844V628H39.375V613.551L35.0039 615.145V613.188L41.2031 610.844H41.543Z" fill="white"/>
<path d="M138.598 470.219V472H127.43V470.441L133.02 464.219C133.707 463.453 134.238 462.805 134.613 462.273C134.996 461.734 135.262 461.254 135.41 460.832C135.566 460.402 135.645 459.965 135.645 459.52C135.645 458.957 135.527 458.449 135.293 457.996C135.066 457.535 134.73 457.168 134.285 456.895C133.84 456.621 133.301 456.484 132.668 456.484C131.91 456.484 131.277 456.633 130.77 456.93C130.27 457.219 129.895 457.625 129.645 458.148C129.395 458.672 129.27 459.273 129.27 459.953H127.102C127.102 458.992 127.312 458.113 127.734 457.316C128.156 456.52 128.781 455.887 129.609 455.418C130.438 454.941 131.457 454.703 132.668 454.703C133.746 454.703 134.668 454.895 135.434 455.277C136.199 455.652 136.785 456.184 137.191 456.871C137.605 457.551 137.812 458.348 137.812 459.262C137.812 459.762 137.727 460.27 137.555 460.785C137.391 461.293 137.16 461.801 136.863 462.309C136.574 462.816 136.234 463.316 135.844 463.809C135.461 464.301 135.051 464.785 134.613 465.262L130.043 470.219H138.598Z" fill="white"/>
<path d="M224.582 618.402H226.129C226.887 618.402 227.512 618.277 228.004 618.027C228.504 617.77 228.875 617.422 229.117 616.984C229.367 616.539 229.492 616.039 229.492 615.484C229.492 614.828 229.383 614.277 229.164 613.832C228.945 613.387 228.617 613.051 228.18 612.824C227.742 612.598 227.188 612.484 226.516 612.484C225.906 612.484 225.367 612.605 224.898 612.848C224.438 613.082 224.074 613.418 223.809 613.855C223.551 614.293 223.422 614.809 223.422 615.402H221.254C221.254 614.535 221.473 613.746 221.91 613.035C222.348 612.324 222.961 611.758 223.75 611.336C224.547 610.914 225.469 610.703 226.516 610.703C227.547 610.703 228.449 610.887 229.223 611.254C229.996 611.613 230.598 612.152 231.027 612.871C231.457 613.582 231.672 614.469 231.672 615.531C231.672 615.961 231.57 616.422 231.367 616.914C231.172 617.398 230.863 617.852 230.441 618.273C230.027 618.695 229.488 619.043 228.824 619.316C228.16 619.582 227.363 619.715 226.434 619.715H224.582V618.402ZM224.582 620.184V618.883H226.434C227.52 618.883 228.418 619.012 229.129 619.27C229.84 619.527 230.398 619.871 230.805 620.301C231.219 620.73 231.508 621.203 231.672 621.719C231.844 622.227 231.93 622.734 231.93 623.242C231.93 624.039 231.793 624.746 231.52 625.363C231.254 625.98 230.875 626.504 230.383 626.934C229.898 627.363 229.328 627.688 228.672 627.906C228.016 628.125 227.301 628.234 226.527 628.234C225.785 628.234 225.086 628.129 224.43 627.918C223.781 627.707 223.207 627.402 222.707 627.004C222.207 626.598 221.816 626.102 221.535 625.516C221.254 624.922 221.113 624.246 221.113 623.488H223.281C223.281 624.082 223.41 624.602 223.668 625.047C223.934 625.492 224.309 625.84 224.793 626.09C225.285 626.332 225.863 626.453 226.527 626.453C227.191 626.453 227.762 626.34 228.238 626.113C228.723 625.879 229.094 625.527 229.352 625.059C229.617 624.59 229.75 624 229.75 623.289C229.75 622.578 229.602 621.996 229.305 621.543C229.008 621.082 228.586 620.742 228.039 620.523C227.5 620.297 226.863 620.184 226.129 620.184H224.582Z" fill="white"/>
<line x1="39.5861" y1="579.719" x2="100.586" y2="489.719" stroke="white"/>
<line x1="165.413" y1="488.718" x2="227.413" y2="579.718" stroke="white"/>
<path d="M103.297 395.449L97.6484 411H95.3398L101.844 393.938H103.332L103.297 395.449ZM108.031 411L102.371 395.449L102.336 393.938H103.824L110.352 411H108.031ZM107.738 404.684V406.535H98.1523V404.684H107.738ZM117.383 409.453C117.898 409.453 118.375 409.348 118.812 409.137C119.25 408.926 119.609 408.637 119.891 408.27C120.172 407.895 120.332 407.469 120.371 406.992H122.434C122.395 407.742 122.141 408.441 121.672 409.09C121.211 409.73 120.605 410.25 119.855 410.648C119.105 411.039 118.281 411.234 117.383 411.234C116.43 411.234 115.598 411.066 114.887 410.73C114.184 410.395 113.598 409.934 113.129 409.348C112.668 408.762 112.32 408.09 112.086 407.332C111.859 406.566 111.746 405.758 111.746 404.906V404.414C111.746 403.562 111.859 402.758 112.086 402C112.32 401.234 112.668 400.559 113.129 399.973C113.598 399.387 114.184 398.926 114.887 398.59C115.598 398.254 116.43 398.086 117.383 398.086C118.375 398.086 119.242 398.289 119.984 398.695C120.727 399.094 121.309 399.641 121.73 400.336C122.16 401.023 122.395 401.805 122.434 402.68H120.371C120.332 402.156 120.184 401.684 119.926 401.262C119.676 400.84 119.332 400.504 118.895 400.254C118.465 399.996 117.961 399.867 117.383 399.867C116.719 399.867 116.16 400 115.707 400.266C115.262 400.523 114.906 400.875 114.641 401.32C114.383 401.758 114.195 402.246 114.078 402.785C113.969 403.316 113.914 403.859 113.914 404.414V404.906C113.914 405.461 113.969 406.008 114.078 406.547C114.188 407.086 114.371 407.574 114.629 408.012C114.895 408.449 115.25 408.801 115.695 409.066C116.148 409.324 116.711 409.453 117.383 409.453ZM128.434 409.688L131.961 398.32H134.281L129.195 412.957C129.078 413.27 128.922 413.605 128.727 413.965C128.539 414.332 128.297 414.68 128 415.008C127.703 415.336 127.344 415.602 126.922 415.805C126.508 416.016 126.012 416.121 125.434 416.121C125.262 416.121 125.043 416.098 124.777 416.051C124.512 416.004 124.324 415.965 124.215 415.934L124.203 414.176C124.266 414.184 124.363 414.191 124.496 414.199C124.637 414.215 124.734 414.223 124.789 414.223C125.281 414.223 125.699 414.156 126.043 414.023C126.387 413.898 126.676 413.684 126.91 413.379C127.152 413.082 127.359 412.672 127.531 412.148L128.434 409.688ZM125.844 398.32L129.137 408.164L129.699 410.449L128.141 411.246L123.477 398.32H125.844ZM141.148 409.453C141.664 409.453 142.141 409.348 142.578 409.137C143.016 408.926 143.375 408.637 143.656 408.27C143.938 407.895 144.098 407.469 144.137 406.992H146.199C146.16 407.742 145.906 408.441 145.438 409.09C144.977 409.73 144.371 410.25 143.621 410.648C142.871 411.039 142.047 411.234 141.148 411.234C140.195 411.234 139.363 411.066 138.652 410.73C137.949 410.395 137.363 409.934 136.895 409.348C136.434 408.762 136.086 408.09 135.852 407.332C135.625 406.566 135.512 405.758 135.512 404.906V404.414C135.512 403.562 135.625 402.758 135.852 402C136.086 401.234 136.434 400.559 136.895 399.973C137.363 399.387 137.949 398.926 138.652 398.59C139.363 398.254 140.195 398.086 141.148 398.086C142.141 398.086 143.008 398.289 143.75 398.695C144.492 399.094 145.074 399.641 145.496 400.336C145.926 401.023 146.16 401.805 146.199 402.68H144.137C144.098 402.156 143.949 401.684 143.691 401.262C143.441 400.84 143.098 400.504 142.66 400.254C142.23 399.996 141.727 399.867 141.148 399.867C140.484 399.867 139.926 400 139.473 400.266C139.027 400.523 138.672 400.875 138.406 401.32C138.148 401.758 137.961 402.246 137.844 402.785C137.734 403.316 137.68 403.859 137.68 404.414V404.906C137.68 405.461 137.734 406.008 137.844 406.547C137.953 407.086 138.137 407.574 138.395 408.012C138.66 408.449 139.016 408.801 139.461 409.066C139.914 409.324 140.477 409.453 141.148 409.453ZM150.992 393V411H148.812V393H150.992ZM156.828 398.32V411H154.648V398.32H156.828ZM154.484 394.957C154.484 394.605 154.59 394.309 154.801 394.066C155.02 393.824 155.34 393.703 155.762 393.703C156.176 393.703 156.492 393.824 156.711 394.066C156.938 394.309 157.051 394.605 157.051 394.957C157.051 395.293 156.938 395.582 156.711 395.824C156.492 396.059 156.176 396.176 155.762 396.176C155.34 396.176 155.02 396.059 154.801 395.824C154.59 395.582 154.484 395.293 154.484 394.957ZM165.383 409.453C165.898 409.453 166.375 409.348 166.812 409.137C167.25 408.926 167.609 408.637 167.891 408.27C168.172 407.895 168.332 407.469 168.371 406.992H170.434C170.395 407.742 170.141 408.441 169.672 409.09C169.211 409.73 168.605 410.25 167.855 410.648C167.105 411.039 166.281 411.234 165.383 411.234C164.43 411.234 163.598 411.066 162.887 410.73C162.184 410.395 161.598 409.934 161.129 409.348C160.668 408.762 160.32 408.09 160.086 407.332C159.859 406.566 159.746 405.758 159.746 404.906V404.414C159.746 403.562 159.859 402.758 160.086 402C160.32 401.234 160.668 400.559 161.129 399.973C161.598 399.387 162.184 398.926 162.887 398.59C163.598 398.254 164.43 398.086 165.383 398.086C166.375 398.086 167.242 398.289 167.984 398.695C168.727 399.094 169.309 399.641 169.73 400.336C170.16 401.023 170.395 401.805 170.434 402.68H168.371C168.332 402.156 168.184 401.684 167.926 401.262C167.676 400.84 167.332 400.504 166.895 400.254C166.465 399.996 165.961 399.867 165.383 399.867C164.719 399.867 164.16 400 163.707 400.266C163.262 400.523 162.906 400.875 162.641 401.32C162.383 401.758 162.195 402.246 162.078 402.785C161.969 403.316 161.914 403.859 161.914 404.414V404.906C161.914 405.461 161.969 406.008 162.078 406.547C162.188 407.086 162.371 407.574 162.629 408.012C162.895 408.449 163.25 408.801 163.695 409.066C164.148 409.324 164.711 409.453 165.383 409.453Z" fill="white"/>
<path d="M464.5 620.5C464.5 643.161 446.798 661.5 425 661.5C403.202 661.5 385.5 643.161 385.5 620.5C385.5 597.839 403.202 579.5 425 579.5C446.798 579.5 464.5 597.839 464.5 620.5Z" stroke="white"/>
<path d="M557.5 464.5C557.5 487.161 539.798 505.5 518 505.5C496.202 505.5 478.5 487.161 478.5 464.5C478.5 441.839 496.202 423.5 518 423.5C539.798 423.5 557.5 441.839 557.5 464.5Z" stroke="white"/>
<path d="M651.5 620.5C651.5 643.161 633.798 661.5 612 661.5C590.202 661.5 572.5 643.161 572.5 620.5C572.5 597.839 590.202 579.5 612 579.5C633.798 579.5 651.5 597.839 651.5 620.5Z" stroke="white"/>
<path d="M426.543 610.844V628H424.375V613.551L420.004 615.145V613.188L426.203 610.844H426.543Z" fill="white"/>
<path d="M523.598 470.219V472H512.43V470.441L518.02 464.219C518.707 463.453 519.238 462.805 519.613 462.273C519.996 461.734 520.262 461.254 520.41 460.832C520.566 460.402 520.645 459.965 520.645 459.52C520.645 458.957 520.527 458.449 520.293 457.996C520.066 457.535 519.73 457.168 519.285 456.895C518.84 456.621 518.301 456.484 517.668 456.484C516.91 456.484 516.277 456.633 515.77 456.93C515.27 457.219 514.895 457.625 514.645 458.148C514.395 458.672 514.27 459.273 514.27 459.953H512.102C512.102 458.992 512.312 458.113 512.734 457.316C513.156 456.52 513.781 455.887 514.609 455.418C515.438 454.941 516.457 454.703 517.668 454.703C518.746 454.703 519.668 454.895 520.434 455.277C521.199 455.652 521.785 456.184 522.191 456.871C522.605 457.551 522.812 458.348 522.812 459.262C522.812 459.762 522.727 460.27 522.555 460.785C522.391 461.293 522.16 461.801 521.863 462.309C521.574 462.816 521.234 463.316 520.844 463.809C520.461 464.301 520.051 464.785 519.613 465.262L515.043 470.219H523.598Z" fill="white"/>
<path d="M609.582 618.402H611.129C611.887 618.402 612.512 618.277 613.004 618.027C613.504 617.77 613.875 617.422 614.117 616.984C614.367 616.539 614.492 616.039 614.492 615.484C614.492 614.828 614.383 614.277 614.164 613.832C613.945 613.387 613.617 613.051 613.18 612.824C612.742 612.598 612.188 612.484 611.516 612.484C610.906 612.484 610.367 612.605 609.898 612.848C609.438 613.082 609.074 613.418 608.809 613.855C608.551 614.293 608.422 614.809 608.422 615.402H606.254C606.254 614.535 606.473 613.746 606.91 613.035C607.348 612.324 607.961 611.758 608.75 611.336C609.547 610.914 610.469 610.703 611.516 610.703C612.547 610.703 613.449 610.887 614.223 611.254C614.996 611.613 615.598 612.152 616.027 612.871C616.457 613.582 616.672 614.469 616.672 615.531C616.672 615.961 616.57 616.422 616.367 616.914C616.172 617.398 615.863 617.852 615.441 618.273C615.027 618.695 614.488 619.043 613.824 619.316C613.16 619.582 612.363 619.715 611.434 619.715H609.582V618.402ZM609.582 620.184V618.883H611.434C612.52 618.883 613.418 619.012 614.129 619.27C614.84 619.527 615.398 619.871 615.805 620.301C616.219 620.73 616.508 621.203 616.672 621.719C616.844 622.227 616.93 622.734 616.93 623.242C616.93 624.039 616.793 624.746 616.52 625.363C616.254 625.98 615.875 626.504 615.383 626.934C614.898 627.363 614.328 627.688 613.672 627.906C613.016 628.125 612.301 628.234 611.527 628.234C610.785 628.234 610.086 628.129 609.43 627.918C608.781 627.707 608.207 627.402 607.707 627.004C607.207 626.598 606.816 626.102 606.535 625.516C606.254 624.922 606.113 624.246 606.113 623.488H608.281C608.281 624.082 608.41 624.602 608.668 625.047C608.934 625.492 609.309 625.84 609.793 626.09C610.285 626.332 610.863 626.453 611.527 626.453C612.191 626.453 612.762 626.34 613.238 626.113C613.723 625.879 614.094 625.527 614.352 625.059C614.617 624.59 614.75 624 614.75 623.289C614.75 622.578 614.602 621.996 614.305 621.543C614.008 621.082 613.586 620.742 613.039 620.523C612.5 620.297 611.863 620.184 611.129 620.184H609.582Z" fill="white"/>
<line x1="465" y1="619.5" x2="572" y2="619.5" stroke="white"/>
<line x1="424.586" y1="579.719" x2="485.586" y2="489.719" stroke="white"/>
<line x1="550.413" y1="488.718" x2="612.413" y2="579.718" stroke="white"/>
<path d="M498.281 405.574H500.531C500.414 406.652 500.105 407.617 499.605 408.469C499.105 409.32 498.398 409.996 497.484 410.496C496.57 410.988 495.43 411.234 494.062 411.234C493.062 411.234 492.152 411.047 491.332 410.672C490.52 410.297 489.82 409.766 489.234 409.078C488.648 408.383 488.195 407.551 487.875 406.582C487.562 405.605 487.406 404.52 487.406 403.324V401.625C487.406 400.43 487.562 399.348 487.875 398.379C488.195 397.402 488.652 396.566 489.246 395.871C489.848 395.176 490.57 394.641 491.414 394.266C492.258 393.891 493.207 393.703 494.262 393.703C495.551 393.703 496.641 393.945 497.531 394.43C498.422 394.914 499.113 395.586 499.605 396.445C500.105 397.297 500.414 398.285 500.531 399.41H498.281C498.172 398.613 497.969 397.93 497.672 397.359C497.375 396.781 496.953 396.336 496.406 396.023C495.859 395.711 495.145 395.555 494.262 395.555C493.504 395.555 492.836 395.699 492.258 395.988C491.688 396.277 491.207 396.688 490.816 397.219C490.434 397.75 490.145 398.387 489.949 399.129C489.754 399.871 489.656 400.695 489.656 401.602V403.324C489.656 404.16 489.742 404.945 489.914 405.68C490.094 406.414 490.363 407.059 490.723 407.613C491.082 408.168 491.539 408.605 492.094 408.926C492.648 409.238 493.305 409.395 494.062 409.395C495.023 409.395 495.789 409.242 496.359 408.938C496.93 408.633 497.359 408.195 497.648 407.625C497.945 407.055 498.156 406.371 498.281 405.574ZM506.848 409.688L510.375 398.32H512.695L507.609 412.957C507.492 413.27 507.336 413.605 507.141 413.965C506.953 414.332 506.711 414.68 506.414 415.008C506.117 415.336 505.758 415.602 505.336 415.805C504.922 416.016 504.426 416.121 503.848 416.121C503.676 416.121 503.457 416.098 503.191 416.051C502.926 416.004 502.738 415.965 502.629 415.934L502.617 414.176C502.68 414.184 502.777 414.191 502.91 414.199C503.051 414.215 503.148 414.223 503.203 414.223C503.695 414.223 504.113 414.156 504.457 414.023C504.801 413.898 505.09 413.684 505.324 413.379C505.566 413.082 505.773 412.672 505.945 412.148L506.848 409.688ZM504.258 398.32L507.551 408.164L508.113 410.449L506.555 411.246L501.891 398.32H504.258ZM519.562 409.453C520.078 409.453 520.555 409.348 520.992 409.137C521.43 408.926 521.789 408.637 522.07 408.27C522.352 407.895 522.512 407.469 522.551 406.992H524.613C524.574 407.742 524.32 408.441 523.852 409.09C523.391 409.73 522.785 410.25 522.035 410.648C521.285 411.039 520.461 411.234 519.562 411.234C518.609 411.234 517.777 411.066 517.066 410.73C516.363 410.395 515.777 409.934 515.309 409.348C514.848 408.762 514.5 408.09 514.266 407.332C514.039 406.566 513.926 405.758 513.926 404.906V404.414C513.926 403.562 514.039 402.758 514.266 402C514.5 401.234 514.848 400.559 515.309 399.973C515.777 399.387 516.363 398.926 517.066 398.59C517.777 398.254 518.609 398.086 519.562 398.086C520.555 398.086 521.422 398.289 522.164 398.695C522.906 399.094 523.488 399.641 523.91 400.336C524.34 401.023 524.574 401.805 524.613 402.68H522.551C522.512 402.156 522.363 401.684 522.105 401.262C521.855 400.84 521.512 400.504 521.074 400.254C520.645 399.996 520.141 399.867 519.562 399.867C518.898 399.867 518.34 400 517.887 400.266C517.441 400.523 517.086 400.875 516.82 401.32C516.562 401.758 516.375 402.246 516.258 402.785C516.148 403.316 516.094 403.859 516.094 404.414V404.906C516.094 405.461 516.148 406.008 516.258 406.547C516.367 407.086 516.551 407.574 516.809 408.012C517.074 408.449 517.43 408.801 517.875 409.066C518.328 409.324 518.891 409.453 519.562 409.453ZM529.406 393V411H527.227V393H529.406ZM535.242 398.32V411H533.062V398.32H535.242ZM532.898 394.957C532.898 394.605 533.004 394.309 533.215 394.066C533.434 393.824 533.754 393.703 534.176 393.703C534.59 393.703 534.906 393.824 535.125 394.066C535.352 394.309 535.465 394.605 535.465 394.957C535.465 395.293 535.352 395.582 535.125 395.824C534.906 396.059 534.59 396.176 534.176 396.176C533.754 396.176 533.434 396.059 533.215 395.824C533.004 395.582 532.898 395.293 532.898 394.957ZM543.797 409.453C544.312 409.453 544.789 409.348 545.227 409.137C545.664 408.926 546.023 408.637 546.305 408.27C546.586 407.895 546.746 407.469 546.785 406.992H548.848C548.809 407.742 548.555 408.441 548.086 409.09C547.625 409.73 547.02 410.25 546.27 410.648C545.52 411.039 544.695 411.234 543.797 411.234C542.844 411.234 542.012 411.066 541.301 410.73C540.598 410.395 540.012 409.934 539.543 409.348C539.082 408.762 538.734 408.09 538.5 407.332C538.273 406.566 538.16 405.758 538.16 404.906V404.414C538.16 403.562 538.273 402.758 538.5 402C538.734 401.234 539.082 400.559 539.543 399.973C540.012 399.387 540.598 398.926 541.301 398.59C542.012 398.254 542.844 398.086 543.797 398.086C544.789 398.086 545.656 398.289 546.398 398.695C547.141 399.094 547.723 399.641 548.145 400.336C548.574 401.023 548.809 401.805 548.848 402.68H546.785C546.746 402.156 546.598 401.684 546.34 401.262C546.09 400.84 545.746 400.504 545.309 400.254C544.879 399.996 544.375 399.867 543.797 399.867C543.133 399.867 542.574 400 542.121 400.266C541.676 400.523 541.32 400.875 541.055 401.32C540.797 401.758 540.609 402.246 540.492 402.785C540.383 403.316 540.328 403.859 540.328 404.414V404.906C540.328 405.461 540.383 406.008 540.492 406.547C540.602 407.086 540.785 407.574 541.043 408.012C541.309 408.449 541.664 408.801 542.109 409.066C542.562 409.324 543.125 409.453 543.797 409.453Z" fill="white"/>
<path d="M525.002 587.924C524.96 588.752 525.597 589.456 526.424 589.498L539.907 590.18C540.734 590.222 541.439 589.585 541.481 588.758C541.523 587.93 540.886 587.226 540.059 587.184L528.074 586.578L528.68 574.593C528.722 573.766 528.085 573.061 527.258 573.019C526.43 572.977 525.726 573.614 525.684 574.442L525.002 587.924ZM510.208 587.111C490.79 560.722 488.408 542.814 493.341 532.022C498.257 521.266 510.849 516.747 523.407 518.054C535.964 519.362 547.668 526.417 550.795 537.841C553.916 549.24 548.742 565.877 525.494 586.887L527.506 589.113C551.008 567.873 557.272 550.135 553.689 537.049C550.113 523.989 536.974 516.451 523.718 515.071C510.464 513.691 496.274 518.39 490.612 530.775C484.967 543.124 488.21 562.278 507.792 588.889L510.208 587.111Z" fill="white"/>
<path d="M277.5 1000.5C277.5 1023.16 259.798 1041.5 238 1041.5C216.202 1041.5 198.5 1023.16 198.5 1000.5C198.5 977.839 216.202 959.5 238 959.5C259.798 959.5 277.5 977.839 277.5 1000.5Z" stroke="white"/>
<path d="M370.5 844.5C370.5 867.161 352.798 885.5 331 885.5C309.202 885.5 291.5 867.161 291.5 844.5C291.5 821.839 309.202 803.5 331 803.5C352.798 803.5 370.5 821.839 370.5 844.5Z" stroke="white"/>
<path d="M464.5 1000.5C464.5 1023.16 446.798 1041.5 425 1041.5C403.202 1041.5 385.5 1023.16 385.5 1000.5C385.5 977.839 403.202 959.5 425 959.5C446.798 959.5 464.5 977.839 464.5 1000.5Z" stroke="white"/>
<path d="M239.543 990.844V1008H237.375V993.551L233.004 995.145V993.188L239.203 990.844H239.543Z" fill="white"/>
<path d="M336.598 850.219V852H325.43V850.441L331.02 844.219C331.707 843.453 332.238 842.805 332.613 842.273C332.996 841.734 333.262 841.254 333.41 840.832C333.566 840.402 333.645 839.965 333.645 839.52C333.645 838.957 333.527 838.449 333.293 837.996C333.066 837.535 332.73 837.168 332.285 836.895C331.84 836.621 331.301 836.484 330.668 836.484C329.91 836.484 329.277 836.633 328.77 836.93C328.27 837.219 327.895 837.625 327.645 838.148C327.395 838.672 327.27 839.273 327.27 839.953H325.102C325.102 838.992 325.312 838.113 325.734 837.316C326.156 836.52 326.781 835.887 327.609 835.418C328.438 834.941 329.457 834.703 330.668 834.703C331.746 834.703 332.668 834.895 333.434 835.277C334.199 835.652 334.785 836.184 335.191 836.871C335.605 837.551 335.812 838.348 335.812 839.262C335.812 839.762 335.727 840.27 335.555 840.785C335.391 841.293 335.16 841.801 334.863 842.309C334.574 842.816 334.234 843.316 333.844 843.809C333.461 844.301 333.051 844.785 332.613 845.262L328.043 850.219H336.598Z" fill="white"/>
<path d="M254.738 890.914H254.926V892.754H254.738C253.59 892.754 252.629 892.941 251.855 893.316C251.082 893.684 250.469 894.18 250.016 894.805C249.562 895.422 249.234 896.117 249.031 896.891C248.836 897.664 248.738 898.449 248.738 899.246V901.754C248.738 902.512 248.828 903.184 249.008 903.77C249.188 904.348 249.434 904.836 249.746 905.234C250.059 905.633 250.41 905.934 250.801 906.137C251.199 906.34 251.613 906.441 252.043 906.441C252.543 906.441 252.988 906.348 253.379 906.16C253.77 905.965 254.098 905.695 254.363 905.352C254.637 905 254.844 904.586 254.984 904.109C255.125 903.633 255.195 903.109 255.195 902.539C255.195 902.031 255.133 901.543 255.008 901.074C254.883 900.598 254.691 900.176 254.434 899.809C254.176 899.434 253.852 899.141 253.461 898.93C253.078 898.711 252.621 898.602 252.09 898.602C251.488 898.602 250.926 898.75 250.402 899.047C249.887 899.336 249.461 899.719 249.125 900.195C248.797 900.664 248.609 901.176 248.562 901.73L247.414 901.719C247.523 900.844 247.727 900.098 248.023 899.48C248.328 898.855 248.703 898.348 249.148 897.957C249.602 897.559 250.105 897.27 250.66 897.09C251.223 896.902 251.816 896.809 252.441 896.809C253.293 896.809 254.027 896.969 254.645 897.289C255.262 897.609 255.77 898.039 256.168 898.578C256.566 899.109 256.859 899.711 257.047 900.383C257.242 901.047 257.34 901.73 257.34 902.434C257.34 903.238 257.227 903.992 257 904.695C256.773 905.398 256.434 906.016 255.98 906.547C255.535 907.078 254.984 907.492 254.328 907.789C253.672 908.086 252.91 908.234 252.043 908.234C251.121 908.234 250.316 908.047 249.629 907.672C248.941 907.289 248.371 906.781 247.918 906.148C247.465 905.516 247.125 904.812 246.898 904.039C246.672 903.266 246.559 902.48 246.559 901.684V900.664C246.559 899.461 246.68 898.281 246.922 897.125C247.164 895.969 247.582 894.922 248.176 893.984C248.777 893.047 249.609 892.301 250.672 891.746C251.734 891.191 253.09 890.914 254.738 890.914Z" fill="white"/>
<path d="M406.949 903.258V905.039H394.621V903.762L402.262 891.938H404.031L402.133 895.359L397.082 903.258H406.949ZM404.57 891.938V909H402.402V891.938H404.57Z" fill="white"/>
<path d="M325.16 1021.88L323.426 1021.43L324.281 1012.94H333.035V1014.94H326.121L325.605 1019.58C325.918 1019.4 326.312 1019.23 326.789 1019.08C327.273 1018.92 327.828 1018.84 328.453 1018.84C329.242 1018.84 329.949 1018.98 330.574 1019.25C331.199 1019.52 331.73 1019.9 332.168 1020.4C332.613 1020.9 332.953 1021.5 333.188 1022.21C333.422 1022.91 333.539 1023.7 333.539 1024.56C333.539 1025.38 333.426 1026.14 333.199 1026.82C332.98 1027.51 332.648 1028.11 332.203 1028.63C331.758 1029.14 331.195 1029.53 330.516 1029.81C329.844 1030.09 329.051 1030.23 328.137 1030.23C327.449 1030.23 326.797 1030.14 326.18 1029.95C325.57 1029.76 325.023 1029.46 324.539 1029.07C324.062 1028.68 323.672 1028.18 323.367 1027.6C323.07 1027 322.883 1026.31 322.805 1025.51H324.867C324.961 1026.15 325.148 1026.69 325.43 1027.13C325.711 1027.57 326.078 1027.9 326.531 1028.12C326.992 1028.34 327.527 1028.45 328.137 1028.45C328.652 1028.45 329.109 1028.36 329.508 1028.18C329.906 1028 330.242 1027.75 330.516 1027.41C330.789 1027.07 330.996 1026.67 331.137 1026.19C331.285 1025.71 331.359 1025.18 331.359 1024.59C331.359 1024.05 331.285 1023.55 331.137 1023.09C330.988 1022.62 330.766 1022.22 330.469 1021.88C330.18 1021.54 329.824 1021.27 329.402 1021.08C328.98 1020.89 328.496 1020.79 327.949 1020.79C327.223 1020.79 326.672 1020.89 326.297 1021.08C325.93 1021.28 325.551 1021.54 325.16 1021.88Z" fill="white"/>
<path d="M422.582 998.402H424.129C424.887 998.402 425.512 998.277 426.004 998.027C426.504 997.77 426.875 997.422 427.117 996.984C427.367 996.539 427.492 996.039 427.492 995.484C427.492 994.828 427.383 994.277 427.164 993.832C426.945 993.387 426.617 993.051 426.18 992.824C425.742 992.598 425.188 992.484 424.516 992.484C423.906 992.484 423.367 992.605 422.898 992.848C422.438 993.082 422.074 993.418 421.809 993.855C421.551 994.293 421.422 994.809 421.422 995.402H419.254C419.254 994.535 419.473 993.746 419.91 993.035C420.348 992.324 420.961 991.758 421.75 991.336C422.547 990.914 423.469 990.703 424.516 990.703C425.547 990.703 426.449 990.887 427.223 991.254C427.996 991.613 428.598 992.152 429.027 992.871C429.457 993.582 429.672 994.469 429.672 995.531C429.672 995.961 429.57 996.422 429.367 996.914C429.172 997.398 428.863 997.852 428.441 998.273C428.027 998.695 427.488 999.043 426.824 999.316C426.16 999.582 425.363 999.715 424.434 999.715H422.582V998.402ZM422.582 1000.18V998.883H424.434C425.52 998.883 426.418 999.012 427.129 999.27C427.84 999.527 428.398 999.871 428.805 1000.3C429.219 1000.73 429.508 1001.2 429.672 1001.72C429.844 1002.23 429.93 1002.73 429.93 1003.24C429.93 1004.04 429.793 1004.75 429.52 1005.36C429.254 1005.98 428.875 1006.5 428.383 1006.93C427.898 1007.36 427.328 1007.69 426.672 1007.91C426.016 1008.12 425.301 1008.23 424.527 1008.23C423.785 1008.23 423.086 1008.13 422.43 1007.92C421.781 1007.71 421.207 1007.4 420.707 1007C420.207 1006.6 419.816 1006.1 419.535 1005.52C419.254 1004.92 419.113 1004.25 419.113 1003.49H421.281C421.281 1004.08 421.41 1004.6 421.668 1005.05C421.934 1005.49 422.309 1005.84 422.793 1006.09C423.285 1006.33 423.863 1006.45 424.527 1006.45C425.191 1006.45 425.762 1006.34 426.238 1006.11C426.723 1005.88 427.094 1005.53 427.352 1005.06C427.617 1004.59 427.75 1004 427.75 1003.29C427.75 1002.58 427.602 1002 427.305 1001.54C427.008 1001.08 426.586 1000.74 426.039 1000.52C425.5 1000.3 424.863 1000.18 424.129 1000.18H422.582Z" fill="white"/>
<line x1="278" y1="999.5" x2="385" y2="999.5" stroke="white"/>
<line x1="237.586" y1="959.719" x2="298.586" y2="869.719" stroke="white"/>
<line x1="363.413" y1="868.718" x2="425.413" y2="959.718" stroke="white"/>
<path d="M284.469 779.844L287.855 767.938H289.496L288.547 772.566L284.902 785H283.273L284.469 779.844ZM280.965 767.938L283.66 779.609L284.469 785H282.852L278.715 767.938H280.965ZM293.879 779.598L296.516 767.938H298.777L294.652 785H293.035L293.879 779.598ZM289.742 767.938L293.035 779.844L294.23 785H292.602L289.086 772.566L288.125 767.938H289.742ZM305.844 785.234C304.961 785.234 304.16 785.086 303.441 784.789C302.73 784.484 302.117 784.059 301.602 783.512C301.094 782.965 300.703 782.316 300.43 781.566C300.156 780.816 300.02 779.996 300.02 779.105V778.613C300.02 777.582 300.172 776.664 300.477 775.859C300.781 775.047 301.195 774.359 301.719 773.797C302.242 773.234 302.836 772.809 303.5 772.52C304.164 772.23 304.852 772.086 305.562 772.086C306.469 772.086 307.25 772.242 307.906 772.555C308.57 772.867 309.113 773.305 309.535 773.867C309.957 774.422 310.27 775.078 310.473 775.836C310.676 776.586 310.777 777.406 310.777 778.297V779.27H301.309V777.5H308.609V777.336C308.578 776.773 308.461 776.227 308.258 775.695C308.062 775.164 307.75 774.727 307.32 774.383C306.891 774.039 306.305 773.867 305.562 773.867C305.07 773.867 304.617 773.973 304.203 774.184C303.789 774.387 303.434 774.691 303.137 775.098C302.84 775.504 302.609 776 302.445 776.586C302.281 777.172 302.199 777.848 302.199 778.613V779.105C302.199 779.707 302.281 780.273 302.445 780.805C302.617 781.328 302.863 781.789 303.184 782.188C303.512 782.586 303.906 782.898 304.367 783.125C304.836 783.352 305.367 783.465 305.961 783.465C306.727 783.465 307.375 783.309 307.906 782.996C308.438 782.684 308.902 782.266 309.301 781.742L310.613 782.785C310.34 783.199 309.992 783.594 309.57 783.969C309.148 784.344 308.629 784.648 308.012 784.883C307.402 785.117 306.68 785.234 305.844 785.234ZM315.664 772.32V785H313.484V772.32H315.664ZM313.32 768.957C313.32 768.605 313.426 768.309 313.637 768.066C313.855 767.824 314.176 767.703 314.598 767.703C315.012 767.703 315.328 767.824 315.547 768.066C315.773 768.309 315.887 768.605 315.887 768.957C315.887 769.293 315.773 769.582 315.547 769.824C315.328 770.059 315.012 770.176 314.598 770.176C314.176 770.176 313.855 770.059 313.637 769.824C313.426 769.582 313.32 769.293 313.32 768.957ZM327.359 772.32H329.328V784.73C329.328 785.848 329.102 786.801 328.648 787.59C328.195 788.379 327.562 788.977 326.75 789.383C325.945 789.797 325.016 790.004 323.961 790.004C323.523 790.004 323.008 789.934 322.414 789.793C321.828 789.66 321.25 789.43 320.68 789.102C320.117 788.781 319.645 788.348 319.262 787.801L320.398 786.512C320.93 787.152 321.484 787.598 322.062 787.848C322.648 788.098 323.227 788.223 323.797 788.223C324.484 788.223 325.078 788.094 325.578 787.836C326.078 787.578 326.465 787.195 326.738 786.688C327.02 786.188 327.16 785.57 327.16 784.836V775.109L327.359 772.32ZM318.629 778.801V778.555C318.629 777.586 318.742 776.707 318.969 775.918C319.203 775.121 319.535 774.438 319.965 773.867C320.402 773.297 320.93 772.859 321.547 772.555C322.164 772.242 322.859 772.086 323.633 772.086C324.43 772.086 325.125 772.227 325.719 772.508C326.32 772.781 326.828 773.184 327.242 773.715C327.664 774.238 327.996 774.871 328.238 775.613C328.48 776.355 328.648 777.195 328.742 778.133V779.211C328.656 780.141 328.488 780.977 328.238 781.719C327.996 782.461 327.664 783.094 327.242 783.617C326.828 784.141 326.32 784.543 325.719 784.824C325.117 785.098 324.414 785.234 323.609 785.234C322.852 785.234 322.164 785.074 321.547 784.754C320.938 784.434 320.414 783.984 319.977 783.406C319.539 782.828 319.203 782.148 318.969 781.367C318.742 780.578 318.629 779.723 318.629 778.801ZM320.797 778.555V778.801C320.797 779.434 320.859 780.027 320.984 780.582C321.117 781.137 321.316 781.625 321.582 782.047C321.855 782.469 322.203 782.801 322.625 783.043C323.047 783.277 323.551 783.395 324.137 783.395C324.855 783.395 325.449 783.242 325.918 782.938C326.387 782.633 326.758 782.23 327.031 781.73C327.312 781.23 327.531 780.688 327.688 780.102V777.277C327.602 776.848 327.469 776.434 327.289 776.035C327.117 775.629 326.891 775.27 326.609 774.957C326.336 774.637 325.996 774.383 325.59 774.195C325.184 774.008 324.707 773.914 324.16 773.914C323.566 773.914 323.055 774.039 322.625 774.289C322.203 774.531 321.855 774.867 321.582 775.297C321.316 775.719 321.117 776.211 320.984 776.773C320.859 777.328 320.797 777.922 320.797 778.555ZM334.789 767V785H332.621V767H334.789ZM334.273 778.18L333.371 778.145C333.379 777.277 333.508 776.477 333.758 775.742C334.008 775 334.359 774.355 334.812 773.809C335.266 773.262 335.805 772.84 336.43 772.543C337.062 772.238 337.762 772.086 338.527 772.086C339.152 772.086 339.715 772.172 340.215 772.344C340.715 772.508 341.141 772.773 341.492 773.141C341.852 773.508 342.125 773.984 342.312 774.57C342.5 775.148 342.594 775.855 342.594 776.691V785H340.414V776.668C340.414 776.004 340.316 775.473 340.121 775.074C339.926 774.668 339.641 774.375 339.266 774.195C338.891 774.008 338.43 773.914 337.883 773.914C337.344 773.914 336.852 774.027 336.406 774.254C335.969 774.48 335.59 774.793 335.27 775.191C334.957 775.59 334.711 776.047 334.531 776.562C334.359 777.07 334.273 777.609 334.273 778.18ZM351.148 772.32V773.984H344.293V772.32H351.148ZM346.613 769.238H348.781V781.859C348.781 782.289 348.848 782.613 348.98 782.832C349.113 783.051 349.285 783.195 349.496 783.266C349.707 783.336 349.934 783.371 350.176 783.371C350.355 783.371 350.543 783.355 350.738 783.324C350.941 783.285 351.094 783.254 351.195 783.23L351.207 785C351.035 785.055 350.809 785.105 350.527 785.152C350.254 785.207 349.922 785.234 349.531 785.234C349 785.234 348.512 785.129 348.066 784.918C347.621 784.707 347.266 784.355 347 783.863C346.742 783.363 346.613 782.691 346.613 781.848V769.238ZM358.953 785.234C358.07 785.234 357.27 785.086 356.551 784.789C355.84 784.484 355.227 784.059 354.711 783.512C354.203 782.965 353.812 782.316 353.539 781.566C353.266 780.816 353.129 779.996 353.129 779.105V778.613C353.129 777.582 353.281 776.664 353.586 775.859C353.891 775.047 354.305 774.359 354.828 773.797C355.352 773.234 355.945 772.809 356.609 772.52C357.273 772.23 357.961 772.086 358.672 772.086C359.578 772.086 360.359 772.242 361.016 772.555C361.68 772.867 362.223 773.305 362.645 773.867C363.066 774.422 363.379 775.078 363.582 775.836C363.785 776.586 363.887 777.406 363.887 778.297V779.27H354.418V777.5H361.719V777.336C361.688 776.773 361.57 776.227 361.367 775.695C361.172 775.164 360.859 774.727 360.43 774.383C360 774.039 359.414 773.867 358.672 773.867C358.18 773.867 357.727 773.973 357.312 774.184C356.898 774.387 356.543 774.691 356.246 775.098C355.949 775.504 355.719 776 355.555 776.586C355.391 777.172 355.309 777.848 355.309 778.613V779.105C355.309 779.707 355.391 780.273 355.555 780.805C355.727 781.328 355.973 781.789 356.293 782.188C356.621 782.586 357.016 782.898 357.477 783.125C357.945 783.352 358.477 783.465 359.07 783.465C359.836 783.465 360.484 783.309 361.016 782.996C361.547 782.684 362.012 782.266 362.41 781.742L363.723 782.785C363.449 783.199 363.102 783.594 362.68 783.969C362.258 784.344 361.738 784.648 361.121 784.883C360.512 785.117 359.789 785.234 358.953 785.234ZM374.41 782.539V767H376.59V785H374.598L374.41 782.539ZM365.879 778.801V778.555C365.879 777.586 365.996 776.707 366.23 775.918C366.473 775.121 366.812 774.438 367.25 773.867C367.695 773.297 368.223 772.859 368.832 772.555C369.449 772.242 370.137 772.086 370.895 772.086C371.691 772.086 372.387 772.227 372.98 772.508C373.582 772.781 374.09 773.184 374.504 773.715C374.926 774.238 375.258 774.871 375.5 775.613C375.742 776.355 375.91 777.195 376.004 778.133V779.211C375.918 780.141 375.75 780.977 375.5 781.719C375.258 782.461 374.926 783.094 374.504 783.617C374.09 784.141 373.582 784.543 372.98 784.824C372.379 785.098 371.676 785.234 370.871 785.234C370.129 785.234 369.449 785.074 368.832 784.754C368.223 784.434 367.695 783.984 367.25 783.406C366.812 782.828 366.473 782.148 366.23 781.367C365.996 780.578 365.879 779.723 365.879 778.801ZM368.059 778.555V778.801C368.059 779.434 368.121 780.027 368.246 780.582C368.379 781.137 368.582 781.625 368.855 782.047C369.129 782.469 369.477 782.801 369.898 783.043C370.32 783.277 370.824 783.395 371.41 783.395C372.129 783.395 372.719 783.242 373.18 782.938C373.648 782.633 374.023 782.23 374.305 781.73C374.586 781.23 374.805 780.688 374.961 780.102V777.277C374.867 776.848 374.73 776.434 374.551 776.035C374.379 775.629 374.152 775.27 373.871 774.957C373.598 774.637 373.258 774.383 372.852 774.195C372.453 774.008 371.98 773.914 371.434 773.914C370.84 773.914 370.328 774.039 369.898 774.289C369.477 774.531 369.129 774.867 368.855 775.297C368.582 775.719 368.379 776.211 368.246 776.773C368.121 777.328 368.059 777.922 368.059 778.555Z" fill="white"/>
</svg>
